<?xml version="1.0" encoding="UTF-8"?><svg id="Capa_2" xmlns="http://www.w3.org/2000/svg" viewBox="0 0 369.49 166.95"><defs><style>.cls-1{fill:#fff;}</style></defs><g id="Capa_1-2"><g><path class="cls-1" d="M25.43,118.05c.15-.1,.35-.17,.43-.3,1.46-2.65,42.48-77.33,42.66-77.6,.35-.51,.83-.68,1.45-.68,10.92,.01,21.85,.01,32.77,0,.78,0,1.29,.36,1.63,.96,.97,1.72,41.44,76.12,42,77.16,.13,.24,.18,.53,.3,.94-.44,0-52.32,0-67.16,.02-1.1,0-1.8-.36-2.32-1.33-1.35-2.52-9.52-16.97-9.65-17.18-.3,.57-7.46,15.77-8.19,17.29-.37,.77-.91,1.22-1.88,1.22-10.28-.03-31.64,0-32.04,0v-.48Zm42.19-18.24c12.44,0,24.92,0,37.47,0-6.25-13.25-12.46-26.39-18.67-39.56-.1,.08-18.72,39.36-18.81,39.56Z"/><path class="cls-1" d="M139.57,39.32c.28-.08,.45-.15,.62-.17,.27-.02,.54,0,.8,0,18.68,0,37.36,0,56.03,0,2.57,0,5.14,.14,7.71,.29,3.2,.18,6.33,.73,9.43,1.46,1.98,.46,3.91,1.12,5.79,1.91,1.93,.8,3.79,1.74,5.55,2.87,1.86,1.19,3.49,2.65,4.96,4.3,1.61,1.83,2.8,3.91,3.72,6.15,.64,1.57,1.01,3.22,1.2,4.9,.13,1.14,.23,2.28,.35,3.49,2.71-5.33,5.47-8.62,6.54-9.84,1.02-1.16,2.16-2.21,3.3-3.25,.93-.84,1.91-1.64,2.93-2.37,1.24-.89,2.5-1.75,3.82-2.51,1.62-.93,3.28-1.81,4.98-2.59,2.06-.96,4.18-1.8,6.37-2.43,1.34-.39,2.66-.81,4.01-1.16,2.78-.72,5.61-1.19,8.44-1.62,1.27-.19,2.6-.08,3.83-.39,2.15-.54,4.31-.21,6.46-.26,2.98-.08,5.96-.02,8.94-.01,.4,0,.8,.05,1.19,.14,1.36,.31,2.74,.44,4.14,.52,1.38,.08,2.76,.33,4.13,.57,2.03,.35,4.07,.68,6.07,1.15,2.13,.5,4.24,1.13,6.35,1.73,.95,.27,1.89,.58,2.82,.89,.62,.21,.98,.64,.95,1.33,0,.13,0,.27,0,.4,0,6.76,0,13.53,0,20.29,0,.39-.07,.77-.11,1.24-.64-.31-1.17-.55-1.69-.81-2.39-1.21-4.83-2.31-7.35-3.22-2.6-.94-5.26-1.69-7.96-2.23-2.28-.46-4.58-.85-6.92-.9-2.06-.04-4.13-.17-6.18-.08-2.19,.11-4.37,.35-6.53,.8-2.57,.54-5.1,1.21-7.57,2.11-2.46,.89-4.74,2.11-6.8,3.72-2.28,1.79-4.2,3.91-5.42,6.55-1.38,3-1.82,6.12-1.02,9.39,.92,3.79,3.04,6.73,6.01,9.15,1.61,1.31,3.35,2.41,5.2,3.3,2.15,1.03,4.39,1.82,6.71,2.4,2.45,.61,4.93,1.01,7.43,1.33,.56,.07,1.12,.03,1.68,.08,2.03,.16,4.06,.14,6.1,.07,2.72-.1,5.38-.52,8.03-1.04,2.15-.42,4.26-1.03,6.35-1.7,3.04-.97,5.96-2.24,8.86-3.54,.36-.16,.74-.27,1.21-.45,.04,.35,.1,.61,.1,.86,0,6.31,0,12.61,0,18.92,0,.91-.36,1.49-1.22,1.86-2.24,.98-4.51,1.84-6.84,2.56-1.74,.53-3.49,1.03-5.26,1.46-2.76,.67-5.56,1.16-8.37,1.53-1.99,.26-4,.36-6,.54-3.02,.28-6.05,.31-9.08,.26-3.05-.05-6.1-.24-9.13-.66-2.2-.3-4.4-.63-6.57-1.06-2.55-.5-5.06-1.18-7.49-2.09-1.98-.73-3.94-1.54-5.86-2.42-2.68-1.22-5.19-2.77-7.53-4.56-1.8-1.38-3.47-2.92-5.02-4.6-1.78-1.94-3.31-4.06-4.65-6.32-1.57-2.63-2.78-5.44-3.63-8.38-.77-2.68-1.21-5.42-1.38-8.22-.09-1.51-.07-5.65-.07-6.39-.97,1.62-4.64,6.18-7.34,8.06-1.29,.89-2.69,1.65-4.09,2.36-1.33,.67-2.72,1.27-4.12,1.79-2.31,.85-4.7,1.44-7.12,1.91-2.53,.49-5.08,.77-7.64,1-2.46,.23-15.01,.26-18.82,.26-.21,0-.43,0-.64,0-.71,.04-1.05,.4-1.09,1.12-.01,.21,0,.43,0,.64,0,8.29,0,16.59,0,24.88,0,.21,.01,.43,0,.64-.04,.57-.37,.95-.93,1.03-.21,.03-.43,.02-.64,.02-10.04,0-20.07,0-30.11,0-.16,0-.32,0-.48,0-.91-.03-1.23-.36-1.23-1.29,0-14.47,0-28.93-.02-43.4,0-.93,.58-1.42,1.37-1.39,.27,.01,.54,0,.81,0,14.52,0,29.04,0,43.55,0,1.99,0,3.97-.22,5.88-.77,2.15-.61,3.61-2.01,4.07-4.3,.42-2.08,.4-4.17-.08-6.22-.32-1.36-1.2-2.36-2.43-3.05-1.15-.64-4.21-1.45-8.25-1.38-11.75,0-43.52-.02-43.79-.01-.94,.02-1.47-.56-1.86-1.29-.62-1.15-7.66-14.35-8.48-15.87Z"/><path class="cls-1" d="M334.21,49.15c0,1.64-.6,2.72-1.64,3.71-2.14,2.04-6.31,1.69-7.94-1.37-1.81-3.4,.46-7.3,4.18-7.53,2.11-.13,3.67,.78,4.86,2.54,.57,.84,.56,2.61,.54,2.64Zm-1.92,2.5c.83-1,.94-2.15,.78-3.4-.34-2.61-3.28-4.12-5.76-2.89-1.11,.55-1.73,1.48-2.02,2.64-.36,1.44-.06,2.73,.93,3.87,.71,.82,1.6,1.17,2.66,1.28,1.19,.13,2.49-.5,3.41-1.5Z"/><path class="cls-1" d="M330.1,51.13c-.25-.44-.51-.89-.83-1.27-.14-.17-.45-.3-.67-.3-.32,0-.4,.31-.41,.59-.02,.43-.01,.86-.03,1.28-.01,.3-.12,.53-.47,.53-.35,0-.46-.23-.47-.53-.02-.86-.02-1.71-.02-2.57,0-.64-.01-1.28,0-1.93,.02-.66,.18-.85,.8-.83,.82,.03,1.66,.06,2.46,.24,1.14,.27,1.47,1.68,.64,2.53-.04,.04-.07,.08-.12,.11-.92,.64-.64,.74-.21,1.5,.26,.46,.8,1.11,.49,1.38-.29,.21-.68,.13-1.18-.75Zm-.82-2.45c.09-.02,.33-.04,.56-.11,.41-.13,.6-.44,.56-.86-.04-.39-.25-.64-.63-.72-.18-.04-.37-.06-.55-.08-.67-.08-.97,.15-1.02,.79-.05,.65,.27,.98,1.09,.97Z"/></g></g></svg>