<?xml version="1.0" encoding="UTF-8"?><svg id="Capa_2" xmlns="http://www.w3.org/2000/svg" viewBox="0 0 310.28 44.1"><defs><style>.cls-1{fill:#fff;}</style></defs><g id="Capa_1-2"><g><path class="cls-1" d="M35.06,6.01c0-1,0-1.87,0-2.75,0-1.8,1.4-3.19,3.2-3.2,1.79-.02,3.24,1.35,3.31,3.12,0,.07,0,.15,0,.22,0,12.35,0,24.69,0,37.04,0,1.43-.67,2.48-1.96,3.06-1.26,.57-2.45,.34-3.48-.58-.67-.6-1.05-1.35-1.06-2.26,0-.91,0-1.83,0-2.74-.21-.1-.28,.09-.37,.18-4.12,3.86-8.98,5.87-14.64,5.67-5.1-.18-9.5-2.12-13.19-5.64-3.55-3.39-5.71-7.54-6.53-12.36C-1.37,15.77,3.61,5.76,12.7,1.83,20.35-1.49,27.47-.21,33.92,5c.19,.15,.36,.32,.55,.48,.17,.15,.33,.3,.59,.53Zm-.03,15.5c-.1-3.27-1.06-6.27-2.94-8.96-5.1-7.29-14.93-8.11-21.15-1.76-5.7,5.82-5.91,15.78-.39,21.78,3.6,3.92,8.06,5.53,13.32,4.32,6.86-1.58,11.37-8.28,11.16-15.37Z"/><path class="cls-1" d="M158.99,24.5c-.45,0-.56,.12-.53,.55,.26,3.51,1.23,6.72,3.83,9.25,1.91,1.86,4.24,2.8,6.86,3.12,4.44,.54,8.4-.62,11.9-3.37,.77-.6,1.6-.93,2.6-.81,1.24,.16,2.13,.81,2.61,1.94,.49,1.15,.37,2.29-.45,3.26-1.19,1.41-2.71,2.39-4.33,3.23-4.04,2.1-8.36,2.67-12.83,2.32-3.32-.26-6.48-1.09-9.3-2.94-3.56-2.34-5.65-5.73-6.83-9.74-.72-2.45-1.05-4.96-1.14-7.51-.13-3.6,.11-7.17,1.14-10.65,1.19-4.02,3.26-7.44,6.78-9.85,2.46-1.68,5.21-2.55,8.15-2.87,3.27-.35,6.5-.18,9.63,.89,4.76,1.62,7.79,4.97,9.43,9.65,1.08,3.08,1.43,6.25,1.13,9.49-.03,.37-.11,.74-.2,1.1-.48,1.89-1.64,2.82-3.6,2.92-.24,.01-.49,.02-.73,.02-3.91,0-20,0-24.13-.01Zm21.32-6.28c.43,0,.53-.11,.5-.53-.07-1.31-.23-2.6-.58-3.87-.94-3.41-2.99-5.77-6.5-6.65-2.55-.64-5.11-.6-7.64,.17-2.63,.8-4.58,2.45-5.89,4.85-.9,1.66-1.39,3.45-1.63,5.32-.09,.69-.08,.69,.64,.69,3.48,0,17.54,0,21.09,.01Z"/><path class="cls-1" d="M269.18,24.5c-.41,0-.57,.05-.53,.54,.19,2.45,.71,4.8,1.99,6.93,1.96,3.26,4.92,4.97,8.63,5.44,4.47,.57,8.46-.61,12.01-3.38,1.38-1.08,3.03-1.08,4.23-.09,1.44,1.19,1.63,3.25,.39,4.64-1.48,1.64-3.33,2.76-5.33,3.64-3.81,1.7-7.83,2.12-11.95,1.76-2.7-.24-5.3-.86-7.72-2.12-3.86-2.02-6.33-5.21-7.77-9.25-1.32-3.69-1.67-7.54-1.58-11.42,.08-3.4,.54-6.74,1.81-9.92,2.55-6.37,7.27-9.95,14.07-10.78,3.32-.41,6.61-.23,9.8,.84,4.99,1.68,8.06,5.23,9.65,10.14,.98,3.02,1.28,6.13,.92,9.3-.05,.42-.15,.85-.28,1.25-.52,1.55-1.66,2.38-3.37,2.49-.28,.02-.56,.02-.84,.02-3.91,0-20,0-24.14,0Zm21.34-6.29c.38,0,.54-.08,.51-.49-.09-1.23-.21-2.45-.52-3.65-.8-3.09-2.48-5.46-5.57-6.59-2.17-.8-4.43-.89-6.69-.57-2.71,.38-5.03,1.51-6.77,3.68-1.69,2.12-2.4,4.6-2.74,7.23-.06,.43,.19,.39,.46,.39,3.55,0,17.77,0,21.33,0Z"/><path class="cls-1" d="M130.26,44.03c-4.88-.06-9.42-1.33-13.41-4.34-.88-.67-1.7-1.42-2.36-2.3-1.63-2.17-.48-4.96,2.2-5.3,1.03-.13,1.92,.27,2.64,.99,3.36,3.37,7.49,4.43,12.1,4.15,1.48-.09,2.93-.34,4.3-.94,2.32-1.03,3.49-3.18,2.99-5.47-.22-1.04-.84-1.82-1.65-2.46-1.52-1.2-3.31-1.86-5.1-2.5-2.82-1.02-5.71-1.85-8.44-3.13-1.73-.81-3.37-1.78-4.75-3.12-2.51-2.44-3.42-5.47-3.12-8.88,.44-5.09,3.42-8.13,8.13-9.5,5.02-1.46,10.02-1.17,14.83,.98,2.03,.9,3.73,2.27,5.09,4.04,1.58,2.06,.67,4.78-1.81,5.31-1.12,.24-2.12-.08-2.93-.89-1.87-1.87-4.1-3.04-6.73-3.38-2.19-.29-4.37-.29-6.49,.42-2.7,.9-3.89,3.42-2.75,5.8,.48,.99,1.28,1.69,2.19,2.27,1.84,1.17,3.9,1.85,5.94,2.57,2.76,.97,5.56,1.86,8.14,3.26,1.57,.85,3.02,1.88,4.18,3.25,2.06,2.43,2.6,5.28,2.28,8.35-.55,5.28-4.08,8.66-9.32,10.05-.7,.19-1.42,.33-2.14,.45-1.31,.23-2.64,.27-4.02,.33Z"/><path class="cls-1" d="M239.98,31.26s8.41-20.45,11.53-28.23c1.2-2.99,4.86-3.16,6.47-1.11,.93,1.17,1.11,2.48,.56,3.85-.83,2.06-10.61,25.25-14.63,34.8-.27,.64-.48,1.3-.91,1.86-1.81,2.37-5.37,1.89-6.58-.91-.77-1.76-10.62-25.21-14.81-35.15-.57-1.34-.76-2.66,0-3.98,.75-1.27,1.93-1.87,3.37-1.85,1.67,.03,2.79,.91,3.42,2.45,.82,2.01,11.58,28.27,11.58,28.27Z"/><path class="cls-1" d="M74.99,22.15c.02-3.75,.37-7.46,1.72-11,2.3-6.09,6.72-9.56,13.13-10.55,3.83-.59,7.6-.42,11.25,1,2.75,1.08,5.12,2.7,6.91,5.08,1.4,1.86,.72,4.35-1.34,5.09-1.36,.49-2.7,.12-3.74-1.05-.5-.56-1-1.11-1.58-1.59-2.28-1.87-4.96-2.42-7.81-2.37-2,.03-3.94,.38-5.71,1.37-2.67,1.5-4.09,3.91-4.88,6.76-.93,3.36-1,6.79-.74,10.23,.18,2.4,.64,4.73,1.72,6.91,1.67,3.38,4.47,5.08,8.15,5.5,4.24,.48,7.97-.75,11.3-3.34,.96-.75,1.99-1.2,3.22-.88,2.31,.6,3.23,3.45,1.63,5.23-1.39,1.55-3.17,2.6-5.03,3.49-3.79,1.83-7.8,2.32-11.96,1.93-2.94-.28-5.72-1.05-8.23-2.66-3.36-2.16-5.39-5.31-6.6-9.04-.94-2.9-1.31-5.9-1.39-8.94,0-.39,0-.78,0-1.18Z"/><path class="cls-1" d="M57.75,5.44c3.14-3.76,7.19-5.22,11.86-5.19,1.8,.01,3.27,1.55,3.3,3.37,.02,1.86-1.43,3.45-3.24,3.48-1.87,.04-3.69,.26-5.41,1.04-3.21,1.46-5.03,4.06-5.94,7.37-.44,1.61-.59,3.27-.59,4.94,0,6.58,0,13.17,0,19.75,0,2.13-1.49,3.68-3.54,3.69-2.02,0-3.53-1.56-3.53-3.69,0-11.99,0-23.98,0-35.97,0-1.91,1.21-3.36,3-3.62,1.76-.26,3.41,.78,3.92,2.46,.23,.75,.11,1.52,.16,2.37Z"/><path class="cls-1" d="M202.14,5.63c3.16-3.75,7.19-5.2,11.85-5.14,1.76,.02,3.21,1.65,3.17,3.43-.03,1.85-1.51,3.33-3.37,3.36-2.24,.03-4.38,.43-6.32,1.61-2.72,1.66-4.16,4.2-4.87,7.22-.33,1.39-.46,2.8-.46,4.22,0,6.62,0,13.24,0,19.86,0,1.68-1.19,3.12-2.78,3.39-1.79,.31-3.41-.59-4-2.21-.14-.37-.19-.76-.19-1.15,0-11.99,0-23.97,0-35.96,0-1.92,1.49-3.42,3.4-3.43,2-.01,3.54,1.44,3.58,3.39,0,.44,0,.89,0,1.42Z"/><path class="cls-1" d="M305.87,9.86c-3.14,0-4.82-1.83-4.64-4.92,.03-.5,.07-1,.21-1.49,.54-1.97,2.22-3.04,4.55-2.89,.37,.02,.75,.06,1.11,.14,1.76,.37,2.78,1.46,3.07,3.26,.16,.97,.15,1.93-.09,2.89-.43,1.71-1.63,2.76-3.39,2.95-.32,.03-.63,.05-.82,.06Zm3.53-4.65c0-2.57-1.05-3.76-3.45-3.91-1.71-.11-3.03,.6-3.53,1.92-.32,.86-.36,1.75-.27,2.65,.21,2.09,1.16,3.09,3.24,3.22,2.29,.14,3.6-.73,3.93-2.88,.05-.33,.05-.67,.07-1.01Z"/><path class="cls-1" d="M306.42,5.78c.31,.39,.59,.74,.87,1.09,.18,.22,.24,.46,.02,.64-.25,.21-.48,.07-.66-.17-.33-.45-.68-.89-.99-1.36-.19-.3-.45-.32-.73-.25-.29,.08-.13,.35-.15,.53-.03,.32,0,.63-.01,.95,0,.25-.15,.38-.39,.39-.23,0-.4-.13-.41-.37,0-1.34,0-2.69,0-4.03,0-.32,.25-.39,.51-.39,.58,0,1.16-.01,1.73,.03,.76,.06,1.25,.52,1.34,1.19,.1,.74-.25,1.35-.95,1.65-.05,.02-.1,.05-.21,.1Zm-.83-2.27c-.19,0-.37,0-.56,0-.15,0-.22,.06-.25,.22-.21,1.11,.02,1.38,1.13,1.32,.06,0,.11,0,.17-.01,.47-.05,.71-.33,.7-.78-.01-.45-.25-.73-.74-.74-.15,0-.3,0-.45,0Z"/></g></g></svg>