<?xml version="1.0" encoding="UTF-8"?><svg id="Capa_2" xmlns="http://www.w3.org/2000/svg" viewBox="0 0 369.49 166.95"><defs><style>.cls-1,.cls-2{fill:#fff;}.cls-2,.cls-3{fill-rule:evenodd;}.cls-3{fill:#e6e6e6;}</style></defs><g id="Capa_1-2"><g><g><polygon class="cls-3" points="285.24 108 264.93 75.83 244.82 75.81 223.96 108 285.24 108"/><polygon class="cls-2" points="289.86 107.86 331.7 107.86 277.93 24 244.82 75.81 269.21 75.81 289.86 107.86"/></g><g><path class="cls-1" d="M155.08,42.52c-.18,0-.18,.18-.18,.18V107.69s0,.18,.18,.18h14.96l.18-.18V42.7l-.18-.18h-14.96Z"/><path class="cls-1" d="M130.33,75.81c-.18-.36-.18-.71,0-.89l19.76-32.05c.18-.18,0-.36,0-.36h-16.73c-.18,0-.36,.18-.36,.36l-11.22,18.16q-.18,.18-.36,0l-10.86-18.16c0-.18-.18-.36-.36-.36h-17.98s-.18,.18,0,.36l17.81,30.09c.36,.36,.36,.71,0,1.07l-20.3,33.66c-.18,0-.18,.18,.18,.18h17.27c.18,0,.36-.18,.53-.36l11.22-19.41q.18-.18,.36,0l11.93,19.59c.18,0,.36,.18,.53,.18h18.52s.18-.18,0-.36l-19.94-31.7Z"/><path class="cls-1" d="M198.88,65.67c-1.96-.89-4.45-2.14-4.45-4.81s2.67-4.1,5.52-4.1h15.49q.18,0,.18-.18v-14.07q0-.18-.18-.18h-16.2c-13.53,0-21.54,8.01-21.54,19.23,0,9.79,6.23,14.6,15.31,18.34,6.41,2.49,10.5,3.56,10.5,8.72,0,2.67-1.6,5.34-4.99,5.34h-19.58v13.71c0,.18,.17,.18,0,.18h19.76c2.49-.18,4.98-.54,7.3-1.25,9.08-2.85,13.89-11.93,13.89-19.59,0-12.28-9.61-16.56-21.01-21.36Z"/><path class="cls-1" d="M228.26,42.16c-3.03,0-5.34,2.49-5.34,5.52,0,2.85,2.32,5.34,5.34,5.34s5.52-2.49,5.52-5.34c0-3.03-2.49-5.52-5.52-5.52Zm0,10.33c-2.64,.01-4.8-2.12-4.81-4.77v-.04c0-2.85,2.14-4.99,4.81-4.99,2.85,0,4.98,2.14,4.98,4.99,0,2.67-2.14,4.81-4.98,4.81Z"/><path class="cls-1" d="M84.39,107.69V42.88c0-.18-.18-.36-.35-.36h-13.89c-.18,0-.36,.18-.36,.36L27.95,107.69s0,.18,.18,.18h16.91c.18,0,.36,0,.36-.18l5.7-8.9c.18,0,.18-.18,.36-.18h17.81c.18,0,.18,.18,.18,.18v8.73c0,.18,0,.36,.18,.36h14.6l.18-.18Zm-14.96-21.9v.17h-11.04q-.18,0-.18-.17l11.75-18.7-.53,18.7Z"/><path class="cls-1" d="M141.19,127.63c0,2.32-1.6,3.03-3.38,3.03s-3.21-1.07-3.21-2.85v-7.3h-3.21v7.3c0,3.92,2.67,5.52,6.41,5.52s6.59-1.42,6.59-5.52v-7.3h-3.21v7.12Z"/><polygon class="cls-1" points="112.53 125.31 108.25 120.5 105.4 120.5 105.4 133.15 108.61 133.15 108.61 125.31 112.17 129.23 112.7 129.23 116.26 125.31 116.26 133.15 119.47 133.15 119.47 120.5 116.62 120.5 112.53 125.31"/><path class="cls-1" d="M230.75,46.26c0-.53-.18-1.07-.71-1.42-.36-.36-.89-.36-1.42-.36h-2.31v6.23h.71v-2.67h1.78l1.25,2.67h.89l-1.25-2.85c.71-.18,1.07-.89,1.07-1.6Zm-2.14,1.07h-1.6v-2.31h1.6c.36,0,.71,0,.89,.36,.36,.18,.53,.36,.53,.89,0,.18-.18,.53-.36,.71-.36,.36-.71,.36-1.07,.36Z"/><polygon class="cls-1" points="166.3 128.34 159.35 120.5 156.32 120.5 156.32 133.15 159.53 133.15 159.53 125.13 166.83 133.15 169.5 133.15 169.5 120.5 166.3 120.5 166.3 128.34"/><polygon class="cls-1" points="85.64 125.31 81.37 120.5 78.7 120.5 78.7 133.15 81.9 133.15 81.9 125.31 85.46 129.23 85.82 129.23 89.38 125.31 89.38 133.15 92.58 133.15 92.58 120.5 89.91 120.5 85.64 125.31"/><path class="cls-1" d="M31.69,126.91c0-2.32,1.96-3.92,4.81-3.92,1.6,0,3.03,.53,4.45,1.24v-2.85c-1.25-.71-2.85-1.07-4.81-1.07-4.98,0-7.83,3.21-7.83,6.59,0,3.2,2.49,6.41,7.66,6.41,1.96,0,3.38-.36,5.16-1.25v-2.67c-1.96,.89-3.03,1.25-4.81,1.25-2.67,0-4.63-1.61-4.63-3.74Z"/><path class="cls-1" d="M59.82,120.33c-4.81,0-7.48,3.38-7.48,6.59s2.67,6.41,7.48,6.41,7.48-3.21,7.48-6.41c0-3.03-2.49-6.59-7.48-6.59Zm0,10.33c-2.49,0-4.09-1.42-4.09-3.74s1.6-3.92,4.09-3.92,4.1,1.6,4.1,3.92-1.6,3.74-4.1,3.74Z"/><rect class="cls-1" x="181.96" y="120.5" width="3.21" height="12.64"/><polygon class="cls-1" points="238.4 122.82 243.04 122.82 243.04 133.15 246.42 133.15 246.42 122.82 251.05 122.82 251.05 120.5 238.4 120.5 238.4 122.82"/><path class="cls-1" d="M199.23,126.91c0-2.32,1.96-3.92,4.81-3.92,1.6,0,3.02,.53,4.45,1.24v-2.85c-1.25-.71-2.85-1.07-4.81-1.07-4.98,0-7.83,3.21-7.83,6.59,0,3.2,2.67,6.41,7.66,6.41,1.96,0,3.38-.36,5.16-1.25v-2.67c-1.96,.89-3.03,1.25-4.81,1.25-2.67,0-4.63-1.61-4.63-3.74Z"/><path class="cls-1" d="M222.38,120.5l-5.16,12.64h3.38l1.07-2.49h5.88l1.07,2.49h3.38l-5.7-12.64h-3.92Zm.18,8.01l1.78-4.98,2.14,4.98h-3.92Z"/><rect class="cls-1" x="261.02" y="120.5" width="3.2" height="12.64"/><polygon class="cls-1" points="308.73 128.34 301.79 120.5 298.76 120.5 298.76 133.15 301.97 133.15 301.97 125.13 309.27 133.15 311.94 133.15 311.94 120.5 308.73 120.5 308.73 128.34"/><path class="cls-1" d="M281.67,120.33c-4.99,0-7.48,3.38-7.48,6.59s2.67,6.41,7.48,6.41,7.48-3.21,7.48-6.41c0-3.03-2.67-6.59-7.48-6.59Zm0,10.33c-2.49,0-4.09-1.42-4.09-3.74s1.6-3.92,4.09-3.92,4.09,1.6,4.09,3.92-1.6,3.74-4.09,3.74Z"/><path class="cls-1" d="M324.94,123.71c0-.53,.71-1.07,1.78-1.07,1.25,0,2.31,.36,4.27,1.25v-2.49c-1.78-.71-3.02-1.07-4.45-1.07-3.03,0-4.99,1.43-4.99,3.74,0,4.45,6.59,3.74,6.59,5.88,0,.71-.71,1.07-1.96,1.07-1.43,0-2.49-.35-4.45-1.6v2.67c1.42,.71,2.49,1.25,4.81,1.25,2.85,0,4.98-1.42,4.98-3.74,0-4.45-6.59-3.92-6.59-5.88Z"/><polygon class="cls-1" points="330.99 123.89 330.99 123.89 330.99 123.89 330.99 123.89"/></g></g></g></svg>