<?xml version="1.0" encoding="UTF-8"?><svg id="Capa_2" xmlns="http://www.w3.org/2000/svg" viewBox="0 0 369.49 166.95"><defs><style>.cls-1{fill:#fff;}</style></defs><g id="Capa_1-2"><g><path class="cls-1" d="M31.36,59.73c-.81-.39-1.72-.63-2.68-.63-.67,0-1.3,.13-1.9,.33-.05,.02-.1,.03-.15,.05-.2,.07-.4,.15-.6,.24-.25,.11-.5,.25-.73,.4-.04,.03-.09,.05-.13,.08-.28,.19-.53,.4-.78,.64-.05,.05-.1,.1-.16,.15-.14,.15-.27,.31-.4,.49-.84,1.06-1.36,2.38-1.36,3.83,0,3.43,2.78,6.21,6.21,6.21,1.44,0,2.75-.51,3.8-1.33,1.63-1.05,2.81-2.78,2.8-5.07-.01-2.6-1.74-4.5-3.92-5.38Z"/><path class="cls-1" d="M58.93,62.16c-.93-.44-3.03-.36-3.55-.3-7.31,.93-6.34,9.94-2.07,11.82,1.4,.62,2.68,.73,3.8,.51,3.02-.42,5.36-2.98,5.36-6.12,0-1.2-.36-2.31-.95-3.27-.49-1.1-1.34-2.05-2.6-2.65Z"/><path class="cls-1" d="M71.65,61.86c-.17,.02-.31,.06-.47,.09-.21,.03-.43,.06-.63,.12-2.14,.5-3.66,1.68-4.25,3.68-.29,.72-.46,1.5-.46,2.32,0,3.43,2.78,6.21,6.21,6.21,.92,0,1.78-.21,2.57-.57,1.58-.5,2.93-1.58,3.54-3.27,1.6-4.42-1.77-9.14-6.5-8.57Z"/><path class="cls-1" d="M58.93,78.42c-.93-.44-3.03-.36-3.55-.3-5.16,.66-6.18,5.34-4.84,8.7l.02,.04c.56,1.38,1.51,2.53,2.75,3.08,.46,.2,.9,.35,1.33,.45,.52,.14,1.06,.24,1.62,.24,3.43,0,6.21-2.78,6.21-6.21,0-1.08-.3-2.07-.78-2.96-.46-1.28-1.35-2.38-2.77-3.06Z"/><path class="cls-1" d="M63.09,52.75c1.49,.17,3.09,0,4.71-.65,8.51-3.35,6.71-15.92-1.48-17.74h-4.44c-3.17,1.55-5.06,2.52-6.21,5.03-.71,1.56-.97,3.13-.87,4.64,.19,4.41,3.48,8,7.76,8.65,.08,.01,.17,.03,.25,.04,.09,.01,.18,.02,.27,.03Z"/><path class="cls-1" d="M100.18,59.16c-.06,0-.12-.01-.18-.02-.12,0-.24-.04-.37-.04-.03,0-.05,0-.07,0-.44-.01-.88,.01-1.31,.09-2.08,.37-3.77,1.59-4.43,2.96-1.95,4,.8,9.29,5.66,9.35,.05,0,.1,.02,.16,.02,.07,0,.13-.02,.2-.02,.24-.01,.49-.04,.74-.07,.15-.02,.29-.04,.43-.07,.07-.01,.13-.02,.2-.03,.19-.04,.36-.13,.54-.2,.13-.05,.27-.09,.4-.14,.06-.03,.12-.07,.18-.1,2.07-1.01,3.52-3.11,3.52-5.57,0-3.24-2.49-5.87-5.66-6.15Z"/><path class="cls-1" d="M77.26,87.76c1.6-1.81,2.15-4.44,.29-7.27-.68-1.05-3.57-2.65-5.91-2.36-1.02,.12-1.98,.49-2.82,1.02-.92,.56-1.68,1.36-2.2,2.31v.02c-.49,.88-.79,1.88-.79,2.96,0,3.43,2.78,6.21,6.21,6.21,2.2,0,4.12-1.15,5.22-2.88Z"/><path class="cls-1" d="M52.88,113.2c-.97-1.59-2.54-2.76-4.59-2.86-2.02-.09-3.63,.7-4.75,1.91-.11,.11-.21,.22-.32,.33l-.02,.02c-.99,1.1-1.61,2.54-1.61,4.14,0,2.79,1.85,5.12,4.39,5.9,.09,.03,.16,.08,.24,.11h.1c.48,.12,.97,.2,1.48,.2s1-.08,1.48-.2h.49c2.88-.8,4.16-3.15,4.19-5.59,.01-.14,.04-.28,.04-.42,0-1.32-.42-2.54-1.12-3.55Z"/><path class="cls-1" d="M83.09,111.02c-.69-.38-1.45-.64-2.28-.67-7.14-.32-9.25,10.24-2.07,12.42h.49c.48,.12,.97,.2,1.48,.2s1-.08,1.48-.2h.1c.1-.03,.18-.08,.27-.11,2.52-.79,4.36-3.12,4.36-5.9,0-2.59-1.58-4.8-3.83-5.73Z"/><polygon class="cls-1" points="335.25 111.96 336.24 111.96 336.24 114.65 336.77 114.65 336.77 111.96 337.77 111.96 337.77 111.48 335.25 111.48 335.25 111.96"/><polygon class="cls-1" points="340.97 111.48 339.88 113.86 339.87 113.86 338.79 111.48 338.18 111.48 338.18 114.65 338.67 114.65 338.67 112.37 338.69 112.37 339.71 114.65 339.99 114.65 341.04 112.37 341.06 112.37 341.06 114.65 341.58 114.65 341.58 111.48 340.97 111.48"/><path class="cls-1" d="M313.81,74.39c-12.17,0-18.27,6.83-18.27,18.83v21.43h10.35v-21.43c0-5.8,2.27-9.27,7.92-9.27s7.92,3.47,7.92,9.27v21.43h10.36v-21.43c0-12.09-6.1-18.83-18.28-18.83Z"/><polygon class="cls-1" points="273.79 75.71 261.89 75.71 247.97 92.93 247.97 60.85 237.62 60.85 237.62 114.65 247.97 114.65 247.97 96.01 261.9 114.65 274.48 114.65 258.42 93.66 273.79 75.71"/><path class="cls-1" d="M195.19,74.39c-11.64,0-20.41,9.01-20.41,20.97s8.42,20.35,20.97,20.35c7.45,0,12.55-2.77,15.58-5.18l-5.27-7.19c-2.83,2.49-6.21,3.7-10.32,3.7-5.56,0-10.01-3.21-10.53-8.13h29.44c.08-.92,.12-2.21,.12-3.1,0-13.4-7.32-21.41-19.58-21.41Zm-9.94,17.13c.72-4.8,3.99-8.6,9.55-8.6s8.76,3.82,9.49,8.6h-19.03Z"/><rect class="cls-1" x="220.18" y="60.85" width="10.35" height="53.8"/><rect class="cls-1" x="278.41" y="75.71" width="10.35" height="38.94"/><path class="cls-1" d="M283.59,58.89c-3.29,0-5.97,2.68-5.97,5.97s2.68,5.97,5.97,5.97,5.97-2.68,5.97-5.97-2.68-5.97-5.97-5.97Z"/><path class="cls-1" d="M152.08,74.39c-5.68,0-9.77,2.58-12.3,5.33v-18.86h-10.35v34.02c0,12.27,8.5,20.84,20.67,20.84s20.64-8.49,20.64-20.66-7.5-20.66-18.67-20.66Zm-1.99,31.76c-5.87,0-10.31-4.77-10.31-11.1s4.44-11.1,10.31-11.1,10.31,4.77,10.31,11.1-4.43,11.1-10.31,11.1Z"/></g></g></svg>