<?xml version="1.0" encoding="UTF-8"?><svg id="Capa_2" xmlns="http://www.w3.org/2000/svg" viewBox="0 0 369.49 166.95"><defs><style>.cls-1{fill:#fff;}</style></defs><g id="Capa_1-2"><g><g><rect class="cls-1" x="147.01" y="77.94" width="7.62" height="30.19"/><path class="cls-1" d="M216.04,86.6c-.31-.15-2.77-1.62-6.4-1.62-4.93,0-8.35,3.44-8.35,8.06s3.27,8.06,8.35,8.06c3.57,0,6.07-1.42,6.4-1.6v8.1c-.96,.27-3.56,1.08-6.94,1.08-8.57,0-16.09-5.91-16.09-15.64,0-9.02,6.81-15.62,16.09-15.62,3.58,0,6.22,.87,6.94,1.08v8.11Z"/><path class="cls-1" d="M136.54,86.6c-.31-.15-2.76-1.62-6.39-1.62-4.94,0-8.35,3.44-8.35,8.06s3.27,8.06,8.35,8.06c3.57,0,6.06-1.42,6.39-1.6v8.1c-.96,.27-3.55,1.08-6.96,1.08-8.55,0-16.06-5.91-16.06-15.64,0-9.02,6.8-15.62,16.06-15.62,3.59,0,6.24,.87,6.96,1.08v8.11Z"/><path class="cls-1" d="M255.96,93.03c0,8.63-6.66,15.64-15.94,15.64s-15.94-7-15.94-15.64,6.66-15.62,15.94-15.62,15.94,6.99,15.94,15.62m-15.94-7.94c-4.52,0-7.88,3.56-7.88,7.94s3.36,7.95,7.88,7.95,7.88-3.55,7.88-7.95-3.37-7.94-7.88-7.94"/><path class="cls-1" d="M183.52,84.81c-.11-.04-3.33-.93-5.95-.93-3.06,0-4.71,1.03-4.71,2.48,0,1.83,2.24,2.47,3.49,2.87l2.1,.67c4.94,1.56,7.19,4.96,7.19,8.63,0,7.59-6.67,10.14-12.5,10.14-4.05,0-7.84-.75-8.22-.82v-6.95c.67,.17,3.86,1.12,7.19,1.12,3.8,0,5.54-1.1,5.54-2.83,0-1.52-1.51-2.4-3.39-2.99-.47-.16-1.16-.38-1.64-.53-4.23-1.34-7.78-3.83-7.78-8.83,0-5.64,4.23-9.44,11.26-9.44,3.71,0,7.19,.9,7.42,.96v6.45Z"/><path class="cls-1" d="M105.43,45.5c0-2.08-1.69-3.77-3.78-3.77s-3.79,1.69-3.79,3.77v7.92c0,2.1,1.71,3.77,3.79,3.77s3.78-1.67,3.78-3.77v-7.92Z"/><path class="cls-1" d="M126.21,35.1c0-2.07-1.7-3.77-3.78-3.77s-3.78,1.7-3.78,3.77v18.33c0,2.1,1.69,3.77,3.78,3.77s3.78-1.67,3.78-3.77v-18.33Z"/><path class="cls-1" d="M146.98,20.87c0-2.08-1.7-3.77-3.78-3.77s-3.79,1.69-3.79,3.77V60.95c0,2.09,1.7,3.79,3.79,3.79s3.78-1.69,3.78-3.79V20.87Z"/><path class="cls-1" d="M167.76,35.1c0-2.07-1.69-3.77-3.78-3.77s-3.78,1.7-3.78,3.77v18.33c0,2.1,1.7,3.77,3.78,3.77s3.78-1.67,3.78-3.77v-18.33Z"/><path class="cls-1" d="M188.51,45.5c0-2.08-1.69-3.77-3.76-3.77s-3.78,1.69-3.78,3.77v7.92c0,2.1,1.7,3.77,3.78,3.77s3.76-1.67,3.76-3.77v-7.92Z"/><path class="cls-1" d="M209.3,35.1c0-2.07-1.69-3.77-3.77-3.77s-3.77,1.7-3.77,3.77v18.33c0,2.1,1.68,3.77,3.77,3.77s3.77-1.67,3.77-3.77v-18.33Z"/><path class="cls-1" d="M230.08,20.87c0-2.08-1.68-3.77-3.77-3.77s-3.77,1.69-3.77,3.77V60.95c0,2.09,1.69,3.79,3.77,3.79s3.77-1.69,3.77-3.79V20.87Z"/><path class="cls-1" d="M250.86,35.1c0-2.07-1.69-3.77-3.82-3.77s-3.77,1.7-3.77,3.77v18.33c0,2.1,1.69,3.77,3.77,3.77s3.82-1.67,3.82-3.77v-18.33Z"/><path class="cls-1" d="M271.6,45.5c0-2.08-1.7-3.77-3.77-3.77s-3.77,1.69-3.77,3.77v7.92c0,2.1,1.68,3.77,3.77,3.77s3.77-1.67,3.77-3.77v-7.92Z"/></g><g><path class="cls-1" d="M97.93,120.58h7.86c4.05,0,7.31,1.21,9.76,3.64,2.45,2.43,3.68,5.86,3.68,10.3s-1.26,7.75-3.78,10.22c-2.52,2.48-5.78,3.72-9.78,3.72h-7.75v-27.89Zm7.94,1.82h-5.77v24.21h5.85c3.33,0,6.01-1.05,8.04-3.16,2.03-2.1,3.04-5.08,3.04-8.93s-1.03-6.86-3.08-8.97c-2.05-2.1-4.74-3.16-8.08-3.16Z"/><path class="cls-1" d="M126.55,123.45h-2.52v-2.87h2.52v2.87Zm-.23,25.02h-2.09v-20.14h2.09v20.14Z"/><path class="cls-1" d="M144.56,143.16c0-1.26-.5-2.22-1.51-2.87-1.01-.65-2.7-1.17-5.07-1.59-4.36-.75-6.55-2.62-6.55-5.62,0-1.57,.63-2.86,1.9-3.85,1.26-.99,3.07-1.49,5.42-1.49,2.09,0,3.85,.5,5.29,1.51,1.43,1.01,2.29,2.36,2.58,4.07h-2.17c-.18-1.14-.79-2.07-1.84-2.79-1.05-.72-2.36-1.08-3.93-1.08-1.68,0-2.95,.32-3.81,.97-.87,.65-1.3,1.47-1.3,2.48,0,1.11,.41,1.97,1.22,2.58,.81,.61,2.28,1.12,4.4,1.53,2.66,.49,4.58,1.19,5.77,2.11,1.19,.92,1.78,2.23,1.78,3.93s-.72,3.1-2.15,4.26c-1.43,1.16-3.35,1.74-5.75,1.74s-4.2-.54-5.62-1.63c-1.42-1.08-2.25-2.52-2.48-4.3h2.17c.15,1.29,.76,2.32,1.82,3.08,1.06,.76,2.44,1.14,4.14,1.14s3.18-.41,4.18-1.22c1.01-.81,1.51-1.8,1.51-2.96Z"/><path class="cls-1" d="M159.08,130.15h-4.69v14.29c0,1.89,.88,2.83,2.63,2.83,.83,0,1.64-.1,2.44-.31v1.7c-.88,.26-1.73,.39-2.56,.39-1.47,0-2.61-.4-3.41-1.2-.8-.8-1.2-1.95-1.2-3.45v-14.25h-2.9v-1.82h2.9l.12-4.84h1.98v4.84h4.69v1.82Z"/><path class="cls-1" d="M165.32,148.47h-2.09v-20.14h1.7l.31,3.87c1.06-2.97,2.94-4.45,5.65-4.45,.77,0,1.47,.1,2.09,.31v2.05c-.83-.23-1.56-.35-2.21-.35-1.52,0-2.81,.7-3.87,2.09-1.06,1.39-1.59,3.27-1.59,5.62v11Z"/><path class="cls-1" d="M178.76,123.45h-2.52v-2.87h2.52v2.87Zm-.23,25.02h-2.09v-20.14h2.09v20.14Z"/><path class="cls-1" d="M186.19,148.47h-1.7v-27.89h2.09v11.5c.67-1.32,1.61-2.37,2.83-3.16,1.21-.79,2.63-1.18,4.26-1.18,2.58,0,4.64,.89,6.18,2.67,1.54,1.78,2.3,4.36,2.3,7.75s-.81,6.14-2.42,8.04c-1.61,1.9-3.69,2.85-6.22,2.85-1.6,0-3-.38-4.2-1.14-1.2-.76-2.12-1.8-2.77-3.12l-.35,3.68Zm13.79-10.34c0-2.84-.61-4.98-1.84-6.43-1.23-1.45-2.86-2.17-4.9-2.17-1.91,0-3.52,.73-4.84,2.19-1.32,1.46-1.98,3.69-1.98,6.68s.62,5.06,1.86,6.58c1.24,1.52,2.88,2.29,4.92,2.29s3.68-.77,4.92-2.32c1.24-1.55,1.86-3.82,1.86-6.82Z"/><path class="cls-1" d="M206.76,128.33h2.09v13.63c0,1.73,.46,3.05,1.39,3.95,.93,.9,2.22,1.36,3.87,1.36,1.76,0,3.2-.63,4.32-1.88,1.12-1.25,1.68-2.82,1.68-4.71v-12.35h2.09v20.14h-1.7l-.27-3.21c-.7,1.24-1.64,2.18-2.83,2.83-1.19,.65-2.44,.97-3.76,.97-2.07,0-3.73-.61-5-1.82-1.27-1.21-1.9-2.97-1.9-5.27v-13.63Z"/><path class="cls-1" d="M235.73,130.15h-4.69v14.29c0,1.89,.88,2.83,2.63,2.83,.83,0,1.64-.1,2.44-.31v1.7c-.88,.26-1.73,.39-2.56,.39-1.47,0-2.61-.4-3.41-1.2-.8-.8-1.2-1.95-1.2-3.45v-14.25h-2.9v-1.82h2.9l.12-4.84h1.98v4.84h4.69v1.82Z"/><path class="cls-1" d="M238.51,138.4c0-3.41,.86-6.04,2.6-7.88,1.73-1.85,3.96-2.77,6.7-2.77s5,.92,6.7,2.77c1.7,1.85,2.56,4.47,2.56,7.88s-.85,6.04-2.56,7.88c-1.7,1.85-3.93,2.77-6.66,2.77s-4.98-.94-6.72-2.81c-1.74-1.87-2.61-4.49-2.61-7.84Zm4.14-6.62c-1.32,1.55-1.98,3.76-1.98,6.62s.66,5.07,1.99,6.62c1.33,1.55,3.04,2.32,5.13,2.32s3.86-.77,5.15-2.3c1.29-1.54,1.94-3.75,1.94-6.64s-.65-5.11-1.94-6.64c-1.29-1.54-3.01-2.3-5.15-2.3s-3.83,.77-5.15,2.32Z"/><path class="cls-1" d="M263.96,148.47h-2.09v-20.14h1.7l.31,3.87c1.06-2.97,2.94-4.45,5.65-4.45,.77,0,1.47,.1,2.09,.31v2.05c-.83-.23-1.56-.35-2.21-.35-1.52,0-2.81,.7-3.87,2.09-1.06,1.39-1.59,3.27-1.59,5.62v11Z"/></g></g></g></svg>