<?xml version="1.0" encoding="UTF-8"?><svg id="Capa_2" xmlns="http://www.w3.org/2000/svg" viewBox="0 0 317.39 105.22"><defs><style>.cls-1{fill:#fff;}.cls-2{fill:#afafaf;}</style></defs><g id="Capa_1-2"><path class="cls-1" d="m314.69,85.59c-1.48,0-2.7-1.22-2.7-2.7s1.22-2.7,2.7-2.7,2.7,1.22,2.7,2.7c-.05,1.43-1.27,2.7-2.7,2.7m0-4.87c-1.22,0-2.17.95-2.17,2.17s.95,2.17,2.17,2.17,2.17-.95,2.17-2.17c-.05-1.22-1.01-2.17-2.17-2.17m1.32,3.54h-.63l-.53-1.01h-.69v1.01h-.58v-2.96h1.43c.63,0,1.01.42,1.01.95,0,.42-.26.74-.63.9l.63,1.11Zm-1.06-1.53c.21,0,.42-.16.42-.42,0-.37-.16-.42-.42-.42h-.9v.9h.9v-.05Zm-280.94-2.8h6.88v18.78h11.96v6.03h-18.83v-24.81Zm25.97,12.43v-.11c0-7.09,5.77-12.91,13.38-12.91s13.28,5.71,13.28,12.8v.11c0,7.09-5.77,12.91-13.38,12.91s-13.28-5.66-13.28-12.8m19.68,0v-.11c0-3.6-2.54-6.67-6.35-6.67s-6.29,3.07-6.29,6.61v.11c0,3.6,2.54,6.67,6.29,6.67s6.35-3.02,6.35-6.61m15.45,1.48v-13.91h6.98v13.75c0,3.6,1.8,5.24,4.55,5.24s4.55-1.64,4.55-5.08v-13.97h6.98v13.75c0,7.99-4.55,11.48-11.64,11.48-7.04,0-11.43-3.49-11.43-11.27m33.54-13.91h9.52c8.83,0,14.02,5.08,14.02,12.22v.11c0,7.14-5.24,12.43-14.12,12.43h-9.42v-24.76h0Zm9.68,18.67c4.13,0,6.82-2.27,6.82-6.29v-.11c0-3.97-2.75-6.29-6.82-6.29h-2.8v12.59l2.8.11h0Zm23.86-18.67h19.84v6.03h-12.96v4.23h11.74v5.66h-11.74v8.83h-6.88v-24.76Zm29.36,0h6.82v18.78h12.01v6.03h-18.83v-24.81Zm36.76-.21h6.61l10.58,24.97h-7.35l-1.8-4.39h-9.52l-1.75,4.39h-7.19l10.42-24.97h0Zm6.08,15.23l-2.75-7.04-2.8,7.04h5.55Zm19.94-15.02h11.69c3.81,0,6.4.95,8.09,2.7,1.48,1.43,2.22,3.33,2.22,5.77v.11c0,3.81-2.01,6.29-5.08,7.62l5.92,8.68h-7.93l-4.97-7.51h-3.02v7.51h-6.88l-.05-24.86h0Zm11.43,11.85c2.33,0,3.65-1.16,3.65-2.91v-.11c0-1.96-1.43-2.91-3.7-2.91h-4.5v5.92h4.55Zm20.47-11.85h19.94v5.82h-13.12v3.76h11.9v5.45h-11.9v3.91h13.28v5.82h-20.1v-24.76ZM18.99,95.27c-.95,2.17-3.02,3.7-5.66,3.7-3.76,0-6.29-3.12-6.29-6.67v-.11c0-3.6,2.54-6.61,6.29-6.61,2.8,0,4.97,1.75,5.87,4.13h7.25c-1.16-5.92-6.35-10.32-13.07-10.32-7.62,0-13.38,5.77-13.38,12.91v.11c0,7.09,5.66,12.8,13.28,12.8,6.56,0,11.64-4.23,12.96-9.89l-7.25-.05h0Z"/><path class="cls-2" d="m298.03,40.41l-18.94-10.84-3.28-1.43-77.5.53v39.36h99.71v-27.61Z"/><path class="cls-1" d="m263.54,64.38c.95-3.17.58-6.08-.95-8.25-1.43-2.01-3.81-3.12-6.67-3.28l-54.38-.69c-.37,0-.69-.16-.85-.42s-.21-.63-.16-.95c.16-.53.69-.95,1.27-.95l54.86-.69c6.51-.32,13.54-5.55,16.03-12.01l3.12-8.15c.16-.37.16-.69.11-1.06-3.54-15.98-17.77-27.93-34.86-27.93-15.71,0-29.04,10.16-33.8,24.23-3.07-2.27-7.04-3.54-11.27-3.12-7.56.74-13.59,6.82-14.34,14.34-.16,1.96-.05,3.86.42,5.61-12.33.37-22.16,10.42-22.16,22.85,0,1.11.11,2.22.21,3.33.11.53.53.95,1.06.95h100.35c.58,0,1.11-.42,1.27-.95l.74-2.86h0Z"/><path class="cls-1" d="m280.84,29.52c-.48,0-1.01,0-1.48.05-.37,0-.69.26-.79.63l-2.12,7.35c-.95,3.17-.58,6.08.95,8.25,1.43,2.01,3.81,3.12,6.67,3.28l11.58.69c.37,0,.69.16.85.42s.21.69.16.95c-.16.53-.69.95-1.27.95l-12.06.69c-6.56.32-13.54,5.55-16.03,12.01l-.9,2.27c-.16.42.16.9.63.9h41.42c.48,0,.95-.32,1.06-.79.69-2.54,1.11-5.24,1.11-8.04-.05-16.29-13.38-29.62-29.78-29.62"/></g></svg>