<?xml version="1.0" encoding="UTF-8"?><svg id="Capa_2" xmlns="http://www.w3.org/2000/svg" viewBox="0 0 323.31 42.76"><defs><style>.cls-1{fill:#fff;}</style></defs><g id="Capa_1-2"><g><path class="cls-1" d="M239.5,42.76c-.34-.05-.68-.12-1.02-.16-3.66-.46-6.98-1.79-9.96-3.97-2.14-1.56-3.92-3.47-5.36-5.7-.7-1.09-1.3-2.22-1.79-3.42-.74-1.8-1.23-3.67-1.45-5.61-.16-1.41-.17-2.82-.08-4.23,.07-1.13,.28-2.25,.54-3.36,.38-1.59,.95-3.1,1.68-4.55,.87-1.74,1.97-3.34,3.3-4.77,3.38-3.64,7.51-5.9,12.42-6.7,1.58-.26,3.32-.34,4.73-.16-.15,.02-.3,.05-.44,.06-2.81,.18-5.48,.9-7.96,2.24-2.57,1.39-4.65,3.32-6.2,5.81-1.08,1.75-1.8,3.63-2.23,5.63-.35,1.62-.5,3.27-.41,4.93,.15,2.77,.89,5.38,2.33,7.76,2.34,3.85,5.71,6.39,10.04,7.65,.89,.26,1.78,.52,2.69,.67,2.68,.43,5.24,.07,7.59-1.36,.94-.57,1.77-1.29,2.45-2.15,.57-.71,.9-1.54,1.1-2.42,.43-1.92,.21-3.74-.92-5.39-.76-1.11-1.82-1.85-3.04-2.38-.91-.4-1.87-.62-2.84-.82-1.89-.4-3.74-.94-5.46-1.84-1.37-.72-2.59-1.63-3.48-2.93-.66-.95-1.05-2-1.24-3.14-.18-1.08-.16-2.16,0-3.23,.21-1.39,.78-2.71,1.68-3.79,1.68-2.02,3.87-3.17,6.37-3.75,2.48-.58,4.94-.52,7.37,.29,1.06,.35,2,.95,2.93,1.56,2.34,1.52,4.31,3.44,5.91,5.72,1.26,1.8,2.22,3.76,2.87,5.85,.49,1.61,.8,3.26,.89,4.95,.07,1.33,.05,2.64-.11,3.95-.18,1.6-.56,3.16-1.12,4.67-1.32,3.63-3.47,6.68-6.43,9.15-2.98,2.48-6.39,4.05-10.23,4.67-.49,.08-.99,.12-1.49,.19-.12,.02-.23,.05-.35,.08-1.09,0-2.19,0-3.28,0Z"/><path class="cls-1" d="M0,19.8c.07-.33,.16-.65,.2-.98,.29-2.68,1-5.24,2.28-7.62C5.62,5.38,10.42,1.71,16.94,.41c3.44-.69,6.86-.51,10.21,.6,2.15,.71,4.05,1.86,5.68,3.44,.11,.1,.21,.22,.34,.36-.81,1.23-1.61,2.45-2.43,3.71-.13-.1-.24-.18-.34-.26-2.49-2.09-5.37-3.3-8.61-3.57-4.82-.42-8.89,1.19-12.25,4.63-1.54,1.58-2.66,3.42-3.45,5.45-.82,2.13-1.21,4.4-1.15,6.68,.05,2,.42,3.95,1.16,5.81,1.46,3.67,3.86,6.53,7.36,8.4,2.63,1.4,5.45,1.91,8.42,1.6,3.31-.36,6.17-1.71,8.66-3.9,.04-.04,.1-.07,.19-.14,.81,1.27,1.62,2.52,2.45,3.83-.4,.33-.77,.66-1.17,.96-2.37,1.79-5.04,2.9-7.94,3.48-1.99,.4-4,.55-6.03,.35-2.68-.27-5.2-1.06-7.54-2.4-2.93-1.67-5.28-3.95-7.1-6.78-1.11-1.73-1.94-3.6-2.51-5.57-.34-1.17-.55-2.36-.7-3.56C.16,23.18,.07,22.86,0,22.54v-2.73Z"/><path class="cls-1" d="M126.2,6.2c0,.14-.02,.29-.03,.43-.12,3.38-.24,6.77-.37,10.15-.08,2-.17,4-.29,6-.12,2.11-.27,4.21-.4,6.32-.07,1.06-.13,2.12-.19,3.18-.14,2.38-.29,4.76-.43,7.13-.03,.51-.05,1.03-.07,1.54-.33,.1-4.14,.13-4.72,.04-.1-.43,2.59-39.28,2.68-39.98h6.35c.15,.41,.32,.85,.47,1.29,.33,.97,.66,1.95,.99,2.92,.56,1.63,1.13,3.26,1.69,4.89,.48,1.39,.94,2.78,1.42,4.17,.47,1.37,.97,2.74,1.43,4.12,.57,1.71,1.12,3.42,1.67,5.14,.37,1.14,.73,2.28,1.07,3.42,.57,1.94,1.1,3.89,1.63,5.83,.07,.26,.12,.53,.18,.8,.02,.08,.05,.15,.11,.31,.09-.12,.18-.18,.2-.26,.51-1.84,1-3.68,1.54-5.51,.48-1.63,1-3.24,1.54-4.85,.65-1.94,1.33-3.86,2.01-5.79,.65-1.86,1.32-3.71,1.99-5.56,.78-2.19,1.57-4.39,2.35-6.59,.48-1.34,.96-2.68,1.43-4.02,.16-.45,.39-.48,1.6-.13,1.45,.42,2.97,.29,4.4-.19,.2-.07,.31-.03,.53-.01,.02,.16,.04,.3,.05,.45,.15,2.53,.29,5.06,.44,7.59,.15,2.45,.3,4.91,.45,7.36,.15,2.53,.31,5.06,.46,7.59,.1,1.68,.19,3.36,.29,5.04,.13,2.09,.28,4.18,.41,6.27,.07,1.11,.13,2.21,.19,3.32,.04,.64,.08,1.27,.11,1.91,0,.15,0,.3,0,.47h-4.86c-.02-.11-.04-.2-.04-.29-.07-1.49-.13-2.97-.21-4.46-.1-1.82-.22-3.64-.33-5.45-.03-.48-.06-.97-.08-1.45-.11-2.05-.21-4.09-.32-6.14-.14-2.62-.31-5.24-.4-7.87-.1-2.88-.13-5.77-.19-8.65,0-.17-.01-.35-.02-.52-.04,0-.07-.02-.11-.03-.06,.11-.13,.21-.17,.33-.52,1.71-1,3.43-1.54,5.13-.64,2.04-1.31,4.06-2,6.08-.65,1.91-1.33,3.8-2,5.7-.78,2.21-1.56,4.43-2.34,6.64-.67,1.88-1.34,3.77-2,5.65-.55,1.57-1.1,3.14-1.65,4.72-.04,.13-.11,.25-.17,.38h-3.76c-.09-.24-.2-.47-.28-.72-.57-1.71-1.13-3.42-1.7-5.13-.62-1.88-1.25-3.76-1.87-5.65-.56-1.7-1.12-3.39-1.68-5.09-.63-1.91-1.26-3.82-1.87-5.74-.59-1.86-1.16-3.73-1.7-5.61-.55-1.94-1.04-3.89-1.56-5.84-.07-.27-.13-.55-.19-.83-.05,0-.09,.01-.14,.02Z"/><path class="cls-1" d="M78.34,1c.2,0,.35-.02,.49-.02,1.82,0,3.65,0,5.47,0,.46,0,.45,0,.59,.44,.28,.85,.57,1.69,.86,2.54,.66,1.92,1.31,3.84,1.97,5.76,.49,1.42,.99,2.83,1.48,4.25,.56,1.63,1.12,3.26,1.66,4.9,.59,1.78,1.19,3.56,1.76,5.35,.45,1.43,.9,2.86,1.3,4.3,.43,1.52,.8,3.04,1.2,4.57,.05,.21,.1,.41,.16,.61,.02,.06,.11,.11,.21,.21,.07-.25,.11-.43,.16-.62,.39-1.45,.78-2.9,1.19-4.34,.3-1.05,.63-2.09,.97-3.12,.59-1.81,1.19-3.63,1.8-5.43,.4-1.19,.84-2.37,1.26-3.55,.65-1.82,1.31-3.65,1.97-5.47,.6-1.65,1.2-3.3,1.79-4.95,.59-1.65,1.17-3.31,1.76-4.96,.06-.15,.12-.3,.18-.45h6.38c.02,.2,.04,.38,.05,.56,.13,2.23,.25,4.45,.38,6.68,.11,1.73,.24,3.45,.35,5.18,.08,1.2,.13,2.39,.2,3.59,.08,1.27,.17,2.54,.25,3.82,.05,.79,.07,1.58,.11,2.37,.15,2.59,.32,5.18,.47,7.77,.1,1.67,.19,3.33,.29,5,.09,1.55,.19,3.09,.29,4.63,0,.12,0,.24,0,.42-1.6,.04-3.2,0-4.83,.02-.03-.31-.08-.58-.09-.85-.13-2.39-.25-4.79-.38-7.18-.1-1.88-.19-3.76-.3-5.64-.13-2.36-.28-4.73-.41-7.09-.08-1.39-.15-2.79-.18-4.18-.08-3.17-.15-6.34-.22-9.51,0-.14-.03-.28-.04-.42-.03,0-.06,0-.09,0-.04,.07-.1,.14-.12,.21-.54,1.78-1.07,3.57-1.63,5.34-.64,2.05-1.3,4.1-1.98,6.14-.48,1.44-1.02,2.85-1.52,4.28-.67,1.91-1.34,3.83-2.01,5.74-.31,.89-.63,1.77-.94,2.65-.65,1.83-1.3,3.65-1.95,5.48-.53,1.5-1.05,3-1.58,4.5-.06,.16-.11,.32-.33,.32-1.18,0-2.37,0-3.58,0-.22-.66-.44-1.3-.66-1.95-.28-.85-.57-1.69-.84-2.54-.56-1.71-1.11-3.43-1.68-5.14-.34-1.02-.69-2.04-1.03-3.06-.48-1.44-.95-2.88-1.42-4.31-.48-1.45-.97-2.9-1.43-4.36-.58-1.83-1.13-3.68-1.68-5.52-.34-1.13-.68-2.26-.98-3.4-.36-1.35-.68-2.7-1.02-4.05-.02-.1-.07-.19-.12-.31-.19,.15-.13,.32-.14,.47-.04,1.4-.04,2.79-.1,4.19-.1,2.46-.23,4.91-.34,7.37-.04,.89-.06,1.79-.11,2.68-.17,2.94-.36,5.88-.53,8.82-.08,1.29-.13,2.58-.21,3.86-.07,1.15-.16,2.3-.23,3.45-.05,.8-.07,1.61-.12,2.41-.03,.51-.08,1.03-.12,1.53-.34,.09-3.99,.12-4.68,.04-.01,0-.03-.02-.04-.03,0-.01-.02-.03-.02-.04,0-.2,0-.39,0-.59,.89-13.09,1.77-26.19,2.67-39.34Z"/><path class="cls-1" d="M52.58,41.91c-5.34-.07-9.96-1.8-13.87-5.34-2.14-1.94-3.76-4.27-4.92-6.91-.73-1.67-1.47-4.54-1.65-6.36-.15-1.55-.16-3.11,.01-4.67,.2-1.85,.61-3.65,1.31-5.37,2.37-5.79,6.44-9.87,12.33-12.07C48.54,.18,51.39-.16,54.31,.11c4.19,.4,7.87,1.98,11.09,4.66,1.71,1.43,3.19,3.13,4.36,5.02,1.05,1.68,1.87,3.47,2.39,5.36,.66,2.35,.94,4.76,.77,7.2-.1,1.41-.32,2.8-.67,4.17-.88,3.41-2.51,6.43-4.93,8.99-3.23,3.42-7.19,5.47-11.85,6.16-.42,.06-.84,.12-1.27,.15-.58,.04-1.15,.06-1.64,.08Zm15.56-21c-.07-.72-.14-1.45-.2-2.17-.11-1.43-.51-2.8-1.02-4.13-.71-1.85-1.75-3.52-3.11-5.02-1.28-1.41-2.84-2.57-4.57-3.39-3.28-1.56-6.72-1.9-10.25-1.12-3.73,.82-6.71,2.82-8.96,5.89-1.06,1.44-1.83,3.02-2.36,4.73-.42,1.32-.66,2.68-.77,4.05-.09,1.06-.05,2.12,.08,3.18,.19,1.58,.57,3.1,1.18,4.56,.89,2.12,2.17,3.99,3.87,5.55,3.42,3.13,7.44,4.55,12.08,4.09,3.46-.35,6.44-1.81,8.95-4.19,2.19-2.08,3.66-4.6,4.45-7.53,.4-1.48,.58-2.97,.63-4.5Z"/><path class="cls-1" d="M289.48,.9h20.85c.1,.33,.12,4,.01,4.54h-16.03v11.26c1.31,.02,2.61,0,3.91,0,1.29,0,2.58,0,3.87,0h7.81v4.55c-1.03,.02-2.06,0-3.08,0-1.05,0-2.1,0-3.14,0h-9.36v15.21c.9,0,1.79,0,2.68,0,.88,0,1.76,0,2.64,0h8.02c.89,0,1.79,0,2.71,0,0,1.52,0,3,0,4.48-.32,.1-20.11,.14-20.89,.05-.1-.34-.11-39.65,0-40.11Z"/><path class="cls-1" d="M185.4,9.67h-4.4c-.08-.37-.13-.71-.22-1.04-.5-1.83-1.71-3.04-3.52-3.63-2.37-.77-5-.13-6.82,1.58-1.5,1.42-1.99,3.13-1.57,5,.21,.92,.75,1.68,1.44,2.33,1.03,.98,2.27,1.61,3.57,2.15,1.57,.65,3.16,1.26,4.71,1.95,1.73,.77,3.34,1.74,4.72,3.05,1.11,1.06,1.98,2.29,2.55,3.72,.35,.88,.55,1.79,.69,2.72,.25,1.66,.13,3.29-.23,4.92-1.11,5.04-5.22,8.68-10.29,9.35-2.37,.31-4.66,.06-6.84-.93-1.89-.86-3.51-2.24-4.68-3.95-.92-1.35-1.55-2.82-1.95-4.37-.23-.89-.42-1.8-.41-2.8,1.6-.08,3.2-.06,4.81-.1,.04,.37,.09,.68,.12,1,.4,4.05,4.01,6.96,8.21,6.58,1.89-.17,3.43-1.05,4.65-2.49,.8-.94,1.34-2.03,1.62-3.22,.44-1.86,.4-3.72-.61-5.46-.43-.74-1.02-1.38-1.69-1.92-1.25-1.01-2.69-1.68-4.14-2.33-1.61-.71-3.22-1.42-4.8-2.19-1.46-.72-2.8-1.63-3.95-2.81-.99-1.02-1.72-2.2-2.11-3.56-.4-1.4-.49-2.83-.28-4.28,.19-1.28,.58-2.47,1.24-3.58,.77-1.32,1.81-2.39,3.08-3.23,2.37-1.57,5-2.25,7.83-2.06,2.7,.18,5,1.25,6.78,3.3,.72,.84,1.28,1.8,1.69,2.83,.44,1.12,.7,2.24,.81,3.48Z"/><path class="cls-1" d="M219.28,33.2c.82,1.28,1.62,2.53,2.45,3.82-.24,.21-.46,.41-.69,.6-2.59,2.11-5.58,3.34-8.85,3.94-1.71,.31-3.43,.43-5.17,.3-2.69-.21-5.22-.94-7.59-2.22-2.95-1.6-5.34-3.81-7.21-6.6-.96-1.43-1.74-2.95-2.32-4.57-.67-1.88-1.08-3.81-1.21-5.81-.09-1.42-.05-2.82,.11-4.23,.21-1.87,.69-3.68,1.41-5.44,1.18-2.9,2.9-5.41,5.2-7.53,2.85-2.62,6.18-4.32,9.98-5.06,3.1-.6,6.19-.54,9.26,.27,2.64,.69,4.95,1.98,6.89,3.91,.05,.05,.1,.12,.18,.22-.8,1.22-1.6,2.44-2.43,3.69-.11-.08-.21-.14-.3-.21-2.53-2.13-5.44-3.34-8.73-3.62-4.66-.4-8.73,1.16-12.17,4.61-.85,.85-1.59,1.82-2.19,2.87-1.77,3.1-2.56,6.35-2.39,9.78,.13,2.57,.8,4.99,2.03,7.25,1.58,2.91,3.8,5.18,6.79,6.63,4.6,2.24,9.29,2.02,13.99-.43,.95-.49,1.8-1.15,2.59-1.88,.1-.09,.2-.17,.37-.3Z"/><path class="cls-1" d="M269.43,24.2v16.81c-1.62,0-3.19,0-4.76,0-.09-.32-.12-39.53-.02-40.11,.12,0,.26-.03,.39-.03,2.02,0,4.04-.02,6.06,.01,2.48,.04,4.94,.26,7.34,.97,1.59,.47,3.07,1.15,4.33,2.24,1.29,1.11,2.12,2.5,2.6,4.13,.5,1.65,.61,3.34,.54,5.04-.07,1.84-.47,3.6-1.38,5.23-.97,1.73-2.36,3.02-4.11,3.95-1.57,.83-3.26,1.3-5.02,1.56-1.77,.26-3.55,.19-5.32,.21-.19,0-.39,0-.66,0Zm.03-4.5c.1,.02,.16,.04,.21,.04,1.62,0,3.25,.04,4.86-.21,1.41-.21,2.78-.57,4.01-1.34,1.32-.83,2.23-2.18,2.61-3.69,.33-1.32,.35-2.66,.02-4.02-.31-1.28-.94-2.35-1.98-3.17-1.17-.92-2.53-1.36-3.96-1.63-1.85-.35-3.71-.37-5.58-.35-.06,0-.11,.03-.19,.04v14.32Z"/><path class="cls-1" d="M323.3,5.08c.13,2.63-2.03,4.87-4.79,4.86-2.82-.01-4.9-2.23-4.87-4.93,.02-2.68,2.21-4.81,4.9-4.82,2.57,0,4.92,2.15,4.77,4.89Zm-1.16-.28c.01-.3-.1-.81-.29-1.32-.91-2.42-3.88-3.05-5.7-1.46-1.53,1.34-1.79,3.8-.52,5.49,1.26,1.68,3.71,1.94,5.24,.57,.9-.81,1.28-1.85,1.28-3.28Z"/><path class="cls-1" d="M317.76,5.65v1.89h-1.04V2.74c.97-.17,1.92-.27,2.86-.04,.67,.17,.99,.63,.99,1.29,0,.41-.2,.69-.51,.91-.12,.09-.26,.15-.44,.26,.69,.39,.82,1.05,.94,1.72,.04,.22,.11,.43,.19,.69-.33,0-.6-.01-.87,0-.23,.01-.33-.11-.38-.31-.09-.32-.19-.64-.26-.96-.1-.43-.38-.64-.81-.65-.21,0-.42,0-.67,0Zm.05-.76c.39-.04,.73-.05,1.05-.12,.35-.07,.56-.34,.57-.63,0-.31-.21-.6-.56-.69-.34-.09-.68-.09-1.05,.01v1.44Z"/></g></g></svg>