<?xml version="1.0" encoding="UTF-8"?><svg id="Capa_2" xmlns="http://www.w3.org/2000/svg" viewBox="0 0 369.49 166.95"><defs><style>.cls-1{fill:#fff;}</style></defs><g id="Capa_1-2"><g><path class="cls-1" d="M251.58,133.71v-6.8l5.55-9.43h-3.51l-3.48,6.43-3.56-6.43h-3.57l5.53,9.4v6.83h3.05Zm-12.92-5.97v2.06c-.46,.38-1.01,.71-1.65,.98-.65,.27-1.29,.41-1.93,.41-1.28,0-2.33-.48-3.13-1.44-.8-.96-1.19-2.41-1.19-4.34,0-1.78,.39-3.13,1.18-4.03,.79-.91,1.84-1.36,3.17-1.36,.88,0,1.62,.23,2.21,.69,.6,.46,.99,1.09,1.21,1.88l3.02-.6c-.29-1.5-.97-2.66-2.03-3.51-1.06-.85-2.53-1.27-4.41-1.27-1.44,0-2.64,.27-3.61,.82-1.27,.7-2.23,1.71-2.89,3.02-.66,1.32-1,2.82-1,4.51,0,1.56,.3,2.99,.89,4.32,.6,1.32,1.47,2.34,2.65,3.05,1.18,.71,2.56,1.07,4.14,1.07,1.24,0,2.46-.25,3.68-.76,1.21-.5,2.14-1.09,2.78-1.76v-6.46h-6.58v2.73h3.5Zm-23.29-6.34c.77-.92,1.79-1.38,3.05-1.38s2.27,.45,3.03,1.37c.76,.91,1.14,2.3,1.14,4.17s-.39,3.29-1.17,4.23c-.78,.94-1.78,1.41-2.99,1.41s-2.22-.47-3.02-1.42c-.79-.95-1.18-2.34-1.18-4.19s.38-3.26,1.15-4.18Zm-2.31,10.38c1.33,1.47,3.11,2.21,5.36,2.21s4-.74,5.33-2.22c1.33-1.48,1.99-3.53,1.99-6.14s-.67-4.71-2.01-6.2c-1.34-1.48-3.12-2.22-5.35-2.22-1.23,0-2.31,.22-3.25,.65-.71,.32-1.37,.81-1.96,1.46-.6,.66-1.06,1.4-1.39,2.22-.46,1.12-.7,2.52-.7,4.17,0,2.58,.66,4.6,1.99,6.07Zm-3.56,1.93v-2.74h-7.59v-13.35h-3.05v16.09h10.65Zm-23.48-12.31c.77-.92,1.78-1.38,3.05-1.38s2.27,.45,3.03,1.37c.76,.91,1.14,2.3,1.14,4.17s-.39,3.29-1.18,4.23c-.78,.94-1.78,1.41-2.99,1.41s-2.23-.47-3.02-1.42c-.79-.95-1.19-2.34-1.19-4.19s.38-3.26,1.15-4.18Zm-2.31,10.38c1.32,1.47,3.11,2.21,5.36,2.21s4-.74,5.33-2.22c1.32-1.48,1.99-3.53,1.99-6.14s-.67-4.71-2.01-6.2c-1.34-1.48-3.13-2.22-5.35-2.22-1.23,0-2.32,.22-3.26,.65-.71,.32-1.36,.81-1.96,1.46-.59,.66-1.06,1.4-1.39,2.22-.46,1.12-.69,2.52-.69,4.17,0,2.58,.66,4.6,1.99,6.07Zm-13.76,1.93v-10.57l6.09,10.57h3.07v-16.23h-2.84v10.84l-6.19-10.84h-2.97v16.23h2.84Zm-15.07,0v-7.09h5.99v7.09h3.06v-16.23h-3.06v6.39h-5.99v-6.39h-3.05v16.23h3.05Zm-9.9-3.35c-.58,.56-1.28,.83-2.09,.83-1.1,0-2-.43-2.68-1.3-.69-.87-1.03-2.33-1.03-4.38,0-1.94,.35-3.34,1.05-4.2,.7-.86,1.6-1.29,2.73-1.29,.81,0,1.5,.24,2.07,.73,.57,.49,.94,1.15,1.11,1.99l3.03-.77c-.35-1.3-.86-2.29-1.55-3-1.16-1.18-2.66-1.76-4.5-1.76-2.12,0-3.83,.75-5.14,2.24-1.3,1.49-1.95,3.59-1.95,6.29s.65,4.57,1.94,6.04c1.3,1.47,2.95,2.21,4.96,2.21,1.62,0,2.96-.43,4.02-1.29,1.06-.86,1.81-2.18,2.26-3.95l-2.97-1.01c-.25,1.19-.67,2.06-1.25,2.61Zm-11,3.35v-2.74h-8.44v-4.42h7.59v-2.72h-7.59v-3.6h8.15v-2.75h-11.2v16.23h11.49Zm-17.95,0v-13.48h4.48v-2.75h-12.01v2.75h4.48v13.48h3.05Z"/><path class="cls-1" d="M109.46,61.38s-20.69-6.05-38.35,2.45c0,0-6.63,3.96-8.72,10.23l18.5,2.16s3.34-5.55,9.11-5.44c0,0,7.24-.58,7.5,3.86,0,0,.25,1.69-1.08,3.64,0,0-14.13,1.98-22.06,2.49,0,0-8,.25-14.85,5.41,0,0-5.16,3.15-5.87,11.28,0,0-.57,9.62,8.9,12.41,0,0,5.65,2.02,13.04,.29,0,0,3.4,.05,13.06-5.38l-.05,5.33h20.09s-.65-8.36,1.37-13.12l6.85-21.19s3.32-10.88-7.42-14.42Zm-29.84,39.21c-6.05,.65-6.2-4.68-6.2-4.68,.29-4.11,4.54-4.98,4.54-4.98,.65-.29,14.99-3.03,14.99-3.03-3.82,13.12-13.33,12.69-13.33,12.69Z"/><path class="cls-1" d="M329.15,61.24s-20.69-6.06-38.35,2.45c0,0-6.63,3.97-8.72,10.24l18.5,2.16s3.34-5.55,9.11-5.44c0,0,7.24-.57,7.49,3.86,0,0,.25,1.69-1.08,3.64,0,0-14.13,1.98-22.05,2.49,0,0-8,.25-14.85,5.41,0,0-5.17,3.15-5.87,11.28,0,0-.57,9.62,8.9,12.41,0,0,5.65,2.02,13.03,.29,0,0,3.4,.05,13.06-5.38l-.04,5.33h20.09s-.65-8.36,1.37-13.12l6.85-21.2s3.32-10.88-7.42-14.41Zm-29.84,39.21c-6.05,.65-6.19-4.69-6.19-4.69,.29-4.11,4.54-4.97,4.54-4.97,.64-.29,14.99-3.03,14.99-3.03-3.82,13.12-13.34,12.69-13.34,12.69Z"/><path class="cls-1" d="M149.26,110.85h20.18l9.59-27.53s2.59-6.85,7.64-9.37c0,0,6.56-2.31,7.07,3.24,0,0,.72,3.39-2.74,12.47l-6.99,21.19,19.61-.36,12.33-35.39s3.96-13.98-11.32-14.63c0,0-13.04-1.37-20.54,7.06l8.87-25.01h-20.47l-23.21,68.33Z"/><path class="cls-1" d="M225.69,60.82h20.11l-9.87,28.62s-2.45,6.41,3.03,7.86c0,0,4.46,.86,9.44-6.27,0,0,2.45-2.78,5.41-11.95l6.99-18.25h20.11l-17.3,49.02h-19.18l2.38-6.71s-8.14,7.79-19.17,7.72c0,0-5.7,.79-10.17-2.31,0,0-6.41-3.75-3.1-13.41l11.32-34.31Z"/><path class="cls-1" d="M104.33,111.89l-3.47,6.09s-9.25,5.05-21.3,6.28c0,0-13.76,1.92-22.59-1.34,0,0-17.18-4.81-23.15-22.66,0,0-7.62-21.11,13.01-43.41,0,0,16.6-16.57,32.22-20.75,0,0,14.95-5.92,32.44-1.55,0,0,17.79,3.98,27.64,24.41l.15,.17,8.54-24.14,20.16,.15s-13.39,40.52-15.61,45.64c0,0-4.35,15.31-17.74,21.33,0,0-8.64,5.02-23.68,5.39,0,0,8.49-3.2,16.69-15.58,0,0,8.44-9.22,7.38-26.06,0,0,.15-13.69-17.98-22.42,0,0-23.8-11.5-51.93,9.17,0,0-18.71,14.22-20.65,30.65,0,0-4.22,17.58,10.23,28.18,.09,.06,.17,.12,.26,.18,14.75,10.58,32.71,7.33,49.4,.27Z"/></g></g></svg>