<?xml version="1.0" encoding="UTF-8"?><svg id="Capa_2" xmlns="http://www.w3.org/2000/svg" viewBox="0 0 369.49 166.95"><defs><style>.cls-1{fill:#fff;}</style></defs><g id="Capa_1-2"><g><polygon class="cls-1" points="96.27 105.39 96.27 104.06 95.7 103.68 72.92 103.68 72.54 104.06 72.54 105.39 72.92 105.77 82.6 105.77 82.98 106.15 82.98 133.87 83.36 134.25 85.07 134.25 85.45 133.87 85.45 106.34 85.83 105.96 95.7 105.96 96.27 105.39"/><path class="cls-1" d="M101.4,112.04c-6.08,0-9.69,4.36-9.69,10.63v.96c0,6.08,3.04,11.39,10.07,11.39,6.08,0,8.35-3.99,8.73-6.64l-.38-.37h-1.71l-.37,.37c-.95,2.66-2.67,4.37-6.08,4.37-5.7,0-7.41-5.32-7.41-7.97l.39-.38h15.75l.38-.38v-1.33c0-6.26-3.42-10.63-9.68-10.63Zm6.64,10.06h-13.29l-.38-.38c0-1.52,.43-3.37,1.52-4.84,1.09-1.47,2.85-2.56,5.51-2.56s4.41,1.09,5.5,2.56c1.09,1.47,1.52,3.32,1.52,4.84l-.37,.38Z"/><path class="cls-1" d="M122.86,114.12c4.36,0,6.07,2.66,6.64,5.32l.38,.38h1.9l.38-.38c-.38-4.37-3.99-7.41-9.3-7.41-5.7,0-10.06,3.61-10.06,11.39s4.36,11.39,10.06,11.39c5.32,0,8.73-3.04,9.3-7.41l-.38-.38h-1.71l-.38,.38c-.38,2.65-2.28,5.31-6.64,5.31s-7.59-3.04-7.59-9.3,3.04-9.31,7.41-9.31Z"/><path class="cls-1" d="M145.44,112.03c-3.04,0-5.69,1.33-7.02,3.61h-.38v-11.4l-.57-.57h-1.71l-.38,.38v30l.38,.38h1.71l.38-.38v-11.96c0-4.94,2.28-7.97,7.03-7.97,3.61,0,5.69,2.28,5.69,6.64v13.29l.38,.38h1.71l.76-.38v-13.29c0-5.69-3.04-8.73-7.97-8.73Z"/><path class="cls-1" d="M167.85,112.03c-3.04,0-5.7,1.33-7.02,3.61h-.38l-.38-2.66-.38-.38h-1.33l-.38,.38v21.07l.38,.38h1.71l.38-.38v-11.97c0-4.94,2.28-7.97,7.02-7.97,3.61,0,5.7,2.28,5.7,6.64v13.29l.38,.38h1.9l.38-.38v-13.29c0-5.69-3.04-8.73-7.97-8.73Z"/><path class="cls-1" d="M188.54,112.23c-5.69,0-10.06,3.99-10.06,11.39s4.37,11.39,10.06,11.39,10.07-3.98,10.07-11.39-4.37-11.39-10.07-11.39Zm5.35,18.18c-1.31,1.61-3.16,2.51-5.35,2.51-2.07,.04-4.05-.89-5.34-2.51-1.3-1.61-2.06-3.94-2.06-6.79s.75-5.27,2.06-6.86c1.31-1.59,3.16-2.45,5.34-2.45s4.04,.91,5.34,2.51c1.31,1.62,2.06,3.94,2.06,6.79s-.75,5.17-2.06,6.79Z"/><polygon class="cls-1" points="202.22 103.68 201.83 104.06 201.83 134.06 202.22 134.44 203.92 134.44 204.49 134.06 204.49 104.06 203.92 103.68 202.22 103.68"/><path class="cls-1" d="M217.6,112.23c-5.7,0-10.06,3.99-10.06,11.39s4.37,11.39,10.06,11.39,10.06-3.98,10.06-11.39-4.36-11.39-10.06-11.39Zm5.33,18.18c-1.29,1.62-3.26,2.55-5.33,2.51-2.07,.04-4.05-.89-5.34-2.51-1.31-1.61-2.08-3.94-2.08-6.79s.76-5.27,2.07-6.86c1.3-1.59,3.16-2.45,5.34-2.45h0c2.18,0,4.02,.91,5.33,2.51,1.3,1.62,2.07,3.94,2.07,6.79s-.77,5.17-2.07,6.79Z"/><polygon class="cls-1" points="217.59 112.23 217.6 112.23 217.6 112.23 217.59 112.23"/><path class="cls-1" d="M247.4,112.61l-.38,.38-.38,2.66h-.38c-.95-1.71-3.04-3.61-7.03-3.61h0c-6.08,0-9.31,4.93-9.31,11.39s3.04,11.39,9.31,11.39c3.99,0,6.08-1.71,7.03-3.61v.19c0,5.7-1.33,10.06-6.64,10.06-3.99,0-5.32-1.7-5.7-3.98l-.38-.39h-1.71l-.38,.38c.38,3.61,3.05,6.07,8.36,6.07,5.7,0,9.3-3.61,9.3-12.34v-18.23l-.38-.38h-1.33Zm-3.01,17.81c-1.21,1.55-2.97,2.3-5.15,2.3s-3.94-.76-5.15-2.3c-1.21-1.54-1.87-3.87-1.87-7s.65-5.36,1.87-6.93c1.21-1.56,2.97-2.36,5.15-2.36s3.94,.75,5.15,2.3c1.21,1.54,1.87,3.87,1.87,7s-.66,5.46-1.87,7Z"/><polygon class="cls-1" points="253.86 105.58 253.29 105.96 253.29 108.62 253.67 109 255.38 109 255.94 108.62 255.94 105.96 255.56 105.58 253.86 105.58"/><polygon class="cls-1" points="253.86 112.61 253.29 112.98 253.29 134.06 253.67 134.44 255.38 134.44 255.94 134.06 255.94 112.98 255.56 112.61 253.86 112.61"/><path class="cls-1" d="M268.66,112.04c-6.08,0-9.68,4.36-9.68,10.63v.96c0,6.07,3.04,11.39,10.06,11.39,6.08,0,8.36-3.99,8.74-6.65l-.38-.37h-1.71l-.38,.37c-.95,2.66-2.65,4.37-6.07,4.37-5.7,0-7.41-5.32-7.41-7.97l.39-.38h15.75l.38-.38v-1.33c0-6.08-3.61-10.63-9.69-10.63Zm6.64,10.06h-13.29l-.38-.38c0-1.52,.43-3.37,1.52-4.84,1.09-1.47,2.84-2.56,5.5-2.56s4.42,1.09,5.51,2.56c1.09,1.47,1.52,3.32,1.52,4.85l-.38,.38Z"/><path class="cls-1" d="M290.31,122.1c-4.37-.95-7.02-1.33-7.02-4.37,0-2.28,1.71-3.61,4.94-3.61,3.98,0,5.31,1.71,5.31,3.99l.38,.38h1.71l.38-.38c0-4.37-3.61-6.08-7.97-6.08-4.94,0-7.41,2.66-7.41,5.7,0,3.61,2.66,5.32,7.03,6.08,4.37,.95,6.64,1.33,6.64,4.94,0,2.28-1.33,3.98-5.7,3.98-3.99,0-5.69-2.28-5.69-4.94l-.38-.38h-1.71l-.38,.38c0,3.99,3.04,7.02,8.35,7.02,5.51,.19,8.16-2.47,8.16-6.08,0-3.99-2.28-5.69-6.64-6.64Z"/><polygon class="cls-1" points="296.76 80.13 296.76 80.12 269.84 80.12 269.84 27.24 254.46 27.24 254.46 93.58 296.76 93.58 296.76 80.13"/><path class="cls-1" d="M248.67,93.58v-13.46h-27.86V27.24h-15.4v24.99l-35.57,28.87-7.69-6.74,17.31-13.46,18.27-14.42-10.58-8.64-35.57,27.86-7.69-6.73,35.56-26.93-10.58-8.65h-.02l-37.48,28.86c-3.85-14.42-16.35-25.01-31.73-25.01h-26.93V93.58h26.93c15.37,0,28.84-10.58,31.73-25l37.48,28.85,37.5-28.85v25h42.3Zm-133.08-25.08c-.89,2.39-2.18,4.58-3.82,6.45-1.62,1.86-3.55,3.39-5.77,4.46-2.2,1.07-4.68,1.66-7.32,1.66h-11.53V40.71h11.53c2.4,0,4.76,.54,6.92,1.53,2.16,.99,4.15,2.45,5.84,4.24,1.68,1.81,3.06,3.96,4.01,6.39,.96,2.43,1.49,5.15,1.49,8.03,0,2.64-.47,5.22-1.35,7.61Z"/></g></g></svg>