<?xml version="1.0" encoding="UTF-8"?><svg id="Capa_2" xmlns="http://www.w3.org/2000/svg" viewBox="0 0 369.49 166.95"><defs><style>.cls-1{fill:#fff;}</style></defs><g id="Capa_1-2"><g><path class="cls-1" d="M134.87,70.02l2.29,15.52h-12.05l9.76-15.52Zm-2.13-8.05l-27.2,40.32h9.01l6.03-9.6h17.6l1.33,9.6h9.49l-7.2-40.32h-9.07Z"/><path class="cls-1" d="M239.28,69.17c5.07,0,7.31,.91,6.29,5.07-1.01,4.11-3.73,5.12-8.85,5.12h-10.45l2.51-10.13h10.51v-.05Zm-17.12-7.2l-10.08,40.32h8.53l3.95-15.84h10.03l4.96,15.84h9.6l-5.87-16.85c5.55-1.12,9.44-5.12,10.99-11.36,2.13-8.48-1.55-12.11-11.15-12.11h-20.96Z"/><path class="cls-1" d="M36.53,78.34h23.57l-1.76,7.04h-23.62c-1.76,7.25,.48,9.87,7.2,9.87h13.97l-1.76,7.04h-14.4c-4.91,0-8.59-.37-11.73-3.52-3.36-3.31-4.05-8.59-2.24-15.89,3.57-14.24,11.25-20.9,24.26-20.9h14.13l-1.76,7.04h-13.97c-6.13,0-9.97,2.99-11.89,9.33"/><path class="cls-1" d="M180.89,78.34h20.1l-5.97,23.89h-18.34c-4.91,0-8.75-.27-12-3.52-3.36-3.31-4.05-8.59-2.24-15.89,3.57-14.24,11.31-20.9,24.26-20.9h18.34l-1.76,6.99h-18.34c-6.83,0-10.67,4.32-12.96,13.55-2.13,8.59-.43,12.53,6.45,12.53h9.6l2.35-9.49h-11.41l1.92-7.15Z"/><polygon class="cls-1" points="274.27 61.97 283.17 61.97 273.09 102.28 264.19 102.28 274.27 61.97"/><path class="cls-1" d="M299.97,61.97l-10.03,40.32h18.77c4.91,0,8.8-.37,13.49-3.52,5.01-3.31,8.37-8.59,10.19-15.89,3.57-14.24-.85-20.9-13.87-20.9h-18.56Zm16.64,7.04c7.57,0,9.12,3.25,6.67,13.12-2.45,9.92-5.65,13.12-13.23,13.12h-9.87l6.56-26.29h9.87v.05Z"/><path class="cls-1" d="M104.36,107.93l-11.63-25.65,15.3-20.26h-10.72l-8.64,11.36-8.8-19.46s-1.12-2.35-4.85-2.4h-.37c-.48,0-.96,.05-1.49,.11-5.6,.85-43.09,4.32-43.09,4.32l-.21,.32h41.12l11.2,25.54-15.62,20.48h10.99l8.59-11.41,9.49,21.7s1.49,3.2,6.51,2.83c8.27-.64,227.17-6.93,227.17-6.93l.48-.59H104.36v.05Z"/><path class="cls-1" d="M340.55,68.79c-.59,0-1.12-.11-1.65-.32s-.96-.53-1.33-.91-.69-.8-.91-1.33c-.21-.48-.32-1.07-.32-1.65s.11-1.12,.32-1.6c.21-.53,.53-.96,.91-1.33s.8-.69,1.33-.91c.48-.21,1.07-.32,1.65-.32s1.12,.11,1.6,.32c.53,.21,.96,.53,1.33,.91s.69,.8,.91,1.33,.32,1.07,.32,1.6c0,.59-.11,1.12-.32,1.65-.21,.53-.53,.96-.91,1.33s-.8,.69-1.33,.91c-.48,.21-1.01,.32-1.6,.32m0-.59c.53,0,.96-.11,1.39-.27,.43-.21,.8-.43,1.12-.75s.53-.69,.75-1.17c.16-.43,.27-.91,.27-1.44s-.11-.96-.27-1.44c-.16-.43-.43-.8-.75-1.17-.32-.32-.69-.59-1.12-.75-.43-.21-.91-.27-1.39-.27-.53,0-.96,.11-1.39,.27-.43,.21-.8,.43-1.12,.75s-.53,.69-.75,1.17c-.16,.43-.27,.91-.27,1.44s.11,1.01,.27,1.44c.16,.43,.43,.8,.75,1.17,.32,.32,.69,.59,1.12,.75,.43,.21,.91,.27,1.39,.27Zm2.08-1.28h-.69l-1.33-2.13h-1.07v2.13h-.53v-4.64h2.03c.64,0,1.07,.11,1.28,.32,.27,.21,.37,.53,.37,.91,0,.21-.05,.43-.11,.59-.05,.16-.16,.27-.32,.37-.11,.11-.27,.16-.48,.21-.16,.05-.37,.05-.59,.11l1.44,2.13Zm-2.19-2.61h.53c.21,0,.37,0,.53-.05s.32-.11,.43-.27c.11-.11,.16-.32,.16-.53,0-.16-.05-.32-.11-.43-.05-.11-.16-.21-.27-.27s-.21-.11-.37-.11-.27-.05-.43-.05h-1.33v1.65h.85v.05Z"/></g></g></svg>