<?xml version="1.0" encoding="UTF-8"?><svg id="Capa_1" xmlns="http://www.w3.org/2000/svg" viewBox="0 0 500 500"><defs><style>.cls-1{fill:#fff;}</style></defs><path class="cls-1" d="m331.67,238.38c-.49-13.65,11.46-26.38,26.94-26.22,13.35.17,26.2,10.83,25.79,26.88-.33,15.13-12.86,26.22-27.27,25.89-14.17-.33-26.2-12.07-25.47-26.55h0Zm44.13.25c.16-10.26-6.96-18.36-17.69-18.36s-17.93,7.94-18.01,18.28c-.08,11.33,8.43,18.36,17.85,18.36s17.93-7.28,17.85-18.28Z"/><path class="cls-1" d="m382.58,256.87l-6.41,6.41,6.41,6.41,6.41-6.41-6.41-6.41Z"/><path class="cls-1" d="m392.47,266.77l-6.41,6.41,6.41,6.41,6.41-6.41-6.41-6.41Z"/><path class="cls-1" d="m401.54,275.84l-6.41,6.41,6.41,6.41,6.41-6.41-6.41-6.41Z"/><path class="cls-1" d="m53.75,215.73c-.08-2.32,1.74-4.31,4.15-4.39h30.03c1.99-.08,3.65,1.41,3.73,3.4v.33c.17,1.99-1.41,3.73-3.4,3.89h-25.72v16.98h21.57c1.99-.08,3.65,1.49,3.65,3.4v.33c.08,1.99-1.41,3.64-3.32,3.73h-21.9v17.15c.08,2.32-1.74,4.31-4.15,4.39h-.25c-2.41.08-4.4-1.74-4.4-4.14v-45.06Z"/><path class="cls-1" d="m121.36,215.89v45.31c0,2.49-2.06,4.56-4.54,4.56s-4.54-2.07-4.54-4.56v-45.31c0-2.49,2.06-4.56,4.54-4.56s4.54,1.99,4.54,4.56Z"/><path class="cls-1" d="m143.63,261.23v-44.72c-.08-2.3,1.72-4.27,4.1-4.36h18.77c10.98,0,18.36,6.9,18.36,16.6,0,7.64-4.75,13.56-12.05,15.54l10.33,13.89c.74.9,1.23,2.06,1.31,3.29.08,2.22-1.56,4.03-3.69,4.19h-.41c-1.39,0-2.7-.74-3.52-1.89l-13.28-18.08h-11.15v15.54c.08,2.38-1.72,4.44-4.18,4.52-2.38.08-4.43-1.73-4.51-4.19-.08-.08-.08-.25-.08-.33h0Zm21.8-22.44c6.64,0,10.74-4.11,10.74-9.62s-4.1-9.7-10.74-9.7h-13.11v19.32h13.11Z"/><path class="cls-1" d="m203.99,215.74c-.08-2.33,1.75-4.32,4.16-4.4h30.84c1.99-.08,3.66,1.41,3.74,3.41v.33c.17,1.99-1.41,3.74-3.41,3.91h-26.52v14.54h22.44c1.91-.08,3.49,1.33,3.57,3.24v.42c.08,1.91-1.33,3.49-3.24,3.57h-22.78v16.53h26.85c1.99-.08,3.66,1.41,3.74,3.41v.33c.17,1.99-1.41,3.74-3.41,3.91h-31.67c-2.33.08-4.32-1.74-4.49-4.07v-.33l.17-44.79h0Z"/><path class="cls-1" d="m261.55,216.8c-.08-2.9,2.16-5.38,5.07-5.47h.42c2.41,0,4.15,1.49,5.32,3.64l16.62,30.81,16.95-31.23c.83-1.91,2.74-3.23,4.9-3.23,2.74-.08,5.07,2.07,5.15,4.8v45.14c0,2.32-1.91,4.22-4.24,4.22s-4.24-1.91-4.24-4.22v-34.46l-14.62,26.67c-.83,1.66-1.99,2.98-3.99,2.98s-3.24-1.33-4.07-2.98l-14.62-26.67v34.46c.08,2.4-1.74,4.39-4.07,4.47-2.41.08-4.4-1.74-4.49-4.06v-.41l-.08-44.48h0Z"/><path class="cls-1" d="m400.08,217.14c-.08-3.07,2.3-5.72,5.33-5.81h.41c2.05.08,3.94,1.16,5,2.9l26.98,37.25v-35.92c.08-2.41,2.05-4.23,4.43-4.06,2.21.08,3.94,1.91,4.02,4.06v44.71c.16,2.9-2.05,5.31-4.92,5.39h-.33c-2.05-.08-3.94-1.24-5-2.99l-27.39-37.99v36.58c.08,2.41-1.72,4.4-4.1,4.48-2.38.08-4.35-1.74-4.43-4.15v-44.47Z"/></svg>