<?xml version="1.0" encoding="UTF-8"?><svg id="Capa_2" xmlns="http://www.w3.org/2000/svg" viewBox="0 0 369.49 166.95"><defs><style>.cls-1{fill:#fff;}</style></defs><g id="Capa_1-2"><g><path class="cls-1" d="M94.01,81.99h-10.96c-.15-1.55-.05-3.07-.06-4.6-.02-1.54,0-3.07,0-4.61v-9.1c-.66-.22-21.41-.28-22.53-.06-.02,1.99,0,4.01,0,6.03,0,2.06,0,4.12,0,6.17v6.07c-.64,.18-9.52,.24-10.96,.09-.02-.02-.04-.04-.05-.06-.02-.02-.04-.04-.04-.07-.02-.14-.05-.27-.05-.41,.02-13.69,.03-27.38,.05-41.07,0-.05,.01-.11,.03-.16,.02-.05,.05-.09,.11-.19h10.89v16.67c.69,.21,21.58,.25,22.55,.04,.03-5.53,0-11.08,.02-16.7h11.02v41.96Z"/><path class="cls-1" d="M268.88,39.97v16.74c.67,.19,21.49,.24,22.59,.07v-16.61c.67-.23,10.03-.27,10.95-.07v41.89h-10.81c-.02-.33-.07-.67-.07-1.01,0-5.43,0-10.87,0-16.3v-1.02c-.77-.19-21.72-.21-22.66-.03,0,.97-.02,1.98-.02,2.98,0,1.02,0,2.03,0,3.05v9.22c0,1.01,0,2.02,0,3.02-.66,.18-9.28,.24-10.81,.1-.02-.02-.04-.03-.06-.05-.02-.02-.04-.04-.04-.07-.02-.08-.05-.16-.05-.24,0-13.69,0-27.38,0-41.08,0-.14,.03-.27,.05-.52,.88-.12,1.78-.04,2.67-.05,.91-.01,1.81,0,2.72,0h5.55Z"/><path class="cls-1" d="M206.5,82.01h-12.34l-3.61-9.03h-20.98c-1.19,2.97-2.38,5.97-3.59,9.01h-12.18c.14-.34,.26-.63,.4-.92,4.27-9.17,8.54-18.35,12.8-27.52,1.98-4.25,3.97-8.5,5.92-12.76,.28-.62,.62-.83,1.29-.82,3.9,.03,7.8,.03,11.7,0,.67,0,1.01,.2,1.3,.82,6,12.85,12.02,25.68,18.03,38.52,.41,.86,.81,1.73,1.27,2.72Zm-18.61-15.77c-2.59-6.42-5.12-12.71-7.68-19.04-.52,.65-7.77,18.37-7.82,19.04h15.49Z"/><path class="cls-1" d="M251.79,54.17h-11.49c-.08-.48-.15-.96-.25-1.44-.33-1.7-1-3.24-2.22-4.51-1.15-1.21-2.56-1.94-4.18-2.32-3.4-.79-6.74-.75-10.02,.56-2.78,1.11-4.72,3.03-5.78,5.84-1.36,3.6-1.84,7.33-1.56,11.15,.15,2.06,.57,4.08,1.27,6.02,1.13,3.11,3.26,5.21,6.41,6.26,3.43,1.15,6.89,1.28,10.35,.17,3.37-1.09,5.36-3.39,5.89-6.91,.1-.65,.15-1.3,.24-2h11.58c-.07,.67-.12,1.29-.2,1.9-.48,4.04-2.22,7.37-5.56,9.78-1.62,1.17-3.48,1.85-5.35,2.49-4.74,1.62-9.61,2.12-14.6,1.73-3.13-.25-6.2-.79-9.15-1.88-3.89-1.43-7.08-3.82-9.37-7.32-1.27-1.94-1.95-4.1-2.44-6.34-1.14-5.18-.96-10.31,.88-15.31,1.97-5.36,5.73-9,11.07-11.01,4.75-1.78,9.67-2.44,14.71-2.08,4,.29,7.86,1.22,11.5,2.91,3.98,1.85,6.62,4.9,7.71,9.19,.25,.98,.35,1.99,.54,3.1Z"/><path class="cls-1" d="M146.17,82h-11.07c-.03-2.35,0-4.67-.01-6.99,0-2.3,0-4.61,0-6.91v-21c-1.47-.03-2.86-.01-4.25-.02-1.4,0-2.8,0-4.2,0h-8.44v-7.06h45v7.04c-.92,0-1.84,.02-2.76,.02-.96,0-1.92,0-2.88,0h-11.38v34.92Z"/><path class="cls-1" d="M322.49,81.99h-11.02V40.12c.63-.2,10.23-.22,11.02-.03v41.89Z"/><path class="cls-1" d="M113.91,81.98h-10.85V40.11c.62-.19,10.06-.21,10.85-.01v41.88Z"/><path class="cls-1" d="M249.43,95.71v-1.27c.29-.02,.55-.06,.82-.06,3.32,0,6.64,0,9.97-.01,.52,0,.84,.16,1.14,.61,3.95,6.04,7.92,12.07,11.88,18.1,.19,.29,.39,.57,.68,.82,.12-3.25,.1-6.47,.11-9.69,0-3.23,0-6.46,0-9.76h5.07c.19,.59,.24,24.96,.04,25.91h-6.4c-2.24-3.38-4.51-6.8-6.78-10.23-2.26-3.42-4.52-6.84-6.89-10.24-.13,1.71-.12,3.39-.12,5.07,0,1.7,0,3.4,0,5.1v10.31c-1.79,.04-3.53,0-5.37,.02v-1.05c0-6.67,0-13.34,0-20.01,0-.55-.02-1.1-.08-1.64-.08-.73-.49-1.21-1.22-1.37-.51-.11-1.02-.2-1.53-.31-.42-.09-.84-.2-1.31-.31Z"/><path class="cls-1" d="M96.7,118.78v9.29h-4.91v-.97c0-6.53,0-13.06,0-19.59,0-.54-.06-1.09-.15-1.63-.12-.69-.58-1.12-1.25-1.27-.58-.13-1.19-.19-1.86-.29v-1.26c2.7-.43,5.38-.85,8.18-1.3v2.56c.35-.27,.54-.4,.71-.55,1.03-.89,2.17-1.61,3.54-1.83,3.03-.49,6.51,.5,8,4.04,.41,.97,.7,2.03,.82,3.08,.26,2.3,.19,4.61-.58,6.83-1.01,2.9-3.02,4.55-6.11,4.86-1.08,.11-2.13,.06-3.19-.16-1.04-.22-1.97-.68-2.72-1.45-.09-.09-.2-.16-.48-.37Zm7.77-7.58c0-.63,.04-1.26,0-1.89-.07-1.04-.3-2.05-.76-3.01-1.08-2.24-4.44-2.36-5.75-.33-.49,.75-.8,1.56-.96,2.43-.38,1.99-.38,3.99-.11,5.98,.09,.67,.33,1.33,.62,1.95,.63,1.33,1.77,1.92,3.2,1.92,1.37,0,2.33-.7,2.93-1.91,.16-.32,.28-.66,.39-.99,.43-1.35,.52-2.74,.46-4.15Z"/><path class="cls-1" d="M213.92,120.35h-4.88v-1c0-3.51,0-7.02,0-10.54,0-.52-.04-1.04-.11-1.56-.22-1.68-1.49-2.59-3.17-2.27-.9,.17-1.63,.63-2.26,1.26-1.41,1.43-2,3.18-2,5.15,0,2.63,0,5.27,0,7.9,0,.33,0,.65,0,1.1-1.65,0-3.23,.01-4.93-.01v-1c0-6.67,0-13.34,0-20,0-.68-.05-1.37-.13-2.05-.11-.86-.63-1.38-1.49-1.52-.54-.09-1.08-.13-1.67-.19v-1.27c2.72-.38,5.39-.75,8.18-1.15,.09,1.11,.04,2.12,.04,3.12,0,1.02,0,2.03,0,3.05v6.06l.17,.05c.13-.15,.27-.29,.39-.45,2.05-2.72,4.79-3.63,8.07-3.02,1.78,.33,2.94,1.42,3.46,3.14,.2,.68,.34,1.4,.35,2.1,.04,4.23,.03,8.45,.03,12.68,0,.13-.03,.26-.05,.43Z"/><path class="cls-1" d="M53.46,120.37h-4.93c-.01-.34-.04-.66-.04-.98,0-3.92,0-7.85,0-11.77,0-.44,0-.88-.05-1.32-.12-1.03-.56-1.51-1.58-1.73-.53-.11-1.07-.16-1.66-.24-.02-.17-.05-.32-.05-.48,0-.24,.02-.48,.03-.79,2.72-.43,5.42-.86,8.24-1.31l.05,3.84,.15,.04c.18-.22,.37-.45,.55-.67,1.29-1.58,2.88-2.71,4.93-3.04,1.37-.22,2.74-.16,4.04,.41,1.74,.77,2.49,2.23,2.7,4.03,.05,.41,.04,.82,.04,1.23,0,3.95,0,7.9,0,11.85,0,.27,0,.54,0,.79-.65,.17-3.68,.22-4.92,.07,0-.27,0-.56,0-.85,0-3.38,.01-6.75-.02-10.13,0-.87-.1-1.76-.29-2.61-.34-1.44-1.41-2.03-2.87-1.71-.86,.19-1.58,.63-2.19,1.24-1.36,1.38-2.17,3-2.15,4.99,.03,2.72,0,5.43,0,8.15,0,.3,0,.59,0,.96Z"/><path class="cls-1" d="M301.75,109.73h-12.26c.03,.46,.04,.83,.09,1.2,.17,1.37,.55,2.68,1.26,3.88,1.53,2.6,3.88,3.62,6.8,3.4,1.22-.09,2.42-.4,3.7-.63,.18,.65,.04,1.37,.08,2.11-.89,.43-1.8,.6-2.71,.77-2.51,.48-5.01,.54-7.5-.09-4.15-1.05-6.75-4.22-7.01-8.49-.09-1.49-.05-2.96,.34-4.41,.72-2.66,2.4-4.39,5.04-5.14,2.42-.69,4.88-.72,7.32-.1,2.93,.74,4.62,2.87,4.87,5.99,.04,.46,0,.92,0,1.52Zm-4.97-2.2c-.02-2.78-1.67-3.98-3.74-3.83-2.04,.14-3.67,1.94-3.42,3.83h7.16Z"/><path class="cls-1" d="M162.13,117.49c0,.56,0,1.02,0,1.49,0,.24-.02,.49-.04,.84-.88,.22-1.74,.48-2.62,.65-2.82,.54-5.62,.57-8.36-.42-3.51-1.26-5.43-3.83-5.96-7.49-.23-1.59-.17-3.17,.18-4.74,.61-2.82,2.27-4.71,5.07-5.49,2.48-.69,4.98-.76,7.47-.05,2.65,.75,4.14,2.56,4.55,5.26,.09,.62,.12,1.24,.19,1.97-.4,.02-.72,.06-1.04,.06-3.37,0-6.75,0-10.12,0-.32,0-.64,.03-1.01,.05-.13,1.01,.06,1.92,.29,2.81,.6,2.34,1.81,4.23,4.11,5.23,1.62,.7,3.3,.73,5,.4,.72-.14,1.43-.35,2.28-.57Zm-11.67-9.97h7.06c.3-2.07-.94-3.63-2.92-3.81-2.4-.22-4.04,1.35-4.14,3.81Z"/><path class="cls-1" d="M224.44,109.56c-.5,3.82,2.06,7.66,5.57,8.49,1.73,.41,3.43,.17,5.11-.3,.29-.08,.57-.16,.96-.28,0,.72,.03,1.37-.02,2.01-.01,.16-.3,.39-.49,.44-1.06,.27-2.12,.57-3.2,.72-2.27,.32-4.54,.3-6.76-.39-3.8-1.17-5.92-3.77-6.49-7.68-.24-1.65-.17-3.28,.2-4.9,.64-2.74,2.3-4.57,5.02-5.34,2.53-.71,5.09-.77,7.62-.02,2.58,.77,4,2.57,4.41,5.19,.1,.64,.12,1.29,.19,2.05h-12.13Zm7.14-2.03c-.04-1.44-.3-2.71-1.6-3.38-1.35-.7-2.77-.7-4.06,.17-1.09,.74-1.52,1.86-1.58,3.21h7.24Z"/><path class="cls-1" d="M33.8,120.35c0-.38,0-.7,0-1.02,0-6.64,0-13.27,0-19.91,0-.47,0-.93-.05-1.4-.07-.73-.45-1.23-1.2-1.38-.56-.11-1.13-.2-1.7-.29-.43-.07-.86-.12-1.32-.19v-1.38c3.37-.29,6.69-.57,10-.85,.21,.63,.26,25.47,.05,26.42h-5.79Z"/><path class="cls-1" d="M314.65,108.22c1.52,2,3.04,4,4.56,6,1.52,2,3.04,4.01,4.65,6.13-.34,.02-.55,.04-.75,.04-1.43,0-2.85-.03-4.28,.02-.53,.02-.85-.18-1.16-.59-1.28-1.72-2.58-3.41-3.88-5.11-.21-.28-.44-.55-.72-.92-.58,.68-1.15,1.28-1.62,1.94-.41,.58-.89,.77-1.59,.74-1.34-.06-2.68-.02-4.23-.02,1.77-2.02,3.43-3.9,5.05-5.75-.02-.11-.02-.17-.05-.21-1.31-1.72-2.62-3.45-3.95-5.16-.86-1.12-2.07-1.57-3.43-1.73-.22-.03-.44-.05-.65-.08-.05,0-.1-.04-.2-.09v-1.16c.24-.02,.48-.06,.72-.06,2.06,0,4.12,.01,6.17-.01,.5,0,.81,.18,1.1,.56,1.11,1.47,2.24,2.91,3.36,4.37,.16,.21,.34,.42,.56,.68,.21-.2,.39-.35,.54-.53,1.32-1.51,2.64-3.01,3.94-4.53,.33-.39,.68-.56,1.2-.54,1.18,.04,2.36,0,3.54,.01,.23,0,.47,.03,.79,.06-.16,.22-.24,.35-.34,.47-1.43,1.63-2.86,3.25-4.28,4.9-.26,.3-.53,.41-.92,.41-1.34-.02-2.69,0-4.03,0l-.11,.18Z"/><path class="cls-1" d="M190.23,118.44v2.05c-2.22,.42-4.4,.49-6.57,.06-1.92-.38-3.02-1.6-3.24-3.54-.07-.65-.11-1.31-.11-1.97-.01-3.18,0-6.36,0-9.55v-1.07h-3.28v-2.13c1.02-.19,2.09,.01,3.23-.13,.12-.91,.04-1.84,.05-2.75,.01-.93,0-1.86,0-2.88,1.66-.15,3.25-.05,4.95-.07v5.74h5.51c.18,.77,.13,1.43,.05,2.19h-5.46c-.03,.3-.07,.51-.07,.72,0,3.57,0,7.13,0,10.7,0,.43,.06,.87,.14,1.3,.12,.66,.54,1.11,1.19,1.21,.72,.12,1.47,.15,2.2,.18,.43,.02,.87-.03,1.41-.06Z"/><path class="cls-1" d="M329.38,96.43h5.03v5.76c1.9,.05,3.7,0,5.55,.03v2.17h-5.49c-.02,.39-.05,.68-.05,.97,0,3.24,0,6.47,0,9.71,0,.57,.05,1.15,.11,1.72,.09,.83,.54,1.42,1.37,1.53,.89,.12,1.8,.12,2.7,.15,.29,.01,.59-.03,.96-.06v2.09c-.9,.1-1.81,.27-2.73,.28-1.26,0-2.53-.01-3.77-.21-2.27-.37-3.37-1.67-3.54-3.97-.03-.44-.03-.88-.03-1.32,0-3.26,0-6.53,0-9.79v-1.06h-3.19c-.25-.74-.14-1.41-.1-2.16,1.06-.18,2.13,.01,3.2-.12,.03-.19,.08-.35,.08-.51,0-1.59,0-3.18,0-4.77,0-.16-.06-.32-.09-.48l-.03,.02Z"/><path class="cls-1" d="M84.36,102.57v3.4c-.2-.09-.33-.15-.46-.22-1.26-.74-2.57-1.35-4.03-1.58-.77-.12-1.54-.09-2.28,.12-1.29,.37-1.71,1.58-.9,2.64,.27,.36,.64,.69,1.03,.93,.84,.51,1.73,.95,2.6,1.41,.89,.48,1.82,.91,2.67,1.45,.57,.36,1.11,.81,1.57,1.31,2,2.2,1.58,5.58-.86,7.28-1.15,.8-2.46,1.2-3.84,1.37-2.56,.32-5.09,.08-7.59-.53-.1-.03-.2-.09-.34-.15v-3.57c.47,.27,.86,.51,1.26,.73,1.71,.97,3.53,1.52,5.51,1.3,.51-.06,1.04-.18,1.5-.4,1.17-.56,1.46-1.92,.61-2.9-.39-.45-.89-.82-1.41-1.12-.88-.51-1.82-.9-2.7-1.4-1.05-.59-2.1-1.19-3.08-1.89-.93-.67-1.59-1.59-1.79-2.77-.36-2.16,.6-4.1,2.56-5.15,1.13-.61,2.36-.88,3.63-.98,2.02-.17,3.99,.15,5.96,.55,.1,.02,.2,.09,.37,.16Z"/><path class="cls-1" d="M134.97,120.36h-4.9c-.01-.31-.04-.6-.04-.89,0-3.92,0-7.84,0-11.76,0-.6-.05-1.2-.15-1.79-.12-.73-.61-1.15-1.31-1.3-.58-.13-1.18-.19-1.82-.28v-1.27c2.71-.43,5.41-.86,8.14-1.29,.22,1.15-.05,2.27,.2,3.52,.25-.39,.4-.65,.56-.89,1.12-1.7,2.64-2.67,4.74-2.57,.78,.04,1.59-.09,2.38,.28v4.12c-.68-.13-1.31-.31-1.95-.38-3.26-.36-5.58,1.41-5.78,4.57-.06,.93-.05,1.86-.06,2.79,0,2.03,0,4.06,0,6.09v1.06Z"/><path class="cls-1" d="M121.95,120.84h-4.77v-1.01c0-3.98,0-7.95,0-11.93,0-.44-.01-.88-.08-1.31-.13-.82-.61-1.34-1.43-1.5-.56-.11-1.13-.17-1.76-.26v-1.27l8.05-1.28v18.56Z"/><path class="cls-1" d="M329.41,96.42c-1.37-.01-2.74-.03-4.11-.04-.3,0-.59,0-1.03,0,.23-.3,.38-.52,.55-.71,1.77-2.05,3.55-4.1,5.31-6.16,.31-.36,.62-.54,1.11-.52,1.26,.03,2.52,.01,3.78,.01h.84c-2.25,2.59-4.36,5.02-6.47,7.45l.02-.02Z"/><path class="cls-1" d="M119.55,99.47c-1.67,.02-3.02-1.04-3.21-2.37-.2-1.41,.89-2.75,2.46-2.97,.87-.13,1.69,.04,2.42,.56,1.44,1.02,1.53,2.86,.19,4.01-.58,.5-1.27,.74-1.87,.77Z"/></g></g></svg>