<?xml version="1.0" encoding="UTF-8"?><svg id="Capa_2" xmlns="http://www.w3.org/2000/svg" viewBox="0 0 273.91 83.37"><defs><style>.cls-1,.cls-2{fill:#fff;}.cls-2{fill-rule:evenodd;}</style></defs><g id="Capa_1-2"><g><polygon class="cls-1" points="68.04 8.13 68.04 8.13 68.04 8.13 68.04 8.13"/><polygon class="cls-1" points="68.04 8.13 68.04 8.13 68.04 8.13 68.04 8.13"/><g><path class="cls-1" d="M110.42,71.47h1.55v7.05h-1.55v-7.05Z"/><path class="cls-1" d="M113.74,71.47h1.43l3.3,4.34v-4.34h1.53v7.05h-1.32l-3.41-4.48v4.48h-1.53v-7.05Z"/><path class="cls-1" d="M123.34,72.9h-2.15v-1.43h5.84v1.43h-2.15v5.62h-1.55v-5.62Z"/><path class="cls-1" d="M128.22,71.47h5.31v1.38h-3.78v1.43h3.32v1.38h-3.32v1.48h3.83v1.38h-5.36v-7.05Z"/><path class="cls-1" d="M134.97,71.47h1.55v5.65h3.52v1.4h-5.07v-7.05Z"/><path class="cls-1" d="M141.2,71.47h1.55v5.65h3.52v1.4h-5.07v-7.05Z"/><path class="cls-1" d="M147.51,71.47h1.55v7.05h-1.55v-7.05Z"/><path class="cls-1" d="M154.22,78.64c-.55,0-1.05-.09-1.51-.27s-.84-.43-1.17-.76c-.33-.32-.58-.71-.76-1.15-.18-.44-.27-.93-.27-1.45v-.02c0-.5,.09-.98,.28-1.42s.44-.83,.77-1.16c.33-.33,.72-.59,1.17-.79,.45-.19,.94-.29,1.48-.29,.32,0,.6,.02,.86,.07s.5,.11,.72,.19c.22,.08,.43,.18,.62,.3,.19,.12,.38,.26,.56,.41l-.98,1.18c-.13-.11-.27-.21-.4-.3-.13-.09-.27-.16-.42-.22-.14-.06-.3-.11-.47-.14-.17-.03-.35-.05-.55-.05-.28,0-.55,.06-.79,.18-.25,.12-.46,.28-.64,.47s-.33,.43-.43,.7c-.1,.27-.16,.55-.16,.85v.02c0,.32,.05,.62,.16,.89s.25,.51,.44,.71c.19,.2,.42,.36,.68,.47s.55,.17,.86,.17c.58,0,1.06-.14,1.46-.43v-1.01h-1.56v-1.34h3.06v3.06c-.36,.31-.79,.57-1.29,.79-.5,.22-1.07,.33-1.72,.33Z"/><path class="cls-1" d="M158.72,71.47h5.31v1.38h-3.78v1.43h3.32v1.38h-3.32v1.48h3.83v1.38h-5.36v-7.05Z"/><path class="cls-1" d="M165.47,71.47h1.43l3.3,4.34v-4.34h1.53v7.05h-1.32l-3.41-4.48v4.48h-1.53v-7.05Z"/><path class="cls-1" d="M175.07,72.9h-2.15v-1.43h5.84v1.43h-2.15v5.62h-1.55v-5.62Z"/><path class="cls-1" d="M182.37,71.47h1.71l1.84,4.97,1.84-4.97h1.67l-2.85,7.1h-1.37l-2.85-7.1Z"/><path class="cls-1" d="M190.6,71.47h1.55v7.05h-1.55v-7.05Z"/><path class="cls-1" d="M193.91,71.47h2.75c.55,0,1.06,.09,1.52,.27,.46,.18,.86,.43,1.19,.74s.59,.69,.77,1.11,.27,.89,.27,1.38v.02c0,.5-.09,.96-.27,1.39s-.44,.8-.77,1.12c-.33,.32-.73,.56-1.19,.75-.46,.18-.97,.27-1.52,.27h-2.75v-7.05Zm2.75,5.65c.32,0,.6-.05,.87-.15s.48-.25,.67-.43,.33-.41,.43-.67c.1-.26,.16-.54,.16-.86v-.02c0-.31-.05-.59-.16-.86-.1-.26-.25-.49-.43-.67s-.41-.33-.67-.44c-.26-.1-.55-.16-.87-.16h-1.2v4.25h1.2Z"/><path class="cls-1" d="M201.79,71.47h5.31v1.38h-3.78v1.43h3.32v1.38h-3.32v1.48h3.83v1.38h-5.36v-7.05Z"/><path class="cls-1" d="M211.96,78.64c-.54,0-1.04-.1-1.5-.29s-.85-.45-1.18-.78c-.33-.33-.59-.71-.78-1.15-.18-.44-.28-.91-.28-1.42v-.02c0-.5,.09-.98,.28-1.42,.19-.44,.45-.83,.78-1.16s.73-.59,1.19-.79c.46-.19,.96-.29,1.51-.29s1.04,.1,1.5,.29c.46,.19,.85,.45,1.18,.78,.33,.33,.59,.71,.78,1.15,.18,.44,.28,.91,.28,1.42v.02c0,.5-.09,.98-.28,1.42-.19,.44-.45,.83-.78,1.16-.33,.33-.73,.59-1.19,.79s-.96,.29-1.51,.29Zm.02-1.43c.31,0,.59-.06,.86-.17,.26-.11,.48-.27,.67-.47,.18-.2,.33-.44,.43-.7s.16-.55,.16-.85v-.02c0-.3-.05-.59-.16-.86-.1-.27-.25-.5-.44-.7s-.42-.36-.68-.48c-.26-.12-.55-.18-.86-.18s-.6,.06-.86,.17c-.26,.11-.48,.27-.66,.47s-.33,.43-.43,.7c-.1,.26-.16,.55-.16,.85v.02c0,.3,.05,.59,.16,.86,.1,.27,.25,.5,.44,.7s.42,.36,.68,.48c.26,.12,.55,.18,.86,.18Z"/><path class="cls-1" d="M216.87,76.9h1.62v1.61h-1.62v-1.61Z"/><path class="cls-1" d="M223,71.47h2.75c.55,0,1.06,.09,1.52,.27,.46,.18,.86,.43,1.19,.74s.59,.69,.77,1.11,.27,.89,.27,1.38v.02c0,.5-.09,.96-.27,1.39s-.44,.8-.77,1.12c-.33,.32-.73,.56-1.19,.75-.46,.18-.97,.27-1.52,.27h-2.75v-7.05Zm2.75,5.65c.32,0,.6-.05,.87-.15s.48-.25,.67-.43,.33-.41,.43-.67c.1-.26,.16-.54,.16-.86v-.02c0-.31-.05-.59-.16-.86-.1-.26-.25-.49-.43-.67s-.41-.33-.67-.44c-.26-.1-.55-.16-.87-.16h-1.2v4.25h1.2Z"/><path class="cls-1" d="M230.87,71.47h5.31v1.38h-3.78v1.43h3.32v1.38h-3.32v1.48h3.83v1.38h-5.36v-7.05Z"/><path class="cls-1" d="M237.62,71.47h5.37v1.4h-3.82v1.52h3.36v1.4h-3.36v2.73h-1.55v-7.05Z"/><path class="cls-1" d="M244.3,71.47h1.55v7.05h-1.55v-7.05Z"/><path class="cls-1" d="M247.61,71.47h1.43l3.3,4.34v-4.34h1.53v7.05h-1.32l-3.41-4.48v4.48h-1.53v-7.05Z"/><path class="cls-1" d="M255.57,71.47h5.31v1.38h-3.78v1.43h3.32v1.38h-3.32v1.48h3.83v1.38h-5.36v-7.05Z"/><path class="cls-1" d="M262.32,71.47h2.75c.55,0,1.06,.09,1.52,.27,.46,.18,.86,.43,1.19,.74s.59,.69,.77,1.11,.27,.89,.27,1.38v.02c0,.5-.09,.96-.27,1.39s-.44,.8-.77,1.12c-.33,.32-.73,.56-1.19,.75-.46,.18-.97,.27-1.52,.27h-2.75v-7.05Zm2.75,5.65c.32,0,.6-.05,.87-.15s.48-.25,.67-.43,.33-.41,.43-.67c.1-.26,.16-.54,.16-.86v-.02c0-.31-.05-.59-.16-.86-.1-.26-.25-.49-.43-.67s-.41-.33-.67-.44c-.26-.1-.55-.16-.87-.16h-1.2v4.25h1.2Z"/><path class="cls-1" d="M271.78,75.23c-.3,0-.58-.06-.83-.17-.26-.11-.48-.26-.67-.46-.19-.19-.34-.42-.45-.67-.11-.26-.16-.53-.16-.82h0c0-.3,.05-.57,.16-.83,.11-.26,.26-.48,.45-.68,.19-.19,.42-.35,.68-.46,.26-.11,.54-.17,.84-.17s.58,.06,.83,.17c.26,.11,.48,.26,.67,.46,.19,.19,.34,.42,.45,.67,.11,.26,.16,.53,.16,.82h0c0,.3-.05,.57-.16,.83-.11,.26-.26,.48-.45,.68-.19,.19-.42,.35-.68,.46-.26,.11-.54,.17-.84,.17Zm0-.23c.27,0,.52-.05,.75-.15,.23-.1,.43-.24,.6-.41s.3-.37,.4-.6c.1-.23,.14-.48,.14-.73h0c0-.27-.05-.51-.14-.74-.1-.23-.23-.43-.39-.6s-.36-.3-.59-.4c-.23-.1-.48-.15-.74-.15s-.52,.05-.75,.15c-.23,.1-.43,.23-.6,.4-.17,.17-.3,.37-.4,.6-.1,.23-.14,.48-.14,.73h0c0,.27,.05,.51,.14,.74s.23,.43,.39,.6,.37,.3,.6,.4c.23,.1,.48,.15,.74,.15Zm-.87-3.08h1c.3,0,.53,.08,.7,.25,.13,.13,.19,.29,.19,.49h0c0,.2-.05,.34-.14,.46-.09,.11-.21,.2-.35,.25l.55,.81h-.58l-.48-.73h-.39v.73h-.5v-2.26Zm1,1.1c.13,0,.22-.03,.29-.09,.07-.06,.1-.14,.1-.23h0c0-.12-.04-.2-.11-.26-.07-.05-.17-.08-.29-.08h-.49v.66h.5Z"/></g><g><rect class="cls-1" x="110.12" y="4.16" width="10.35" height="58.47"/><path class="cls-1" d="M177.28,28.44h-21.74c-11.5,0-11.99-2.18-11.99-7.12,0-7.41,3.35-8.16,17.68-8.16h7.8c16.17,0,17.93,1.3,18.54,4.73l.22,1.26,10-.13-.16-1.63c-.95-9.52-7.73-13.22-24.17-13.22h-15.82c-15.19,0-23.99,2.72-23.99,16.65,0,16.51,10.15,17.24,31.26,17.24h13.94c8.98,0,10.34,1.59,10.34,7.04,0,6.41-1.78,8.54-12.29,8.54h-22.79c-9.69,0-10.49-3.01-10.49-6.37v-1.54l-9.91,.22v1.47c0,15.22,15.18,15.22,21.67,15.22h20.39c8.72,0,23.32,0,23.32-15.82v-3.52c0-13.16-11.66-14.85-21.82-14.85Z"/><path class="cls-1" d="M251.79,28.44h-21.74c-11.5,0-11.99-2.18-11.99-7.12,0-7.41,3.35-8.16,17.68-8.16h7.8c16.17,0,17.93,1.3,18.54,4.73l.22,1.26,10-.13-.16-1.63c-.95-9.52-7.73-13.22-24.17-13.22h-15.82c-15.19,0-23.99,2.72-23.99,16.65,0,16.51,10.15,17.24,31.26,17.24h13.94c8.98,0,10.34,1.59,10.34,7.04,0,6.41-1.78,8.54-12.29,8.54h-22.79c-9.69,0-10.49-3.01-10.49-6.37v-1.54l-9.91,.22v1.47c0,15.22,15.18,15.22,21.67,15.22h20.39c8.72,0,23.32,0,23.32-15.82v-3.52c0-13.16-11.66-14.85-21.82-14.85Z"/></g><polygon class="cls-2" points="20.19 41.69 33.68 41.69 13.55 66.68 0 66.67 20.19 41.69 20.19 41.69"/><polygon class="cls-1" points="21.33 75.57 22.43 76.99 55.09 77.03 54.2 75.56 21.33 75.57"/><path class="cls-1" d="M88.2,50l6.78-8.32H47.24l-20.19,24.99H61.29l-6.74,8.34H25.17s-4.93,.01-4.93,.01l.02,.02-6.71,8.33H61.3l20.24-25.04H47.13l6.82-8.33h34.25ZM22.43,76.99l-1.1-1.43H54.2s.89,1.47,.89,1.47l-32.66-.04Zm58.08-18.14l-1.12,1.36H45.54s1.15-1.34,1.15-1.34l33.82-.03Z"/><polygon class="cls-2" points="33.68 41.69 20.19 41.69 13.49 33.37 26.95 33.33 33.68 41.69 33.68 41.69"/><path class="cls-1" d="M74.8,16.7H40.39l-5.23-6.55-.21-.27h.02s-.91-1.12-.91-1.12h33.16s-.82,1.05-.82,1.05l-31.43,.07,.44,.54,31.03,.02,1.62-2.09L61.3,0H13.54l20.17,24.96,34.31,.07,6.74,8.34H40.51l6.73,8.32h47.75l-20.19-24.99Zm-6.68,7.76l-33.3-.04,1.1-1.42,33.29,.06-1.08,1.4Z"/></g></g></svg>