<?xml version="1.0" encoding="UTF-8"?><svg id="Capa_2" xmlns="http://www.w3.org/2000/svg" viewBox="0 0 369.49 166.95"><defs><style>.cls-1{fill:#fff;}</style></defs><g id="Capa_1-2"><g><path class="cls-1" d="M31.52,114.27c2.35-3.7,4.77-7.22,6.9-10.91,3.4-5.89,5.24-6.27,10.62-1.86,.47,.38,.94,.75,1.95,1.55,2.76-6.15,5.4-12.07,8.05-17.98,.63-1.4,1.11-2.88,1.92-4.16,.6-.96,1.84-2.47,2.39-2.32,1.1,.31,2.29,1.43,2.8,2.51,2.92,6.23,5.65,12.56,8.46,18.84,.42,.95,.99,1.83,1.61,2.95,.79-.62,1.37-1.06,1.94-1.53,5.11-4.22,7.1-3.82,10.33,1.78,2.14,3.69,4.5,7.25,6.93,11.13H31.52Z"/><path class="cls-1" d="M63.28,53.95c-4.18,8.16-7.64,15.82-12.03,22.9-1.15,1.85-8.5,2.18-8.81,1.67-5.13,12.03-10.26,23.66-15.49,35.94-2.65,.5-4.03-.56-3.43-3.74,3.4-17.87,6.75-35.76,10.31-53.59,.24-1.23,2.08-3,3.23-3.04,8.5-.26,17.01-.14,26.22-.14Z"/><path class="cls-1" d="M63.77,53.91c9.22,0,17.46-.16,25.67,.16,1.37,.05,3.56,2.03,3.84,3.43,3.56,17.51,6.84,35.08,10.2,52.64,.57,2.96,0,4.88-3.41,4.32-5.14-12.09-10.21-24.01-15.25-35.85q-8.03,.91-11.79-6.4c-2.98-5.82-5.91-11.66-9.27-18.3Z"/><path class="cls-1" d="M129.27,52.36h24.39c.36,0,.51,.58,.16,.64-3.24,.63-3.89,2.57-3.77,6.38,.33,10.48,.05,30.04-.15,37.38-.3,11.31-9.92,19.18-21.07,17.57-5.03-.73-8.87-3.33-9.64-8.46-.29-1.94,.89-4.78,2.58-6.07,1.69-1.15,4.61-1.34,5.71,.06,1.36,1.74,1.24,4.72,1.7,7.07,.2,1,.42,2.02,.32,3.04-.11,1.16,.98,1.99,2.03,1.66,1.69-.53,3.41-1.04,4.43-2.17,1.34-1.49,1.75-4.23,1.78-6.43,.15-14.22,.04-30.36,.04-44.58,0-3.34-7.53-4.58-8.53-4.83,0-.44,.01-.84,.01-1.26Z"/><path class="cls-1" d="M302.78,73.32c4.14-1.55,8.69-3.29,12.45-3.69,7.35-.78,11.02,3.04,11.13,10.51,.08,5.57,.03,17.74,.03,23.31,0,1.79,1.15,2.47,1.8,3.12h-14.44c1.33-.78,2.01-1.89,2.01-3.14,0-1.96,.17-16.92-.15-25.32-.32-3.95-4.56-5.27-7.4-3.17-2.19,1.62-4.2,4.74-4.5,7.39-.69,6.08-.46,15.03-.46,21.18,0,1.02,.77,1.97,2.5,3.06h-15.27c2.13-1.28,1.95-3.11,1.95-3.11,0,0,.09-20.24,.09-30.09,0-1.59-.46-2.23-1.62-3.03h11.87c0,1.3,.01,1.89,.01,2.97Z"/><path class="cls-1" d="M247.98,88.06c.13-11.22,8.07-19.42,18.59-19.2,10.66,.22,18.04,8.43,17.86,19.86-.18,11.35-7.85,19.23-18.6,19.1-10.7-.12-17.99-8.2-17.85-19.76Zm13.45,14.07c.76,1.65,3.03,3.52,4.85,3.52,1.61,0,3.86-2,4.64-3.58,2.19-4.49,2.53-20.77,.37-26.55-.56-1.72-3.34-4.42-5.14-4.42-1.96,0-4.33,2.3-5.05,4.15-2.6,6.67-1.98,21.88,.33,26.89Z"/><path class="cls-1" d="M172.58,86.63c.62,7.04,1.46,12.92,7.63,15.54,5.48,2.33,8.81-2.04,12.36-5.31-1.43,5.71-5.96,9.78-12.05,10.58-6.74,.88-12.09-1.63-15.68-7.37-3.81-6.1-3.89-12.76-1.83-19.41,2.53-8.2,9.93-12.93,17.56-11.56,7.5,1.34,12.45,8.02,12.48,17.53h-20.46Zm-.03-2.02c4.55-.1,8.63-.1,12.52-.1,.28-7.7-2.87-13.32-6.4-13.26-4.01,.07-6.59,4.54-6.12,13.35Z"/><path class="cls-1" d="M219.55,73.38l-7.14-.07s.13,16.35,.13,24.54c0,4.7,1.93,4.52,2.67,4.43,1.77-.22,3.44-1.23,4.93-2.04,.39-.22,.85,.17,.7,.6-1.47,4.42-5.56,7.3-10.58,6.92-5.56-.42-8.39-3.75-8.48-10.19-.08-6.71-.13-24.18-.13-24.18,0,0-1.28-.01-2.54-.02-.33,0-.47-.41-.21-.62,4.52-3.65,9.17-9.68,12.28-15.05,.25-.43,.89-.26,.91,.23,.17,4.83,.27,12.07,.27,12.07l7.17,.02c.14,0,.26,.11,.26,.26l.02,2.85c0,.14-.12,.26-.26,.26Z"/><path class="cls-1" d="M239.66,70.19c0,9.75,.1,23.97,.1,33.32,0,.97,.34,1.99,2.21,3.3h-16.21c1.29-.8,2.78-1,2.78-3.3v-30.13c0-2.01-1.33-2.5-2.91-3.19h14.03Z"/><circle class="cls-1" cx="233.8" cy="59.1" r="6"/><g><path class="cls-1" d="M339.73,56.32c-.43,0-.71,.03-.84,.07v2.35h.81c.92,0,1.49-.49,1.49-1.22,0-.82-.57-1.19-1.46-1.19Z"/><path class="cls-1" d="M339.9,52.77c-3.43,0-6.21,2.78-6.21,6.21s2.78,6.21,6.21,6.21,6.21-2.78,6.21-6.21-2.78-6.21-6.21-6.21Zm1.5,10.02c-.11-.22-.29-.83-.5-1.75-.21-.97-.56-1.28-1.33-1.3h-.68v3.06h-1.35v-7.33c.51-.09,1.27-.15,2.05-.15,1.07,0,1.8,.18,2.29,.6,.41,.34,.64,.86,.64,1.49,0,.96-.65,1.61-1.35,1.86v.03c.53,.2,.85,.72,1.04,1.43,.23,.93,.43,1.79,.58,2.07h-1.4Z"/></g></g></g></svg>