<?xml version="1.0" encoding="UTF-8"?><svg id="Capa_2" xmlns="http://www.w3.org/2000/svg" viewBox="0 0 369.49 166.95"><defs><style>.cls-1{fill:#fff;fill-rule:evenodd;}</style></defs><g id="Capa_1-2"><g><path class="cls-1" d="M179.83,20.76c-75.69,0-137.06,25.92-137.06,57.9h0c0,31.98,61.36,57.9,137.06,57.9,75.69,0,137.05-25.93,137.05-57.9S255.52,20.76,179.83,20.76Zm-27.49,86.46l-6.49-13.86h-25.36l-6.49,13.86h-30.62V50.74h8.26v49h16.98l24.56-52.14,28.08,59.61h-8.91Zm68.59-.23c-5.71,3.26-12.62,5.09-19.2,5.09-20.51,0-37.54-15.87-37.54-36.15,0-20.73,17.11-36.88,38.29-36.88,6.55,0,12.8,1.54,18.45,4.91v11.57c-5.56-4.8-11.88-7.46-19.3-7.46-15.56,0-27.44,12.62-27.44,27.58s11.79,27.4,27.25,27.4c7.68,0,13.78-2.88,19.49-7.83v11.77Zm15.94,.23h-8.26V50.74h8.26v56.48Zm39.41-49h-23.46v14.31h22.78v7.47h-22.78v19.74h23.46v7.48h-31.72V50.74h31.72v7.48Z"/><polygon class="cls-1" points="123.06 86.46 143.28 86.46 143.28 86.46 133.17 64.09 123.06 86.46"/></g></g></svg>