<?xml version="1.0" encoding="UTF-8"?><svg id="Capa_2" xmlns="http://www.w3.org/2000/svg" viewBox="0 0 369.49 166.95"><defs><style>.cls-1{fill:#fff;}</style></defs><g id="Capa_1-2"><g><path class="cls-1" d="M229.94,67.7c2.02-.89,3.26-2.67,3.26-4.8,0-4.09-2.79-5.63-7.53-5.63h-8.9v22.42h9.49c4.21,0,7.59-1.9,7.59-6.64,0-2.73-1.66-4.51-3.91-5.34Zm-8.84-6.94h4.39c1.6,0,3.08,.47,3.08,2.79,0,1.84-1.25,2.79-3.08,2.79h-4.39v-5.58Zm4.39,15.42h-4.39v-6.52h4.45c1.9,0,3.5,.77,3.5,3.32s-1.6,3.2-3.56,3.2Z"/><path class="cls-1" d="M250.52,64.08h-4.39v11.57c-.36,.24-.77,.47-1.25,.65-.53,.18-1.13,.3-1.84,.3-1.9,0-2.02-1.3-2.02-2.97v-9.55h-4.39v10.44c0,3.38,.95,5.46,4.98,5.46,1.07,0,2.14-.24,3.26-.65,.65-.24,1.25-.47,1.72-.77l.18,1.07h4.03l-.3-4.15v-11.39Z"/><path class="cls-1" d="M266.24,75.05c0-2.79-1.78-3.8-3.91-4.45-.71-.18-2.31-.65-2.85-.89-1.42-.42-2.08-.89-2.08-1.6,0-.89,.95-1.3,2.61-1.3,1.84,0,3.62,.47,4.92,1.19l1.3-3.14c-1.72-.71-3.62-1.13-6.23-1.13-4.15,0-6.76,1.6-6.76,4.86,0,2.61,1.72,3.74,3.86,4.39l2.73,.83c1.42,.42,2.08,1.01,2.08,1.66,0,.95-.95,1.36-2.55,1.36-2.08,0-3.8-.42-5.04-1.13l-1.3,3.14c1.72,.65,3.56,1.19,6.41,1.19,4.27,0,6.82-1.66,6.82-4.98Z"/><rect class="cls-1" x="268.85" y="57.26" width="4.51" height="3.56"/><rect class="cls-1" x="268.85" y="64.08" width="4.39" height="15.54"/><path class="cls-1" d="M285.75,63.72c-1.07,0-2.19,.18-3.38,.59-.65,.24-1.19,.47-1.72,.83l-.12-1.07h-4.15l.47,4.21v11.39h4.39v-11.57c.36-.24,.77-.47,1.25-.65,.53-.18,1.13-.3,1.84-.3,2.02,0,2.14,1.36,2.14,2.97v9.55h4.39v-10.5c0-3.38-1.07-5.46-5.1-5.46Z"/><path class="cls-1" d="M301.12,79.97c2.55,0,5.34-.89,6.58-1.66l-.83-2.73c-1.36,.59-2.55,1.3-5.04,1.3-1.66,0-2.79-.47-3.32-1.36-.36-.65-.59-1.54-.59-2.61h10.02v-1.6c0-4.45-1.19-7.65-6.88-7.65-5.16,0-7.71,2.67-7.71,8.07,0,2.73,.59,4.8,1.72,6.17,1.19,1.36,3.2,2.08,6.05,2.08Zm-3.14-10.56c.18-1.84,1.13-2.85,3.08-2.85,1.72,0,2.37,1.3,2.37,3.5h-5.52l.06-.65Z"/><path class="cls-1" d="M323.06,75.05c0-2.79-1.78-3.8-3.91-4.45-.71-.18-2.31-.65-2.85-.89-1.42-.42-2.08-.89-2.08-1.6,0-.89,.95-1.3,2.61-1.3,1.84,0,3.62,.47,4.92,1.19l1.3-3.14c-1.72-.71-3.62-1.13-6.23-1.13-4.15,0-6.76,1.6-6.76,4.86,0,2.61,1.72,3.74,3.86,4.39l2.73,.83c1.42,.42,2.08,1.01,2.08,1.66,0,.95-.95,1.36-2.55,1.36-2.14,0-3.8-.42-5.04-1.13l-1.3,3.14c1.72,.65,3.56,1.19,6.41,1.19,4.27,0,6.82-1.66,6.82-4.98Z"/><path class="cls-1" d="M331.01,76.83c-2.14,0-3.8-.42-5.04-1.13l-1.3,3.14c1.72,.65,3.56,1.19,6.41,1.19,4.27,0,6.82-1.66,6.82-4.98,0-2.79-1.78-3.8-3.91-4.45-.71-.18-2.31-.65-2.85-.89-1.42-.42-2.08-.89-2.08-1.6,0-.89,.95-1.3,2.61-1.3,1.84,0,3.62,.47,4.92,1.19l1.3-3.14c-1.72-.71-3.62-1.13-6.23-1.13-4.15,0-6.76,1.6-6.76,4.86,0,2.61,1.72,3.74,3.86,4.39l2.73,.83c1.42,.42,2.08,1.01,2.08,1.66,0,.95-.95,1.36-2.55,1.36Z"/><path class="cls-1" d="M228.1,97.95c-1.84-.83-4.03-1.54-5.52-2.19-.47-.24-.95-.53-1.42-.89-.47-.42-.71-1.01-.71-1.72,0-1.48,1.19-2.49,4.03-2.49,2.19,0,4.33,.53,5.81,1.42l1.48-3.32c-2.02-1.19-4.98-1.66-7.35-1.66-5.52,0-8.54,2.43-8.54,6.41,0,3.38,1.48,4.63,4.27,5.99,1.9,.77,3.97,1.3,5.75,2.19,.53,.3,1.72,1.01,1.72,2.31,0,1.42-1.19,2.55-4.33,2.55-2.19,0-4.09-.53-6.17-1.54l-1.54,3.44c2.55,1.3,5.46,1.84,7.89,1.84,5.4,0,8.66-2.49,8.66-6.47,0-3.5-1.84-4.8-4.03-5.87Z"/><path class="cls-1" d="M242.4,93.91c-5.63,0-8.13,2.67-8.13,8.07,0,5.1,1.66,8.24,7.41,8.24s8.24-2.67,8.24-8.07c0-5.1-1.78-8.24-7.53-8.24Zm-.71,13.29c-2.37,0-2.91-2.19-2.91-4.92,0-3.56,.77-5.4,3.62-5.4,2.49,0,3.02,2.25,3.02,4.98,0,3.5-.83,5.34-3.74,5.34Z"/><path class="cls-1" d="M256.99,104.77v-18.56l-4.39,.59v18.09c0,3.32,1.25,5.16,5.04,5.16h.36l.42-.06,.36-.06v-3.08c-1.36,0-1.78-.18-1.78-2.08Z"/><path class="cls-1" d="M274.54,94.21h-4.39v11.63c-.36,.24-.77,.47-1.25,.65-.53,.18-1.13,.3-1.84,.3-1.9,0-2.02-1.3-2.02-2.97v-9.55h-4.45v10.38c0,3.38,.95,5.46,4.98,5.46,1.07,0,2.14-.24,3.26-.65,.65-.24,1.25-.47,1.72-.77l.18,1.07h4.09l-.3-4.15v-11.39Z"/><path class="cls-1" d="M285.69,106.72c-1.9,0-2.02-1.36-2.02-2.91v-6.35h5.34v-3.26h-5.34v-3.68l-4.39,.83h-.12v2.91l-2.61,.3v2.85h2.67v7.3c0,3.32,.89,5.4,4.98,5.4,1.96,0,3.74-.42,5.34-1.25l-.65-2.91c-.95,.47-1.96,.77-3.2,.77Z"/><rect class="cls-1" x="291.63" y="87.45" width="4.51" height="3.56"/><rect class="cls-1" x="291.69" y="94.27" width="4.39" height="15.54"/><path class="cls-1" d="M306.99,93.91c-5.69,0-8.19,2.67-8.13,8.07,0,5.1,1.66,8.24,7.41,8.24s8.24-2.67,8.24-8.07c0-5.1-1.78-8.24-7.53-8.24Zm-.77,13.29c-2.37,0-2.91-2.19-2.91-4.92,0-3.56,.83-5.4,3.62-5.4,2.49,0,3.02,2.25,3.02,4.98,0,3.5-.77,5.34-3.74,5.34Z"/><path class="cls-1" d="M326.21,93.91c-1.07,0-2.19,.18-3.38,.59-.65,.24-1.19,.47-1.72,.83l-.12-1.07h-4.15l.42,4.15v11.39h4.39v-11.57c.36-.24,.77-.47,1.25-.65,.53-.18,1.13-.3,1.84-.3,2.02,0,2.14,1.36,2.14,2.97v9.61h4.45v-10.5c0-3.38-1.07-5.46-5.1-5.46Z"/><path class="cls-1" d="M342.87,100.79c-.71-.18-2.31-.65-2.85-.89-1.42-.42-2.08-.89-2.08-1.6,0-.89,.95-1.3,2.61-1.3,1.84,0,3.62,.42,4.92,1.19l1.3-3.14c-1.72-.71-3.62-1.13-6.23-1.13-4.15,0-6.76,1.6-6.76,4.86,0,2.61,1.72,3.68,3.86,4.39l2.73,.89c1.42,.42,2.08,1.01,2.08,1.66,0,.95-.95,1.36-2.55,1.36-2.08,0-3.8-.42-5.04-1.13l-1.3,3.14c1.72,.65,3.56,1.19,6.41,1.19,4.27,0,6.82-1.66,6.82-4.98,0-2.85-1.78-3.86-3.91-4.51Z"/><rect class="cls-1" x="204.61" y="57.2" width="2.43" height="52.67"/><polygon class="cls-1" points="112.42 57.2 100.27 57.2 100.27 109.81 137.69 109.81 137.69 99.55 112.42 99.55 112.42 57.2"/><path class="cls-1" d="M164.5,89.76h9.91v9.19c-1.84,.71-5.4,1.36-8.78,1.36-10.97,0-14.65-5.58-14.65-16.84s3.5-17.14,14.47-17.14c6.11,0,9.55,1.9,12.46,5.58l7.59-6.94c-4.63-6.58-12.69-8.6-20.29-8.6-17.02,0-26.04,9.31-26.04,27.05s8.07,27.17,25.92,27.17c8.19,0,16.19-2.08,20.52-5.1v-25.56h-21.12v9.85Z"/><path class="cls-1" d="M80.93,67.41c-2.05-3.46-4.67-6.42-7.86-8.88-3.39-2.62-7.17-4.44-11.3-5.54-3.43-.91-6.92-1.1-10.44-.84-3.97,.29-7.74,1.39-11.29,3.18-5.4,2.73-9.68,6.68-12.8,11.86-3.28,5.43-4.77,11.34-4.5,17.68,.16,3.96,1.05,7.75,2.66,11.36,2.05,4.62,5.03,8.54,8.97,11.72,5.73,4.62,12.3,6.91,19.66,6.95,.49,0,.98,.02,1.47,0,3.22-.14,6.34-.78,9.36-1.9,3.6-1.34,6.84-3.27,9.72-5.8,2.92-2.56,5.29-5.55,7.1-8.98,1.8-3.4,2.94-7,3.41-10.82,.42-3.39,.31-6.76-.36-10.11-.7-3.51-1.96-6.8-3.79-9.88Zm-24.78,1.96v26.45q0,.4,.41,.4c1.67,0,3.34,0,5.01,0h.37v2.68h-9.03v-29.52h3.24Zm25.1,15.89c-.15,1.37-.26,2.75-.53,4.09-.94,4.7-3,8.86-6.14,12.48-2.42,2.79-5.29,5-8.61,6.63-2.62,1.28-5.38,2.11-8.28,2.49-2.1,.28-4.21,.31-6.31,.1-2.57-.26-5.05-.88-7.44-1.86-4.14-1.71-7.66-4.28-10.53-7.72-2.9-3.47-4.83-7.43-5.78-11.85-.58-2.73-.75-5.49-.49-8.28,.61-6.47,3.19-12.05,7.71-16.71,3.34-3.44,7.35-5.8,11.96-7.12,2.2-.63,4.45-.94,6.73-1.01,.07,0,.14,0,.22,.01v2.26c-.09,0-.2,.02-.3,.02-5.25,.23-9.97,1.92-14.12,5.13-3.04,2.34-5.4,5.26-7.1,8.7-1.16,2.35-1.93,4.83-2.3,7.43-.33,2.27-.34,4.55-.04,6.84,.46,3.53,1.62,6.8,3.48,9.83,2.3,3.73,5.37,6.66,9.2,8.77,2.35,1.3,4.85,2.18,7.5,2.64,2.42,.42,4.84,.5,7.28,.18,6.52-.86,11.86-3.85,16.04-8.91,2.62-3.17,4.29-6.8,5.12-10.82,.12-.58,.2-1.17,.3-1.8h-16.89v-3h19.3c0,.5,.04,.99,0,1.47Zm-34.81-13.02c0,2.11-1.67,3.81-3.76,3.81-2.08,0-3.78-1.71-3.78-3.8,0-2.09,1.72-3.82,3.79-3.8,2.09,.02,3.76,1.7,3.76,3.79Z"/></g></g></svg>