<?xml version="1.0" encoding="UTF-8"?><svg id="Capa_2" xmlns="http://www.w3.org/2000/svg" viewBox="0 0 369.49 166.95"><defs><style>.cls-1{fill:#fff;}</style></defs><g id="Capa_1-2"><g><path class="cls-1" d="M132.79,59.74c-7.1,0-12.33,2.7-15.22,7.67v-5.96h-10.28v46.98h10.28v-25.34c0-8.59,2.99-14.79,11.32-14.79s9.23,6.29,9.23,12.76v27.37h11.74v-29.91c0-11.35-4.94-18.78-17.07-18.78Z"/><polygon class="cls-1" points="197 59.99 184.65 59.99 167.48 78.64 167.48 43.84 157.2 43.84 157.2 108.43 167.48 108.43 167.48 92.94 172.39 87.45 186.99 108.43 198.99 108.43 179.21 79.89 197 59.99"/><path class="cls-1" d="M224.39,79.55l-6.92-1.38c-4.27-.81-6.54-2.52-6.54-5.79s4.36-5.33,9.08-5.33c5.44,0,9.53,1.72,10.71,6.15l10.17,.03c-2-9.76-10.72-14.37-20.25-14.37-10.53,0-19.88,5.51-19.88,14.05s6.45,12.48,14.71,14.19l7.35,1.45c4.82,1,8.45,2.72,8.45,6.7s-4.09,6.32-9.8,6.32c-6.45,0-9.99-2.76-10.97-7.83h-10.54c1.18,9.12,9.17,16,21.16,16,11.08,0,20.7-5.61,20.7-15.74,0-9.49-7.53-12.57-17.43-14.47Z"/><path class="cls-1" d="M265.46,94.95l-11.09-34.97h-11.8l17.6,47.99-.54,1.16c-2.16,6.28-4.14,6.64-8.83,6.64h-4.05v8.81h4.87c11.01,0,14.2-3.35,18.83-15.94l17.19-48.65h-11.09l-11.09,34.97Z"/><path class="cls-1" d="M310.83,79.55l-6.92-1.38c-4.26-.81-6.54-2.52-6.54-5.79s4.36-5.33,9.08-5.33c5.44,0,9.53,1.72,10.71,6.15l10.17,.03c-1.99-9.76-10.71-14.37-20.24-14.37-10.54,0-19.88,5.51-19.88,14.05,0,8.95,6.44,12.48,14.71,14.19l7.35,1.45c4.81,1,8.44,2.72,8.44,6.7s-4.08,6.32-9.8,6.32c-6.41,0-9.99-2.76-10.97-7.83h-10.54c1.18,9.12,9.17,16,21.16,16,11.08,0,20.71-5.61,20.71-15.74,0-9.49-7.54-12.57-17.43-14.47Z"/><polygon class="cls-1" points="51.5 43.84 41.23 43.84 41.23 108.43 99.95 108.43 99.95 98.15 51.5 98.15 51.5 43.84"/><path class="cls-1" d="M92.3,42.37h-.01c-4.67,0-8.46,3.79-8.45,8.47,0,4.67,3.79,8.46,8.47,8.45,4.67,0,8.46-3.79,8.45-8.47,0-4.67-3.79-8.45-8.45-8.45Z"/><polygon class="cls-1" points="72.06 45.31 60.31 45.31 60.31 81.6 60.31 90.64 60.31 90.81 99.95 90.81 99.95 82 72.06 82 72.06 45.31"/></g></g></svg>