<?xml version="1.0" encoding="UTF-8"?><svg id="Capa_2" xmlns="http://www.w3.org/2000/svg" viewBox="0 0 369.49 166.95"><defs><style>.cls-1{fill:#fff;}.cls-2{fill:none;}</style></defs><g id="Capa_1-2"><g><rect class="cls-2" width="369.49" height="166.95" rx="11.08" ry="11.08"/><g><path class="cls-1" d="M301.99,102.03h-10.86V39.52h10.74v22.11c.68-.32,1.04-.42,1.31-.63,6.26-5.01,13.2-5.72,20.32-2.49,6.97,3.17,9.65,9.35,9.81,16.63,.18,8.43,.06,16.86,.06,25.3,0,.47-.08,.94-.15,1.56h-10.68c-.05-.88-.15-1.73-.15-2.59-.01-6.49,0-12.97-.01-19.46,0-.97-.01-1.95-.09-2.92-.52-6.45-3.85-9.66-9.88-9.56-6.2,.11-10.27,3.98-10.37,10.17-.12,7.21-.03,14.43-.04,21.65,0,.87,0,1.74,0,2.74Z"/><path class="cls-1" d="M240.63,84.52h-33.96c1.46,10.13,13.18,11.7,23.94,3.52,2.36,2.41,4.71,4.81,7.27,7.43-1.21,.99-2.59,2.36-4.18,3.4-7.21,4.71-15.08,5.83-23.3,3.49-11.32-3.22-17.45-14.07-15.34-26.64,1.91-11.4,11.77-19.37,23.55-19.03,11.78,.34,20.42,8.64,21.68,20.89,.22,2.16,.22,4.34,.34,6.94Zm-11.78-9.17c-1.28-5.92-5.75-9.19-11.83-8.89-5.65,.27-9.99,3.87-10.62,8.89h22.45Z"/><path class="cls-1" d="M149.78,58.56c0,2.29,.21,4.89-.12,7.42-.11,.82-1.59,1.47-2.62,2.35,2.77,4.67,3.79,9.95,2.85,15.6-2.09,12.64-13.36,20.83-26.62,19.32-12.44-1.42-21.39-12.09-20.65-24.62,.75-12.63,11.12-22.28,24-21.87,7.63,.24,15.25,1.17,23.15,1.81Zm-10.71,21.51c0-7.16-5.46-12.67-12.6-12.69-7.11-.02-12.69,5.55-12.67,12.65,.02,7.09,5.62,12.73,12.65,12.73,7.11,0,12.62-5.54,12.63-12.68Z"/><path class="cls-1" d="M51.29,79.99c.03-13.22,10.39-23.35,23.84-23.31,13.44,.04,23.79,10.28,23.73,23.45-.06,13.2-10.45,23.36-23.88,23.32-13.43-.03-23.72-10.23-23.69-23.47Zm23.7-12.6c-7.14,.05-12.58,5.61-12.49,12.77,.09,7.15,5.67,12.68,12.72,12.6,7.09-.08,12.62-5.73,12.54-12.81-.08-7.13-5.66-12.61-12.77-12.56Z"/><path class="cls-1" d="M286.62,65.46c-2.5,2.52-4.89,4.92-7.5,7.55-3.68-3.98-8.08-6.39-13.73-5.39-3.09,.55-5.58,2.11-7.49,4.59-3.94,5.12-3.3,12.9,1.42,17.3,5.38,5.01,12.37,4.24,19.69-2.16,2.36,2.51,4.71,5.02,7.21,7.68-3.02,5.79-14.02,9.81-23.12,7.99-10.38-2.08-17.98-10.49-18.83-20.84-.88-10.71,5.1-20.23,15.01-23.95,9.82-3.68,21.45-.64,27.34,7.24Z"/><path class="cls-1" d="M176.23,67.87h-5.89v-9.72c1.87-.09,3.69-.18,5.77-.28v-13.27h11.09v13.38h5.85v9.86h-5.77v34.19h-11.06v-34.16Z"/><path class="cls-1" d="M36.1,39.45h10.71v62.56h-10.71V39.45Z"/><path class="cls-1" d="M102.57,105.22h11.09c.4,4.36,1.92,8.37,5.94,10.45,2.34,1.21,5.22,1.98,7.83,1.93,6.32-.12,10.37-4.59,11.75-12.3h11.04c-.28,8.07-3.37,14.6-10.04,19.01-8.47,5.58-17.44,5.85-26.23,.84-7.49-4.27-11.01-11.1-11.39-19.93Z"/><path class="cls-1" d="M154.78,58.13h10.64v43.9h-10.64V58.13Z"/><path class="cls-1" d="M159.92,38.23c4.27-.05,7.45,3.06,7.44,7.29,0,4.09-3.12,7.17-7.28,7.21-4.08,.04-7.3-3.11-7.34-7.17-.03-4.09,3.09-7.28,7.18-7.32Z"/></g></g></g></svg>