<?xml version="1.0" encoding="UTF-8"?><svg id="Capa_2" xmlns="http://www.w3.org/2000/svg" viewBox="0 0 369.49 166.95"><defs><style>.cls-1{fill:#fff;}</style></defs><g id="Capa_1-2"><g><path class="cls-1" d="M81.37,91.71c.96,1.59,1.87,3.07,2.75,4.57,.28,.48,.67,.65,1.2,.64,.81-.01,1.63,0,2.64,0-.38,1.26-.7,2.3-1.02,3.36h-13.74l-1.05-3.2c.97-.04,1.81-.1,2.65-.09,.65,0,1.07-.22,1.4-.8,.84-1.47,1.73-2.9,2.69-4.49-6.42-10.57-12.85-21.16-19.36-31.88q-.12,.91,.09,1.58c3.61,11.11,7.22,22.22,10.84,33.34,.48,1.47,.96,2.94,1.42,4.41,.11,.36,.18,.73,.3,1.2h-2.47c-4.53-13.99-9.06-27.97-13.66-42.16-.39,1.23-.47,37.69-.15,39.46,3.87-.18,7.75-.37,11.7-.55l.96,3.37c-11.27,.2-22.18,2.18-33.33,4.21,.42-1.4,.8-2.57,1.14-3.76,.14-.5,.46-.66,.94-.73,3.3-.47,6.59-.97,9.89-1.46,.66-.1,1.32-.21,1.95-.3,.29-1.57,.25-38.3-.08-39.6-.21,.58-.39,1-.53,1.43-4.64,14.33-9.33,28.65-13.88,43.01-.58,1.82-1.71,2.32-3.51,2.71,5.09-15.57,10.11-30.95,15.14-46.33l-.3-.14c-8.96,15.12-17.92,30.25-26.89,45.37l.18,.24c3.93-1.72,8-2.95,12.46-3.83-.56,1.75-1.02,3.29-1.58,4.8-.12,.33-.62,.55-.97,.76-1.12,.66-2.3,1.23-3.37,1.96-1.16,.79-1.95,1.88-1.95,3.46H12.64c-.22-.92,.17-1.69,.61-2.42,10.13-16.96,20.27-33.92,30.41-50.89,1.64-2.74,3.24-5.49,4.91-8.21,.56-.9,.84-1.81,.78-2.87-.05-.86-.01-1.73-.01-2.77,1.12-.02,2.11-.05,3.1-.07,1.01-.01,2.02,0,3.24,0,.02,1.08,.06,2.08,.04,3.07-.02,.75,.18,1.39,.57,2.04,7.73,12.77,15.43,25.56,23.14,38.34,.17,.29,.36,.56,.63,.98,.29-.36,.54-.61,.72-.92,7.77-12.86,15.54-25.73,23.27-38.61,.33-.54,.45-1.25,.51-1.9,.08-.91,.02-1.83,.02-2.72,1.08-.36,4.65-.41,6.34-.08,0,.87,.05,1.78-.01,2.68-.07,1.01,.22,1.86,.74,2.73,10.55,17.67,21.08,35.36,31.62,53.04,1.21,2.03,2.47,4.04,3.7,6.06,.45,.75,.82,1.53,.72,2.52h-11.24c-.22-2.79-2.3-4-4.48-4.96-1.38-.61-2.16-1.43-2.46-2.88-.2-.98-.61-1.92-1.01-3.13,4.43,.82,8.49,2.06,12.52,3.7-1.99-3.89-4.29-7.58-6.49-11.33-2.23-3.79-4.48-7.57-6.72-11.35-2.24-3.78-4.48-7.57-6.72-11.35-2.22-3.75-4.45-7.5-6.68-11.25l-.34,.16c4.98,15.26,9.97,30.52,14.96,45.81-2,0-2.73-.49-3.26-2.13-4.64-14.33-9.28-28.66-13.93-42.99-.17-.54-.38-1.07-.62-1.73-.36,1.16-.46,37.42-.15,39.54,4.15,.62,8.34,1.25,12.62,1.89l1.33,4.31c-5.63-.92-11.08-1.87-16.55-2.69-5.49-.83-11.01-1.33-16.74-1.43,.29-1.13,.54-2.09,.82-3.2,3.96-.26,7.88,.28,11.91,.42V58.25c-1.49,3.36-2.49,6.9-3.65,10.39-1.17,3.53-2.3,7.07-3.44,10.61-1.13,3.49-2.24,6.99-3.37,10.48-1.14,3.53-2.3,7.06-3.46,10.65h-2.61c4.43-13.62,8.81-27.09,13.19-40.56l-.31-.14c-6.46,10.64-12.93,21.28-19.45,32.03Zm.48,5.1c-.54-1.15-.95-2.08-1.83-2.81-.55,.97-1.31,1.71-1.47,2.81h3.3Z"/><path class="cls-1" d="M153.41,55.27c-.04-.3-.08-.49-.08-.67,0-.19,.03-.38,.04-.54,.28-.33,6.47-.43,9.79-.19,3.5,7.65,7.03,15.35,10.55,23.06l.33,.03c3.62-7.66,7.11-15.37,10.74-23.09h9.65v1.42c-.66,.1-1.28,.15-1.89,.28-1.73,.35-2.29,1.01-2.41,2.75-.03,.48-.03,.97-.02,1.45,.19,7.25,.39,14.49,.59,21.73,0,.24,.02,.48,.05,.72,.22,1.81,.81,2.45,2.58,2.8,.52,.1,1.04,.14,1.69,.23l.09,1.47h-14.47v-1.43c.76-.14,1.42-.24,2.07-.37,1.08-.21,1.69-.9,1.86-1.96,.08-.52,.13-1.06,.13-1.59-.01-6.96-.04-13.92-.06-20.88,0-.23-.04-.47-.07-.8-.68,.2-.72,.8-.91,1.22-2.69,6.04-5.37,12.09-8.05,18.14-1.08,2.43-2.15,4.85-3.22,7.25-1.24,.18-1.26,.19-1.72-.93-2.58-6.2-5.15-12.4-7.72-18.59-.76-1.83-1.52-3.66-2.28-5.48-.14-.34-.33-.66-.65-1.29-.11,.8-.21,1.26-.23,1.72-.25,5.79-.5,11.58-.72,17.38-.04,.96,0,1.93,.07,2.9,.14,1.82,.71,2.48,2.47,2.89,.65,.15,1.32,.24,2.14,.38l.13,1.43h-12.17v-1.4c.54-.12,1.1-.23,1.65-.36,1.48-.34,2.37-1.28,2.58-2.78,.32-2.25,.65-4.49,.84-6.75,.41-4.96,.75-9.92,1.09-14.89,.06-.81-.03-1.64-.09-2.45-.11-1.4-.92-2.18-2.26-2.45-.66-.13-1.32-.24-2.1-.37Z"/><path class="cls-1" d="M278.28,85.49v1.22h-11.74c-.04-.22-.1-.4-.1-.59,0-.19,.04-.37,.06-.52,.12-.09,.19-.16,.27-.19,.18-.06,.38-.09,.56-.13,2.33-.51,2.62-.83,2.64-3.18,.02-3.91,0-7.83,0-11.74,0-.19,0-.39-.01-.58-.09-1.69-.4-2.1-1.98-2.59-.23-.07-.47-.13-.76-.21-.04-.15-.11-.33-.13-.51-.02-.19,.02-.38,.04-.6,2.73-.62,5.45-1.24,8.34-1.9,.06,1.14,.12,2.25,.19,3.59,.58-.37,.97-.61,1.36-.86,.93-.61,1.82-1.28,2.79-1.82,4.28-2.43,8.94-.23,9.79,4.63,.17,.99,.24,2.02,.25,3.03,.03,3.04,.01,6.09,.02,9.13,0,.53,0,1.07,.05,1.59,.12,1.18,.47,1.57,1.64,1.89,.41,.11,.83,.21,1.29,.32v1.21c-.22,.05-.41,.12-.59,.12-3.53,0-7.05,0-10.72,0l-.11-1.18c.19-.12,.26-.19,.35-.22,2.17-.64,2.41-.89,2.43-3.09,.03-3.38,.02-6.77,0-10.15,0-.62-.11-1.25-.27-1.85-.58-2.15-2.34-3.25-4.52-2.84-.47,.09-.94,.24-1.38,.42-2.27,.93-2.45,1.21-2.45,3.62,0,3.38,0,6.77,.01,10.15,0,.53,.03,1.06,.08,1.59,.12,1.32,.39,1.62,1.69,2,.28,.08,.55,.15,.92,.26Z"/><path class="cls-1" d="M304.76,87.39c-6.83-.03-11.73-4.79-11.68-11.36,.05-6.96,5.22-12.15,12.09-12.13,6.58,.02,11.48,4.92,11.46,11.45-.02,7.1-4.92,12.06-11.87,12.03Zm-5.48-12.89c.19,2.73,.58,5.02,1.38,6.98,.52,1.27,1.2,2.43,2.31,3.28,2.09,1.59,4.81,1.03,6.06-1.28,.32-.59,.56-1.24,.71-1.89,.84-3.75,.8-7.49-.32-11.17-.34-1.13-.92-2.26-1.67-3.17-1.97-2.37-5.04-2.13-6.71,.46-.41,.64-.79,1.36-.95,2.1-.35,1.54-.55,3.12-.81,4.68Z"/><path class="cls-1" d="M264.84,83.37l.41,1.12c-.12,.14-.19,.27-.3,.34-1.18,.66-2.36,1.31-3.55,1.95-1.8,.97-3.59,.55-4.77-1.14-.24-.35-.45-.73-.72-1.18-1.07,.67-2.1,1.27-3.09,1.94-2.09,1.41-4.2,1.3-6.24,0-2.17-1.39-3.19-3.43-2.98-6.03,.11-1.39,.78-2.5,1.98-3.19,.91-.52,1.91-.91,2.89-1.3,2.02-.79,4.05-1.55,6.09-2.3,.94-.34,1.44-.92,1.25-1.96-.21-1.13-.31-2.29-.64-3.38-.29-.96-1.06-1.6-2.04-1.91-1.32-.41-2.54-.01-3.24,1.23-.49,.87-.82,1.85-1.17,2.79-.49,1.32-.83,1.67-1.85,1.71-1.14,.04-2.39-.76-2.78-1.74-.27-.68-.07-1.26,.38-1.73,.46-.48,.99-.93,1.55-1.29,1.99-1.29,4.13-2.31,6.4-3,4.42-1.35,8.54,1.49,8.76,6.11,.13,2.84,.04,5.69,.06,8.54,0,.87-.03,1.75,.08,2.6,.25,1.87,1.02,2.35,2.89,1.92,.14-.03,.28-.04,.62-.09Zm-9.04-8.76c-1.71,.88-3.16,1.53-4.52,2.34-1.79,1.06-2.32,3.15-1.39,5.05,1.03,2.12,3.8,2.65,5.52,1.04,.19-.18,.36-.48,.37-.73,.03-2.45,.02-4.91,.02-7.7Z"/><path class="cls-1" d="M331.21,73.82c.41,.65,.76,1.22,1.12,1.78,1.21,1.86,2.45,3.71,3.63,5.59,1.32,2.1,2.79,3.98,5.58,4.17,.03,.48,.05,.85,.08,1.33h-12.01l-.09-1.1c.18-.12,.25-.19,.34-.22,1.82-.69,1.93-.93,.95-2.54-.95-1.56-1.93-3.09-3.06-4.88-1.17,1.96-2.25,3.66-3.22,5.43-.45,.83-.17,1.33,.71,1.7,.35,.15,.72,.26,1.12,.4v1.23h-9.53l-.07-1.14c.19-.11,.27-.19,.36-.2,2.6-.32,4.36-1.91,5.87-3.88,1.23-1.61,2.46-3.22,3.71-4.86-.18-.36-.3-.67-.47-.94-1.35-2.17-2.75-4.32-4.06-6.52-1.02-1.71-2.32-2.95-4.38-3.2-.14-.02-.26-.1-.45-.18v-1.19h11.34v1.14c-.09,.07-.15,.16-.23,.19-1.78,.73-1.83,.86-.81,2.47,.77,1.22,1.56,2.43,2.45,3.82,.34-.41,.63-.69,.85-1.02,.66-1.01,1.31-2.03,1.92-3.07,.75-1.28,.62-1.56-.81-2.05-.18-.06-.36-.14-.58-.23-.04-.17-.1-.35-.11-.54-.01-.19,.03-.38,.05-.51,.29-.36,6.45-.45,9.2-.18l.06,1.21c-.32,.09-.54,.18-.77,.2-2.19,.2-3.76,1.43-5.06,3.06-1.23,1.54-2.41,3.13-3.65,4.74Z"/><path class="cls-1" d="M201.25,74.45c.18,3.33,.96,6.24,3.92,7.92,3.29,1.87,6.33,.86,9.22-1.3l.73,.99c-2.56,4.08-7.22,6.11-11.63,5.03-4.08-.99-6.45-3.72-7.39-7.71-1.37-5.86,1.59-11.9,7.01-14.5,3.79-1.82,7.87-1.07,10.4,1.95,1.22,1.45,1.93,3.11,1.88,5.04-.03,1.11-.3,1.5-1.42,1.64-1.82,.22-3.65,.35-5.48,.48-2.12,.14-4.24,.22-6.37,.34-.23,.01-.46,.06-.88,.12Zm.3-2.42c2.54,0,4.95,.02,7.35-.01,.71,0,1.04-.51,.98-1.17-.08-.76-.17-1.54-.41-2.26-.47-1.38-1.26-2.52-2.85-2.75-1.65-.24-2.77,.62-3.63,1.89-.86,1.26-1.28,2.68-1.43,4.31Z"/><path class="cls-1" d="M242.51,85.49v1.21h-12.56l-.09-1.22c.66-.15,1.22-.26,1.77-.41,.86-.23,1.46-.74,1.56-1.68,.07-.62,.16-1.25,.16-1.87,.01-7.63,0-15.25,0-22.88,0-.05,0-.1,0-.14-.07-3.11-.42-3.62-3.31-4.66v-1l8.82-1.73c.02,.58,.04,1.14,.04,1.69,0,9.27,0,18.54,0,27.8,0,.82,0,1.64,.11,2.45,.18,1.46,.54,1.8,1.94,2.12,.47,.11,.94,.2,1.53,.32Z"/><path class="cls-1" d="M216.36,85.49c.63-.15,1.09-.25,1.56-.36,1.37-.33,1.8-.79,1.91-2.16,.07-.82,.09-1.64,.09-2.46,0-6.91,0-13.81,0-20.72,0-.77-.02-1.55-.08-2.32-.11-1.33-.51-1.74-1.84-2.01-.42-.08-.84-.16-1.31-.25l-.05-1.1,8.82-1.75c.02,.57,.06,1.13,.06,1.68,0,8.88,0,17.77,0,26.65,0,.77-.02,1.55,.06,2.32,.14,1.36,.6,1.83,1.95,2.14,.46,.11,.93,.2,1.46,.32v1.23h-12.52l-.12-1.21Z"/><path class="cls-1" d="M299.27,103.26v-2.57c-.58-.03-1.09-.07-1.6-.09-.48-.02-.97,0-1.45-.02-.46-.03-.76-.3-.66-.75,.06-.26,.38-.65,.59-.66,1.45-.06,2.89-.04,4.34-.02,.46,0,.69,.33,.69,.77,0,1.21,.01,2.41-.05,3.61-.04,.63-.43,1.07-1.09,1.18-.57,.09-1.14,.22-1.71,.23-2.03,.03-4.05,.01-6.08,.01-.24,0-.48,0-.72-.02-1.71-.2-2.09-.59-2.11-2.29-.03-1.98-.03-3.96,.01-5.93,.03-1.45,.51-1.92,1.93-1.94,2.61-.03,5.21,0,7.82,0,.19,0,.39,0,.58,.03,.92,.16,1.46,.76,1.41,1.55-.04,.66-.2,.74-1.39,.79-.44-.34-.78-.82-1.13-.83-2.36-.07-4.71-.04-7.03-.04-.4,1.18-.46,5.37-.09,7.01,2.52,.2,5.08,.2,7.74-.01Z"/><path class="cls-1" d="M276.85,94.77c1.35,0,2.7-.02,4.05,0,1.51,.03,2,.5,2.03,2,.04,2.07,.04,4.15,0,6.22-.03,1.28-.3,1.56-1.58,1.84-.37,.08-.76,.12-1.14,.13-2.27,.01-4.53,0-6.8,0-.1,0-.19,0-.29,0-2.27-.27-2.52-.61-2.5-2.66,.02-1.78-.01-3.57,.01-5.35,.02-1.66,.52-2.15,2.17-2.17,1.35-.02,2.7,0,4.05,0Zm-4.03,1.59c-.11,.18-.2,.26-.21,.34-.04,1.92-.09,3.84-.09,5.76,0,.75,.58,.93,1.21,.93,2.02,0,4.04,.03,6.06,0,1.1-.02,1.25-.19,1.27-1.29,.03-1.49,.02-2.98,0-4.47,0-.41-.1-.82-.15-1.26h-8.09Z"/><path class="cls-1" d="M243.69,94.76c1.3,0,2.6-.01,3.91,0,1.67,.02,2.19,.51,2.22,2.13,.03,1.98,.03,3.95,0,5.93-.02,1.36-.3,1.69-1.6,1.98-.47,.1-.95,.14-1.43,.15-2.12,.02-4.24,0-6.36,0-.19,0-.39,0-.58,0-1.91-.14-2.32-.56-2.34-2.5-.02-1.73-.02-3.47,0-5.2,.02-2.1,.39-2.46,2.44-2.48,.05,0,.1,0,.14,0,1.21,0,2.41,0,3.62,0Zm-4.13,1.59c-.07,.27-.16,.45-.16,.63-.02,1.78-.04,3.56-.01,5.34,.01,.85,.22,1.03,1.2,1.05,2.02,.04,4.04,.04,6.06,0,1.04-.02,1.27-.25,1.29-1.31,.04-1.59,.02-3.17-.01-4.76,0-.31-.16-.62-.25-.95h-8.12Z"/><path class="cls-1" d="M341.38,103.27v-2.65c-.61-.08-1.16-.2-1.71-.21-1.69-.03-3.38,0-5.07-.03-1.83-.04-2.15-.39-2.18-2.27,0-.53-.02-1.06,.02-1.59,.08-1.14,.59-1.71,1.72-1.73,2.37-.05,4.74-.04,7.1,0,.91,.01,1.56,.49,1.63,1.15,.03,.32-.12,.77-.35,.98-.33,.31-.84,.36-1.1-.16-.29-.59-.8-.66-1.34-.66-1.59-.02-3.19-.04-4.78,.02-.42,.02-1.1,.27-1.19,.55-.17,.56-.09,1.24,.07,1.82,.05,.19,.65,.32,1.01,.33,1.74,.03,3.48,.01,5.22,.02,.39,0,.78-.02,1.16,.05,.77,.14,1.41,.55,1.48,1.38,.09,1.05,.1,2.11,.02,3.16-.05,.73-.53,1.23-1.32,1.33-.52,.07-1.05,.19-1.57,.19-1.74,.02-3.48,.03-5.22,0-.62-.01-1.24-.13-1.86-.26-.65-.13-.96-.59-1.02-1.24-.04-.46,0-.91,.52-1.07,.44-.14,.84-.1,1.07,.43,.1,.22,.4,.49,.62,.5,2.3,.12,4.61,.17,7.08-.04Z"/><path class="cls-1" d="M221.42,97.89c0,1.68,0,3.36,0,5.04,0,.43,0,.87-.02,1.3-.02,.46-.28,.7-.74,.7-.45,0-.74-.17-.8-.64,0-.05-.02-.1-.02-.14,.02-2.99,.04-5.98,.07-8.97,0-.08,.09-.16,.15-.26,.81-.43,1.36,.09,1.91,.55,2.17,1.84,4.34,3.69,6.51,5.53,.35,.3,.72,.57,1.29,1.02,.09-.62,.19-.97,.19-1.33,.01-1.5,0-2.99,0-4.49,0-.33-.04-.73,.11-.99,.13-.23,.52-.4,.8-.41,.21,0,.51,.25,.61,.46,.12,.24,.07,.57,.07,.85,0,2.51,.02,5.02-.01,7.53,0,.4-.08,.95-.35,1.15-.5,.39-.99-.02-1.41-.37-2.36-2-4.71-4-7.07-5.99-.31-.26-.65-.5-.97-.75l-.33,.19Z"/><path class="cls-1" d="M192.73,97.86l-.28-1.53c-2.22-.15-4.46-.06-6.8-.05-.07,.61-.16,1.08-.17,1.55-.02,1.3-.02,2.61,0,3.91,.02,1.44,.19,1.62,1.56,1.65,1.4,.03,2.8,.03,4.2,0,1.19-.03,1.24-.11,1.37-1.34,.02-.23,.08-.46,.11-.68,1.35-.03,1.67,.09,1.72,.81,.09,1.27,.07,2.33-1.07,2.51-2.87,.45-5.76,.44-8.64,0-.73-.11-1.09-.67-1.1-1.35-.04-2.32-.06-4.64,0-6.95,.02-1.03,.63-1.58,1.69-1.6,2.46-.04,4.93-.06,7.39,0,1.42,.03,2.22,1.43,1.65,2.71-.2,.44-.41,.49-1.65,.36Z"/><path class="cls-1" d="M169.9,100.32c-.24,.27-.29,.3-.3,.35-.49,2.41-.23,2.73,2.17,2.73,1.5,0,2.99,0,4.49,0,.34,0,.71-.06,1,.07,.25,.11,.5,.43,.56,.7,.1,.44-.16,.73-.63,.78-.19,.02-.39,.02-.58,.02-2.56,0-5.12,.01-7.68,0-1.23,0-1.32-.09-1.33-1.32-.02-2.51-.02-5.02,0-7.53,0-1.24,.09-1.32,1.32-1.33,2.56-.02,5.12,0,7.68,0,.1,0,.19,0,.29,0,.47,0,.91,.06,.88,.68-.03,.52-.45,.57-.85,.57-1.35,0-2.7,0-4.06,.01-.43,0-.87,0-1.3,0-2.2,0-2.48,.41-1.78,2.81,.64,0,1.35,0,2.06,0,.63,0,1.26-.05,1.88,.05,.24,.04,.54,.38,.61,.64,.11,.44-.17,.74-.64,.76-.72,.02-1.45,.02-2.17,.02-.57,0-1.15,0-1.61,0Z"/><path class="cls-1" d="M210.89,100.32c-1.11,0-2.11,0-3.12,0-1.16,0-2.32-.01-3.48,0-1.26,.02-1.37,.13-1.41,1.44-.03,.77-.02,1.54-.02,2.32,0,.6-.3,.87-.9,.87-.57,0-.94-.18-.95-.81,0-3.03,0-6.06,0-9.04,1.55-.55,1.81-.4,1.85,.95,.02,.58,.01,1.16,.03,1.74,.01,.69,.33,1.06,1.07,1.05,2.03-.02,4.06-.02,6.08,0,.76,0,1.02-.41,1.04-1.08,.02-.68,.03-1.35,.03-2.03,0-.66,.29-.96,.97-.96,.72,0,.9,.39,.9,1.01,0,2.75,0,5.5,0,8.25,0,.57-.21,.91-.84,.93-.64,.02-1.02-.2-1.02-.89,0-.68,.01-1.35-.02-2.03-.03-.51-.12-1.03-.21-1.71Z"/><path class="cls-1" d="M318.09,98.84c1.04,0,1.94,0,2.85,0,.34,0,.68,0,1.01,.02,.44,.03,.73,.24,.72,.73,0,.48-.29,.7-.73,.71-.87,.02-1.74,0-2.61,.02-.37,0-.75,.07-1.06,.1-.11,.17-.19,.24-.2,.33-.32,2.55-.24,2.64,2.3,2.64,1.64,0,3.29,0,4.93,0,.43,0,.89-.02,1.05,.54,.16,.59-.13,.97-.86,.99-1.11,.04-2.22,.01-3.33,.01-1.64,0-3.29,.02-4.93,0-.95-.02-1.11-.15-1.12-1.1-.03-2.66-.03-5.31,0-7.97,.01-.95,.17-1.09,1.12-1.1,2.61-.02,5.22-.01,7.83,0,.47,0,1.08-.06,1.04,.66-.04,.69-.66,.59-1.12,.59-1.55,.02-3.09,0-4.64,0-.34,0-.68,0-1.01,0-1.18,.06-1.33,.21-1.34,1.37,0,.38,.05,.76,.1,1.43Z"/><path class="cls-1" d="M158.4,96.33c-.06,.74-.14,1.36-.15,1.97-.02,1.83,.02,3.67-.04,5.5-.01,.37-.22,.9-.5,1.06-.68,.4-1.34-.04-1.36-.85-.03-1.93-.01-3.86-.01-5.79,0-.57,0-1.14,0-1.89-.99-.03-1.84-.05-2.68-.08-.48-.01-.98,.06-1.44-.06-.23-.06-.52-.46-.52-.7,0-.24,.31-.53,.55-.68,.18-.11,.47-.04,.71-.04,2.94,0,5.88,0,8.83,0,.19,0,.39,0,.58,.01,.46,.03,.7,.26,.7,.74,0,.47-.25,.72-.71,.73-.82,.02-1.64,0-2.46,.02-.43,0-.86,.04-1.5,.07Z"/><path class="cls-1" d="M256.42,99.85c0-1.3,0-2.61,0-3.91,0-.62,.02-1.18,.88-1.17,.77,0,.97,.19,.98,1.23,.02,1.88,0,3.76,.01,5.65,.02,1.59,.16,1.73,1.75,1.75,1.45,.02,2.9,0,4.34,0,.34,0,.68,0,1.01,.03,.46,.04,.69,.29,.69,.76,0,.47-.23,.73-.69,.75-.58,.02-1.16,.02-1.74,.02-1.98,0-3.96,.01-5.94,0-1.22-.01-1.29-.08-1.3-1.34-.02-1.25,0-2.51,0-3.76Z"/><path class="cls-1" d="M307.8,94.93c.46-.08,.69-.15,.92-.15,.96,0,1.1,.11,1.11,1.06,.03,1.44,0,2.88,0,4.32,0,1.35,0,2.69-.01,4.04,0,.64-.46,.76-.99,.76-.52,0-1.02-.06-1.03-.72-.02-3.07,0-6.13,0-9.31Z"/><path class="cls-1" d="M344.02,69.96c-1.64-.02-2.94-1.24-2.96-2.76-.02-1.59,1.3-2.77,3.07-2.75,1.7,.02,2.95,1.17,2.95,2.72,0,1.58-1.35,2.82-3.06,2.79Zm.13-.43c1.38-.03,2.42-1.04,2.4-2.36-.01-1.34-1.19-2.43-2.57-2.39-1.34,.05-2.41,1.12-2.41,2.4,0,1.36,1.12,2.37,2.58,2.34Z"/><path class="cls-1" d="M343.12,65.87c.84-.22,1.45-.42,1.9,.41,.22,.37-.07,1.44,.09,2.18-.39-.38-.85-1.07-1.46-1.06-.25,.58-.25,.72-.4,1.07l-.14-.05v-2.55Zm1.55,.62c0-.32-.67-.65-1.1-.18-.1,.11-.08,.54,.04,.63,.46,.35,1.09,.08,1.06-.44Z"/></g></g></svg>