<?xml version="1.0" encoding="UTF-8"?><svg id="Capa_2" xmlns="http://www.w3.org/2000/svg" viewBox="0 0 369.49 166.95"><defs><style>.cls-1{fill:#fff;}.cls-2{fill:none;}</style></defs><g id="Capa_1-2"><g><rect class="cls-2" x="0" width="369.49" height="166.95" rx="11.08" ry="11.08"/><path class="cls-1" d="M218.41,67.83v3.03c0,.57-.47,1.02-1.03,1-.86-.03-2.06-.08-2.8-.09-4.12,0-6.39,2.46-6.39,6.92v11.06c0,.55-.45,1-1,1h-3.62c-.55,0-1-.45-1-1v-22.21c0-.55,.45-1,1-1h3.44c.55,0,1,.45,1,1v1.42c1.65-1.71,4.28-2.63,7.52-2.63,.54,0,1.22,.08,1.69,.14,.67,.09,1.18,.67,1.18,1.35Zm-36.99,9.36c-.2-.25-.17-.61,.05-.83l8.9-8.74c.4-.39,.12-1.07-.44-1.07h-5.18c-.25,0-.49,.09-.67,.26l-10.02,9.19c-.4,.37-1.05,.08-1.05-.46v-8c0-.55-.45-1-1-1h-3.62c-.55,0-1,.45-1,1v22.21c0,.55,.45,1,1,1h3.61c.55,0,1-.45,1-1l-.03-5.15c0-.28,.11-.55,.32-.74l3.12-2.89c.26-.25,.68-.22,.91,.07l7.53,9.35c.19,.23,.47,.37,.78,.37h5.19c.52,0,.81-.6,.49-1.01l-9.9-12.56Zm-29.51-10.64h-3.62c-.55,0-1,.45-1,1v22.21c0,.55,.45,1,1,1h3.62c.55,0,1-.45,1-1v-22.21c0-.55-.45-1-1-1Zm129.52,0h-21.83c-.55,0-1,.45-1,1v3.23c0,.55,.45,1,1,1h7.42c.34,0,.62,.28,.62,.62v17.36c0,.55,.45,1,1,1h3.74c.55,0,1-.45,1-1v-17.36c0-.34,.28-.62,.62-.62h7.42c.55,0,1-.45,1-1v-3.23c0-.55-.45-1-1-1Zm-30.37,12.1c0,7.16-5.27,12.36-12.53,12.36s-12.57-5.2-12.57-12.36,5.29-12.32,12.57-12.32,12.53,5.18,12.53,12.32Zm-5.65,0c0-4.32-2.77-7.22-6.88-7.22s-6.92,2.97-6.92,7.22,2.85,7.27,6.92,7.27,6.88-2.99,6.88-7.27Zm52.89-12.1h-3.61c-.55,0-1,.45-1,1v22.21c0,.55,.45,1,1,1h3.61c.55,0,1-.45,1-1v-22.21c0-.55-.45-1-1-1Zm-175.54-.21c-3.26,0-6.19,1.12-8.19,3.11-.27,.27-.68,.25-.93-.04-1.71-1.99-4.34-3.07-7.51-3.07-2.9,0-5.38,.86-7.09,2.45v-1.25c0-.55-.45-1-1-1h-3.44c-.55,0-1,.45-1,1v22.21c0,.55,.45,1,1,1h3.62c.55,0,1-.45,1-1v-11.45c0-4.32,2.21-6.79,6.07-6.79,3.4,0,5.12,1.98,5.12,5.89v12.35c0,.55,.45,1,1,1h3.62c.55,0,1-.45,1-1v-11.45c0-4.32,2.21-6.79,6.06-6.79,3.4,0,5.12,1.98,5.12,5.89v12.35c0,.55,.45,1,1,1h3.62c.55,0,1-.45,1-1v-12.82c0-6.74-3.66-10.6-10.05-10.6Zm214.95,23.41l-9.9-12.56c-.2-.25-.17-.61,.05-.83l8.9-8.74c.4-.39,.12-1.07-.44-1.07h-5.18c-.25,0-.49,.09-.67,.26l-10.02,9.19c-.4,.37-1.04,.08-1.04-.46v-8c0-.55-.45-1-1-1h-3.61c-.55,0-1,.45-1,1v22.21c0,.55,.45,1,1,1h3.61c.55,0,1-.45,1-1l-.03-5.15c0-.28,.11-.55,.32-.74l3.12-2.89c.26-.24,.68-.22,.91,.07l7.53,9.35c.19,.24,.47,.37,.78,.37h5.19c.52,0,.81-.6,.49-1.01ZM73.35,65.53c-.07-.15-.14-.3-.21-.43-.08-.13-.17-.26-.28-.39-.55-.67-1.44-1.33-2.58-1.96l-9.17-5.03-9.17-5.03c-1.14-.63-2.19-1.03-3.07-1.14-.17-.02-.34-.03-.49-.03-.98,0-2.21,.43-3.57,1.18l-9.17,5.03-9.17,5.03c-1.14,.63-2.03,1.28-2.58,1.96-.11,.13-.2,.26-.28,.39-.08,.13-.15,.27-.21,.43-.34,.79-.5,1.84-.5,3.09v20.11c0,1.49,.22,2.71,.71,3.52,.49,.81,1.5,1.6,2.86,2.34l9.17,5.03,9.17,5.03c1.14,.62,2.19,1.03,3.07,1.14,.17,.02,.34,.04,.49,.04s.32-.01,.49-.04c.89-.11,1.93-.52,3.07-1.14l18.34-10.05c1.36-.74,2.37-1.54,2.86-2.34,.08-.13,.15-.27,.21-.43,.34-.79,.5-1.85,.5-3.09v-20.11c0-1.25-.16-2.31-.5-3.09Zm-35.76,23.59c0,.46-.49,.75-.89,.53l-3.28-1.8c-.77-.42-1.25-1.23-1.25-2.11v-9.72c0-.46,.49-.75,.89-.53l3.91,2.14c.39,.21,.63,.62,.63,1.06v10.43Zm26.99-3.38c0,.88-.48,1.69-1.25,2.12l-3.28,1.8c-.4,.22-.89-.07-.89-.53v-12.87c0-.46-.49-.75-.89-.53l-5.93,3.25c-.77,.42-1.25,1.23-1.25,2.11v12.77c0,.44-.24,.85-.63,1.06l-.93,.51c-.72,.4-1.6,.39-2.32,0l-.92-.51c-.39-.21-.63-.62-.63-1.06v-12.77c0-.88-.48-1.69-1.25-2.11l-12.25-6.71v-.63c0-.88,.48-1.69,1.25-2.11l1.35-.74c.72-.4,1.59-.4,2.32,0l10.13,5.55c.72,.4,1.6,.4,2.32,0l4.68-2.57c.42-.23,.42-.83,0-1.06l-10.52-5.77c-.42-.23-.42-.83,0-1.06l3.52-1.93c.72-.4,1.6-.4,2.32,0l13.8,7.56c.77,.42,1.25,1.23,1.25,2.12v14.12Z"/></g></g></svg>