<?xml version="1.0" encoding="UTF-8"?><svg id="Capa_2" xmlns="http://www.w3.org/2000/svg" viewBox="0 0 369.49 166.95"><defs><style>.cls-1{fill:#fff;}.cls-2{fill:none;}</style></defs><g id="Capa_1-2"><g><rect class="cls-2" x="0" width="369.49" height="166.95" rx="11.08" ry="11.08"/><g><path class="cls-1" d="M53.24,60.6h-2.81c-1.68,0-2.62,.93-2.62,2.62v27.98l-19.07-28.86c-.69-1.25-1.62-1.74-3.12-1.74h-3.37c-1.68,0-2.56,.93-2.56,2.62v39.67c0,1.75,.87,2.62,2.56,2.62h2.87c1.68,0,2.56-.87,2.56-2.62v-28.63l19.13,29.5c.69,1.25,1.68,1.75,3.05,1.75h3.37c1.68,0,2.62-.87,2.62-2.62V63.22c0-1.68-.93-2.62-2.62-2.62Z"/><path class="cls-1" d="M91.47,98.58h-18.77v-12.55h13.28c1.68,0,2.62-.87,2.62-2.62v-1.75c0-1.68-.93-2.56-2.62-2.56h-13.28v-11.59h17.78c1.68,0,2.62-.87,2.62-2.56v-1.75c0-1.68-.93-2.62-2.62-2.62h-23.2c-1.68,0-2.56,.93-2.56,2.62v39.67c0,1.75,.87,2.62,2.56,2.62h24.2c1.68,0,2.62-.87,2.62-2.62v-1.74c0-1.68-.93-2.56-2.62-2.56Z"/><path class="cls-1" d="M134.75,60.6h-31.79c-1.75,0-2.62,.93-2.62,2.62v1.75c0,1.68,.87,2.56,2.62,2.56h11.9v35.36c0,1.75,.87,2.62,2.56,2.62h2.8c1.75,0,2.62-.87,2.62-2.62v-35.36h11.9c1.68,0,2.56-.87,2.56-2.56v-1.75c0-1.68-.87-2.62-2.56-2.62Z"/><path class="cls-1" d="M149.78,73c0-2.99,2.62-4.99,6.73-4.99,3.43,0,5.86,1.37,7.67,2.43,1.31,.69,2.62,.93,3.55-.87l1.12-2.06c.75-1.37,.56-2.56-.81-3.55-1.87-1.37-6.17-3.37-11.41-3.37-8.41,0-14.9,5.05-14.9,12.84,0,13.77,20.63,12.03,20.63,20.44,0,2.99-2.49,5.05-6.61,5.05-4.36,0-7.54-2.24-8.98-3.24-1.56-.87-2.62-.81-3.62,.56l-1.37,1.99c-1.25,1.68-.62,2.74,.37,3.61,2.18,1.68,7.29,4.49,13.59,4.49,9.29,0,14.65-5.92,14.65-13.09,0-14.09-20.63-11.97-20.63-20.26Z"/><path class="cls-1" d="M212.98,95.56c-1-1.43-2.24-1.43-3.61-.44-2.06,1.5-5.86,3.86-10.85,3.86-9.54,0-14.9-7.54-14.9-15.83s5.17-15.21,14.83-15.21c4.55,0,8.04,1.87,9.97,3.12,1.5,.94,2.68,.81,3.55-.62l1.12-1.81c.87-1.37,.81-2.62-.5-3.61-2.37-1.68-7.23-4.43-14.46-4.43-13.4,0-22.81,9.85-22.81,22.69s8.98,23.06,22.87,23.06c7.85,0,13.15-3.49,15.64-5.49,1.25-1.06,1.31-2.37,.37-3.61l-1.25-1.68Z"/><path class="cls-1" d="M304.35,60.6h-2.87c-1.68,0-2.56,.93-2.56,2.62v26.43c0,5.98-3.93,9.35-9.85,9.35s-9.79-3.37-9.79-9.35v-26.43c0-1.68-.87-2.62-2.62-2.62h-2.8c-1.68,0-2.56,.93-2.56,2.62v26.49c0,9.91,7.11,16.64,17.83,16.64s17.76-6.73,17.76-16.64v-26.49c0-1.68-.87-2.62-2.56-2.62Z"/><path class="cls-1" d="M347.23,60.6h-31.79c-1.75,0-2.62,.93-2.62,2.62v1.75c0,1.68,.87,2.56,2.62,2.56h11.9v35.36c0,1.75,.87,2.62,2.56,2.62h2.81c1.75,0,2.62-.87,2.62-2.62v-35.36h11.9c1.68,0,2.56-.87,2.56-2.56v-1.75c0-1.68-.87-2.62-2.56-2.62Z"/><path class="cls-1" d="M241.24,60.6h-17.3c-2.03,0-3.68,1.65-3.68,3.68s1.65,3.68,3.68,3.68h16.49c-.07,0-.13,.02-.2,.02,.33-.02,.67-.04,1.01-.04,8.48,0,14.58,6.61,14.58,15.21s-6.11,15.83-14.58,15.83-14.58-6.86-14.58-15.83c0-5.36,2.38-9.95,6.22-12.64-.06,.04-.12,.07-.17,.11h-5.18c-1.68,0-3.08-1.13-3.52-2.66-3.56,3.98-5.63,9.29-5.63,15.19,0,13.03,9.47,23.19,22.87,23.19s22.87-10.16,22.87-23.19-9.47-22.56-22.87-22.56Z"/><polygon class="cls-1" points="224 67.96 224 67.97 224 67.97 224 67.96 224 67.96"/><path class="cls-1" d="M227.52,70.63h5.18c.05-.04,.12-.08,.17-.11,2.07-1.45,4.57-2.35,7.36-2.53,.07,0,.13-.02,.2-.02h-16.44c.44,1.54,1.84,2.67,3.52,2.67Z"/><path class="cls-1" d="M349.75,102.29c0,1.78-1.4,3.18-3.21,3.18s-3.23-1.4-3.23-3.18,1.43-3.14,3.23-3.14,3.21,1.4,3.21,3.14Zm-5.64,0c0,1.4,1.03,2.51,2.45,2.51s2.39-1.11,2.39-2.49-1.01-2.53-2.41-2.53-2.43,1.13-2.43,2.51Zm1.93,1.65h-.73v-3.14c.29-.06,.69-.1,1.2-.1,.59,0,.86,.1,1.09,.23,.17,.13,.31,.38,.31,.69,0,.34-.27,.61-.65,.73v.04c.31,.11,.48,.34,.57,.76,.1,.48,.15,.67,.23,.78h-.78c-.1-.11-.15-.4-.25-.76-.06-.34-.25-.5-.65-.5h-.34v1.26Zm.02-1.78h.34c.4,0,.73-.13,.73-.46,0-.29-.21-.48-.67-.48-.19,0-.33,.02-.4,.04v.9Z"/></g></g></g></svg>