<?xml version="1.0" encoding="UTF-8"?><svg id="Capa_2" xmlns="http://www.w3.org/2000/svg" viewBox="0 0 369.49 166.95"><defs><style>.cls-1{fill:#fff;fill-rule:evenodd;}.cls-2{fill:none;}</style></defs><g id="Capa_1-2"><g><rect class="cls-2" x="0" width="369.49" height="166.95" rx="11.08" ry="11.08"/><g><path class="cls-1" d="M296.39,103.22c-.16,.14-.37,.21-.59,.21h-11.45c-.36,0-.72-.19-.86-.52-.17-.37-.08-.82,.24-1.08l20.89-17.6c.42-.35,.47-.97,.12-1.39-.04-.04-.07-.08-.12-.12l-20.86-17.71c-.25-.22-.4-.55-.34-.87,.08-.45,.46-.76,.9-.76h11.02c.21,0,.42,.07,.59,.21l22.74,19.13,.21,.18c.32,.27,.36,.76,.09,1.08-.02,.02-.04,.05-.07,.07l-.22,.21-22.27,18.97Z"/><path class="cls-1" d="M73.13,63.67h-6.99c-.84,0-1.52,.69-1.52,1.52v22.58c0,.53-.62,.82-1.03,.47l-25.86-22.51c-1.76-1.53-3.68-2.31-5.7-2.31-1.78,0-4.78,.73-4.78,5.6v32.67c0,.84,.68,1.52,1.52,1.52h6.98c.84,0,1.52-.68,1.52-1.52v-22.67c0-.34,.28-.62,.62-.62,.15,0,.29,.05,.41,.15l26.13,22.85c1.62,1.44,3.38,2.17,5.23,2.17s4.98-.76,4.98-5.86v-32.51c0-.84-.68-1.52-1.52-1.52m51.1,0h-8.12c-.5,0-.9,.4-.9,.9v26.44c0,2.18-2.7,3.28-8.04,3.28h-11.04c-5.44,0-8.2-1.1-8.2-3.28v-26.44c0-.5-.4-.9-.91-.9h-8.22c-.5,0-.91,.4-.91,.9v26.85c0,1.86,.32,3.47,.93,4.78,.61,1.29,1.44,2.41,2.47,3.31,1.04,.9,2.23,1.6,3.52,2.08,1.3,.49,2.64,.85,4.01,1.09,1.37,.25,2.8,.4,4.24,.45,1.4,.05,2.73,.08,3.96,.08h8.99c6.6,0,11.29-.91,14.36-2.79,3.17-1.94,4.77-4.96,4.77-9v-26.85c0-.5-.41-.9-.91-.9m47.47,6.98v-5.2c0-1.01-.82-1.82-1.82-1.82h-39.72c-1.01,0-1.82,.82-1.82,1.82v5.2c0,1.01,.82,1.83,1.83,1.83h13.89c.51,0,.92,.41,.92,.92v27.99c0,1.01,.82,1.82,1.82,1.82h6.38c1.01,0,1.83-.82,1.83-1.83v-27.99c0-.51,.41-.92,.92-.92h13.95c1.01,0,1.82-.82,1.83-1.82h0m10.41,12.69l5.09-7.31c.18-.27,.55-.33,.82-.15,.06,.04,.11,.09,.15,.14l5.15,7.26c.16,.23,.11,.55-.12,.71-.09,.06-.19,.09-.29,.09h-10.39c-.26,0-.48-.21-.48-.48,0-.1,.03-.19,.09-.27Zm11.2-17c-1.37-1.91-3.18-2.88-5.38-2.88s-3.97,.99-5.34,2.94l-24.5,35.38c-.23,.34-.22,.79,.07,1.12,.18,.21,.46,.31,.74,.31h9.63c.31,0,.59-.16,.76-.41l6.15-9.47c.13-.21,.36-.33,.61-.33,0,0,20.51,0,23.62,0,.25,0,.47,.12,.61,.33l6.29,9.48c.17,.25,.45,.41,.75,.41h9.24c.33,0,.64-.18,.8-.48,.16-.3,.14-.65-.05-.93l-24.01-35.45Zm72.27-2.68h-7.18c-.79,0-1.43,.64-1.43,1.43v22.89c0,.29-.23,.52-.52,.52-.13,0-.25-.05-.34-.13l-26.02-22.65c-1.76-1.53-3.68-2.31-5.71-2.31-1.78,0-4.78,.73-4.78,5.6v32.76c0,.79,.64,1.43,1.43,1.43h7.18c.79,0,1.43-.64,1.43-1.43v-22.98c0-.29,.23-.52,.52-.52,.13,0,.25,.05,.34,.13l26.29,22.99c1.62,1.44,3.38,2.17,5.23,2.17s4.98-.76,4.98-5.86v-32.61c0-.79-.64-1.43-1.43-1.43m13.75,0h-8.22c-.5,0-.91,.4-.91,.9v37.73c0,.5,.4,.91,.91,.91h8.22c.5,0,.91-.41,.91-.91v-37.73c0-.5-.41-.9-.91-.9m42.84,16.51c.37,.31,.9,.31,1.27,0l18.24-15.16c.25-.22,.4-.55,.34-.87-.08-.44-.46-.76-.9-.76h-11.02c-.21,0-.42,.07-.59,.21l-12.8,10.43c-.41,.35-.47,.97-.12,1.38,.03,.04,.07,.08,.11,.12l5.46,4.65Zm-.06,6.63c.37-.31,.9-.31,1.27,0l18.51,15.12c.25,.21,.4,.55,.34,.87-.08,.45-.47,.76-.9,.76h-11.02c-.21,0-.42-.07-.59-.21l-12.72-10.59c-.41-.35-.47-.97-.12-1.38,.03-.04,.07-.08,.11-.12l5.11-4.45Z"/></g></g></g></svg>