<?xml version="1.0" encoding="UTF-8"?><svg id="Capa_2" xmlns="http://www.w3.org/2000/svg" viewBox="0 0 369.49 166.95"><defs><style>.cls-1{fill:#fff;}.cls-2{fill:none;}</style></defs><g id="Capa_1-2"><g><rect class="cls-2" x="0" width="369.49" height="166.95" rx="11.08" ry="11.08"/><g><path class="cls-1" d="M159.84,64.29c-4.28,0-8.73,1.17-14.23,4.11l3.06,7.56c4.78-2.67,8.73-3.84,11.62-3.84,3.28,0,4.73,1.22,4.73,2.84v.11c0,1.11-.89,1.72-3.06,1.95l-3.78,.39c-9.45,1-13.34,5.12-13.34,10.79v.39c0,5.39,4.45,9.62,10.73,9.62,4.14,0,7.73-1.75,9.92-4.83l.7,4.27h8.56v-19.41c0-9.17-5.28-13.96-14.9-13.96m-.83,26.52c-3.17,0-4.67-1.22-4.67-3.11v-.11c0-1.67,.95-2.89,4.39-3.39l1.5-.22c2.19-.31,3.54-.71,4.78-1.46v2.46c0,3.73-2.34,5.84-6,5.84"/><polygon class="cls-1" points="79.33 64.51 68.37 53.55 57.42 64.51 62.87 69.96 35.4 97.43 46.35 108.38 57.31 97.43 51.86 91.98 79.33 64.51"/><rect class="cls-1" x="18.78" y="65.02" width="38.84" height="15.49" transform="translate(-40.26 48.33) rotate(-45)"/><rect class="cls-1" x="57.09" y="81.42" width="38.84" height="15.49" transform="translate(-40.64 80.22) rotate(-45)"/><rect class="cls-1" x="180.3" y="53.17" width="9.73" height="44.48"/><path class="cls-1" d="M128.48,64.29c-4.42,0-7.98,1.96-9.93,5.02l-.74-4.47h-8.56v43.93h9.73v-15.23c1.85,2.86,5.36,4.66,9.51,4.66,7.78,0,14.12-6.89,14.12-16.4v-1.11c0-9.51-6.34-16.4-14.12-16.4m4.11,17.24c0,5-2.61,8.62-6.95,8.62s-6.95-3.61-6.95-8.62v-.56c0-5,2.61-8.62,6.95-8.62s6.95,3.61,6.95,8.62v.56Z"/><path class="cls-1" d="M321.31,64.29c-9.95,0-16.96,6.89-16.96,16.4v1.11c0,9.51,7.01,16.4,16.96,16.4s16.96-6.89,16.96-16.4v-1.11c0-9.51-7.01-16.4-16.96-16.4m6.95,17.24c0,5-2.61,8.62-6.95,8.62s-6.95-3.61-6.95-8.62v-.56c0-5,2.61-8.62,6.95-8.62s6.95,3.61,6.95,8.62v.56Z"/><path class="cls-1" d="M347.44,66.29v-.17c0-.95-.72-1.61-2-1.61h-2.22v5.12h1.06v-1.72h1.17l.88,1.72h1.17l-1.09-2.02c.66-.2,1.03-.69,1.03-1.31m-3.17-.83h1.17c.67,0,.95,.22,.95,.72v.06c0,.44-.28,.72-.95,.72h-1.17v-1.5Z"/><path class="cls-1" d="M345.22,61.78c-3,0-5.28,2.28-5.28,5.28s2.28,5.28,5.28,5.28,5.28-2.28,5.28-5.28-2.28-5.28-5.28-5.28m0,9.84c-2.61,0-4.5-1.89-4.5-4.56s1.89-4.56,4.5-4.56,4.5,1.89,4.5,4.56-1.89,4.56-4.5,4.56"/><rect class="cls-1" x="265.98" y="53.17" width="9.73" height="44.48"/><path class="cls-1" d="M294.9,90.14c-2.84,0-3.89-1.39-3.89-4.39v-13.4h11.45v-7.51h-11.45v-7.51l-9.73,1.45v27.91c0,7.62,3.89,11.51,11.68,11.51,3.45,0,7.51-1.06,10.84-2.95l-2.78-6.89c-1.95,1.06-4.67,1.78-6.12,1.78"/><path class="cls-1" d="M245.52,64.29c-4.28,0-8.73,1.17-14.23,4.11l3.06,7.56c4.78-2.67,8.73-3.84,11.62-3.84,3.28,0,4.73,1.22,4.73,2.84v.11c0,1.11-.89,1.72-3.06,1.95l-3.78,.39c-9.45,1-13.34,5.12-13.34,10.79v.39c0,5.39,4.45,9.62,10.73,9.62,4.14,0,7.73-1.75,9.92-4.83l.7,4.27h8.56v-19.41c0-9.17-5.28-13.96-14.9-13.96m-.83,26.52c-3.17,0-4.67-1.22-4.67-3.11v-.11c0-1.67,.95-2.89,4.39-3.39l1.5-.22c2.19-.31,3.54-.71,4.78-1.46v2.46c0,3.73-2.34,5.84-6,5.84"/><path class="cls-1" d="M211.33,64.29c-9.95,0-16.96,6.89-16.96,16.4v1.11c0,9.51,7.01,16.4,16.96,16.4s16.96-6.89,16.96-16.4v-1.11c0-9.51-7.01-16.4-16.96-16.4m6.95,17.24c0,5-2.61,8.62-6.95,8.62s-6.95-3.61-6.95-8.62v-.56c0-5,2.61-8.62,6.95-8.62s6.95,3.61,6.95,8.62v.56Z"/><polygon class="cls-1" points="251.15 105.53 253.65 105.53 257.09 110.07 257.12 110.07 257.12 105.53 259.41 105.53 259.41 113.54 257 113.54 253.47 108.89 253.44 108.89 253.44 113.54 251.15 113.54 251.15 105.53"/><polygon class="cls-1" points="262.45 105.53 269.45 105.53 269.54 107.48 264.84 107.48 264.84 108.58 268.53 108.58 268.53 110.35 264.84 110.35 264.84 111.6 269.68 111.6 269.59 113.54 262.45 113.54 262.45 105.53"/><polygon class="cls-1" points="274.55 107.59 271.75 107.59 271.84 105.54 279.67 105.54 279.76 107.59 276.96 107.59 276.96 113.54 274.55 113.54 274.55 107.59"/><polygon class="cls-1" points="281.69 105.53 284.26 105.53 285.56 111.09 285.68 111.09 287.38 105.53 289.72 105.53 291.38 111.09 291.5 111.09 292.79 105.53 295.23 105.53 293.13 113.54 289.98 113.54 288.52 108.71 288.45 108.71 286.97 113.54 283.81 113.54 281.69 105.53"/><path class="cls-1" d="M296.99,109.54c0-2.61,1.77-4.24,4.57-4.24s4.57,1.64,4.57,4.24-1.77,4.24-4.57,4.24-4.57-1.64-4.57-4.24m6.76,0c0-1.38-.8-2.21-2.18-2.21s-2.18,.82-2.18,2.21,.8,2.21,2.17,2.21,2.2-.82,2.2-2.21"/><path class="cls-1" d="M308.74,105.54h4.67c2.13,0,3.17,1.01,3.17,2.87,0,1.28-.53,2.15-1.56,2.56l1.9,2.57h-2.72l-1.48-2.1h-1.58v2.1h-2.4v-8Zm4.36,4.02c.8,0,1.09-.45,1.09-1.05s-.29-1.04-1.09-1.04h-1.96v2.09h1.96Z"/><polygon class="cls-1" points="319.69 105.53 322.09 105.53 322.09 108.49 323.07 108.49 325.42 105.53 328.12 105.53 328.13 105.55 325.06 109.38 328.3 113.53 328.29 113.54 325.49 113.54 323.06 110.46 322.09 110.46 322.09 113.54 319.69 113.54 319.69 105.53"/><path class="cls-1" d="M330.14,113.01v-2.2h.01c1.34,.67,2.64,1.01,3.77,1.01,.86,0,1.29-.21,1.29-.61s-.29-.5-2-.78c-1.87-.3-3.12-.86-3.12-2.47,0-1.5,1.31-2.65,3.89-2.65,1.03,0,2.1,.22,3.1,.64v2.17h-.01c-.95-.54-2.23-.88-3.26-.88-.91,0-1.28,.22-1.28,.58,0,.47,.56,.51,1.97,.75,1.88,.32,3.12,.85,3.12,2.54,0,1.31-.98,2.63-3.81,2.63-1.4,0-2.5-.29-3.67-.74"/></g></g></g></svg>