<?xml version="1.0" encoding="utf-8"?>
<!-- Generator: Adobe Illustrator 26.3.1, SVG Export Plug-In . SVG Version: 6.00 Build 0)  -->
<svg version="1.1" id="Capa_2" xmlns="http://www.w3.org/2000/svg" xmlns:xlink="http://www.w3.org/1999/xlink" x="0px" y="0px"
	 viewBox="0 0 369.5 166.9" style="enable-background:new 0 0 369.5 166.9;" xml:space="preserve">
<style type="text/css">
	.st0{fill:#FFFFFF;}
</style>
<g id="g16" transform="matrix(14.624806,0,0,14.624806,293.75452,1431.5644)">
	<g id="g10">
		<path id="path4" class="st0" d="M-3.4-89.6l-7-3.6v3.2h-1v-4.9l7,3.6v-3.2h1V-89.6L-3.4-89.6z"/>
		<path id="path6" class="st0" d="M-12-91.9c0,0.1-0.1,0.1-0.1,0.2c-0.1,0.1-0.1,0.1-0.2,0.1c-0.1,0-0.2,0.1-0.3,0.1H-17l-1.9-1v2.6
			h-1l0-3.8c0-0.1,0-0.2,0.1-0.3c0-0.1,0.1-0.1,0.1-0.2c0.1-0.1,0.1-0.1,0.2-0.1c0.1,0,0.2-0.1,0.3-0.1h6.6c0.1,0,0.2,0,0.3,0.1
			c0.1,0,0.1,0.1,0.2,0.1c0.1,0.1,0.1,0.1,0.1,0.2c0,0.1,0.1,0.2,0.1,0.3v1.6C-11.9-92.1-12-92-12-91.9L-12-91.9L-12-91.9z
			 M-12.9-93.4h-6v0.9h6L-12.9-93.4L-12.9-93.4z"/>
		<path id="path8" class="st0" d="M1.4-92l0,2H0.4v-2l-3.4-2.5h1.7l2.2,1.6l2.3-1.6h1.7L1.4-92L1.4-92z"/>
	</g>
	<g id="g14">
		<path id="path12" class="st0" d="M4.6-90.8c0.2,0,0.4,0.2,0.4,0.4C5-90.1,4.8-90,4.6-90s-0.4-0.2-0.4-0.4
			C4.1-90.6,4.3-90.8,4.6-90.8z M4.6-90C4.8-90,5-90.2,5-90.4c0-0.2-0.2-0.4-0.4-0.4s-0.4,0.2-0.4,0.4C4.2-90.2,4.4-90,4.6-90z
			 M4.4-90.7h0.2c0.1,0,0.2,0.1,0.2,0.1s-0.1,0.1-0.1,0.1l0.1,0.2H4.7l-0.1-0.2H4.5v0.2H4.4L4.4-90.7L4.4-90.7z M4.5-90.4L4.5-90.4
			c0.2,0,0.2,0,0.2-0.1c0-0.1-0.1-0.1-0.1-0.1H4.5L4.5-90.4L4.5-90.4z"/>
	</g>
</g>
</svg>
