<?xml version="1.0" encoding="utf-8"?>
<!-- Generator: Adobe Illustrator 26.3.1, SVG Export Plug-In . SVG Version: 6.00 Build 0)  -->
<svg version="1.1" id="Capa_2" xmlns="http://www.w3.org/2000/svg" xmlns:xlink="http://www.w3.org/1999/xlink" x="0px" y="0px"
	 viewBox="0 0 369.5 166.9" style="enable-background:new 0 0 369.5 166.9;" xml:space="preserve">
<style type="text/css">
	.st0{fill:none;}
	.st1{fill:#FFFFFF;}
</style>
<g id="Capa_1-2">
	<g>
		<path class="st0" d="M11.1,0h347.3c6.1,0,11.1,5,11.1,11.1v144.8c0,6.1-5,11.1-11.1,11.1H11.1C5,166.9,0,162,0,155.9V11.1
			C0,5,5,0,11.1,0z"/>
	</g>
</g>
<g id="en_us-SanDisk_logo_white" transform="matrix(0.37081127,0,0,0.37081127,79.160778,297.49273)">
	<path id="Path_28" class="st1" d="M253.5-668.5h-29.4c-2.3,1.8-3.6,4.6-3.4,7.5c0,6.3,3.4,7.7,3.4,7.7h26.2
		c37.9,0,61.7,25.3,61.7,75.1c0,53.6-23.5,76.9-65.2,76.9h-16.8c-2.4-0.4-4.3-2.2-4.6-4.6V-584c0-25.8-17.7-40-46.4-40
		c-19.3,0-33.1,8.7-40.9,23.4v-16.2c0.2-1.9-1.2-3.6-3.1-3.8c-0.2,0-0.4,0-0.6,0H85.8c-2.1,2.1-3.2,4.8-3.2,7.7
		c-0.2,2.9,1,5.6,3.2,7.5h10.9c3.4,0.4,5.9,3.2,5.9,6.6v92.9c-0.4,2.3-2.2,4.1-4.5,4.3H87.7l-4.8,13.3h69.3c1.7-1.9,2.6-4.4,2.4-7
		c0.2-2.4-0.7-4.7-2.4-6.4H144c-2.3,0-4.1-1.8-4.2-4.1V-578c6.8-18.5,20.1-29.4,31-29.4c10.3,0,16.9,7.7,16.9,19.4v81.4
		c0.2,2.5-1.6,4.8-4.1,5.1h-9.9c-1.9,1.6-2.9,4-2.7,6.4c-0.1,2.6,0.9,5.1,2.8,7h81.5c81.2,0,102.1-48.6,102.1-90.2
		C357.2-643.4,312-668.5,253.5-668.5L253.5-668.5z"/>
	<path id="Path_29" class="st1" d="M71-501.4c-8.8-0.9-9.8-6.1-9.9-11.9v-71.1c0-10.3-3.6-22.4-12.4-29.7
		c-10.9-9.2-26.8-11.5-40.7-11.5c-15.8-0.4-31.6,2-46.5,7c-1.7,0.6-2.1,2.2-2.1,4.3v19.6c-0.1,1.4,1,2.6,2.4,2.7c0,0,0.1,0,0.1,0
		h7.7c1.8-0.1,3.4-1.1,4.3-2.6c3.7-5,8.4-9.2,13.6-12.4c5-2.8,10.6-4.3,16.3-4.5c14.7,0,21,10.7,21,23.2v19.8
		c-55.8-3.2-78.7,13.2-78.7,39.5c0,30.1,20.6,42.6,41,42.6c18.5,0,32.3-7,40.1-17.8c1.6,9.4,7.2,15.9,14.5,15.9h29.1l4.7-13.3
		L71-501.4L71-501.4z M24.6-521.1c-5.6,7.4-15,13.7-24.8,13.7c-12.9,0-20.1-6.4-20.1-20.6c0-16.5,7.7-25.5,44.8-25.5V-521.1
		L24.6-521.1z"/>
	<path id="Path_30" class="st1" d="M446.9-501.5h-15.3c-1.8,0.2-3.4-1.1-3.6-2.9c0-0.2,0-0.4,0-0.6v-110.6c0-3.1-1.1-5.1-4.8-5.1
		h-47.3c-1.9,2-3,4.7-3.1,7.5c0.1,2.8,1.2,5.5,3.1,7.5H389c1,0,1.7,0.7,1.7,2v98.4c0,2-1.6,3.6-3.5,3.8h-15.2c-1.9,1.6-3,4-2.8,6.5
		c0,2.6,1,5,2.8,6.9h75c1.6-2,2.4-4.5,2.4-7C449.5-497.6,448.6-499.9,446.9-501.5L446.9-501.5L446.9-501.5z"/>
	<path id="Path_31" class="st1" d="M-133.8-603.4c-25.9-8.9-31.2-16.4-31.2-26.9c0-11.4,10.5-22.8,33.1-22.8
		c8.5,0.2,16.7,2.8,23.8,7.5c4.8,3,9.7,7.7,15.3,17.4c0.6,0.9,1.5,1.6,2.6,1.8h8.2c1.2,0,1.6-0.9,1.6-2.2v-30.6
		c0-1.6-1.1-3.1-2.7-3.5c-16.2-5.2-33.2-7.7-50.2-7.4c-36.9,0-61.6,20.9-61.6,53c0,32,23.9,44.7,55.2,54.3
		c19.7,6.1,43.1,14.3,43.1,33.7c0,11.5-10.6,24.9-31.9,24.9c-16.4,0-27.1-5.7-33.3-12.2c-7.4-7-13.4-15.3-17.8-24.5
		c-0.6-1.6-1.6-2.9-3-2.9h-9.5c-1.3,0-2.3,0.9-2.3,2.9v35.8c0,1.7,0.8,3.3,2.2,4.3c18.4,10.3,42.5,14.5,62.5,14.4
		C-94.5-486.5-67-510-67-547.7C-67-588.2-104.2-593.2-133.8-603.4L-133.8-603.4z"/>
	<path id="Path_32" class="st1" d="M522-571.9c-27.2-6.5-32.7-11.3-32.7-20.9c0-8.1,7-16.7,21.2-16.7c13.3,0.2,25.7,7,33.1,18
		c0.7,1.3,2.2,2.1,3.6,1.9h6.6c1,0,1.8-0.8,1.8-1.8v-23.5c0.1-1.7-0.9-3.3-2.6-3.7c-14-3.6-28.5-5.4-43-5.1
		c-22.8,0-47.7,13.1-47.7,41.3c0,24.1,19.5,37.3,36.2,41.8c28.4,7.7,36.7,11.8,36.7,23.9c0,10.5-8.2,16.9-22.6,16.9
		S485-510.4,477-529.2c-1.3-1.9-2-2.6-3.3-2.6h-9.1c-1.2-0.1-2.3,0.9-2.4,2.1c0,0.2,0,0.3,0,0.5v27.7c0,2.1,2.9,4.4,2.9,4.4
		c5.6,3.3,11.4,6.1,17.5,8.2c9.7,3.3,20,4.9,30.3,4.7c33.5,0,49.7-20.9,49.7-45.2C562.7-551.5,550.2-565.1,522-571.9L522-571.9
		L522-571.9z"/>
	<path id="Path_33" class="st1" d="M393.6-639.2h33.7c1.6,0.2,3.2-0.8,3.7-2.4l7.7-24.2c0.6-2-0.7-3-2.6-3h-35.3
		c-1.5,0-2.9,1.1-3.1,2.6l-6.5,22.3C390.1-641.4,391.4-639.2,393.6-639.2L393.6-639.2z"/>
	<path id="Path_34" class="st1" d="M729.2-501.4c-8,0-14.1-2.4-17.6-7.7c-1.6-2.4-43.7-66.6-44.5-68.1c10.6-14.7,16.2-20.1,25.5-25
		c8.3-3.7,17.2-5.6,26.3-5.7c0,0,2.1-1.6,2.1-6.3c0.2-2.4-0.6-4.7-2.2-6.5h-42.1c-2.1,0.2-4,1.4-5.1,3.3c-0.9,1.4-34,49-42.8,61.6
		v-108.2c0.2-2.4-1.6-4.5-4.1-4.7c-0.2,0-0.4,0-0.7,0h-52.7c-1.8,1.7-2.7,4.1-2.6,6.5c0,2.6,0.9,5.1,2.6,7h17.1c2.1,0,3,1,3,3.1
		v147.4c0,2.1-1,3.1-2.6,3.1h-16.2c-1.7,1.8-2.6,4.1-2.6,6.6c0,2.5,0.9,5,2.6,6.9H643c1.3-2.1,1.9-4.5,2-6.9c0-2.3-0.6-4.6-2-6.4
		h-11.6c-1.6,0-2.8-1.4-2.8-2.9v-34.2c3.3-3.4,9.3-9.6,10.1-10.3c1.1-1.5,3.2-1.7,4.7-0.6c0.4,0.3,0.7,0.7,0.9,1.1
		c1.4,2.2,28.2,43.3,28.8,44.4c1.2,2.1,0.5,3-1,3h-8.3c-1.2,2-1.9,4.2-2,6.5c0.1,2.3,0.7,4.5,1.8,6.5h70.3c1.4-1.9,2.1-4.2,2.2-6.5
		c-0.1-2.5-1-4.8-2.6-6.8L729.2-501.4L729.2-501.4z"/>
	<path id="Path_35" class="st1" d="M755.9-604.8v-2c0.1-1.4-0.4-2.9-1.6-3.8c-0.8-0.5-1.6-0.9-2.6-0.9c1.1-0.1,2.1-0.5,3-1.1
		c0.9-0.8,1.3-1.9,1.2-3.1c0.1-1.7-0.8-3.3-2.3-4.1c-1-0.5-2.2-0.8-3.4-0.9h-8.1v17h4.4v-6.1h1.9c0.5,0,1,0.1,1.5,0.3
		c0.6,0.2,1.1,0.7,1.3,1.3c0.2,0.7,0.3,1.4,0.3,2.1c0,0.8,0.1,1.6,0.3,2.4h4.3v-0.5C756.1-604.4,756-604.6,755.9-604.8L755.9-604.8
		L755.9-604.8z M750.7-613.5c-0.8,0.5-1.7,0.7-2.6,0.6h-1.7v-4.9h1.1c0.9,0,1.7,0.1,2.6,0.3s1.4,1.1,1.4,2
		C751.6-614.7,751.3-613.9,750.7-613.5L750.7-613.5L750.7-613.5z"/>
	<path id="Path_36" class="st1" d="M759.7-623.1c-2.8-3-6.8-4.6-10.9-4.5c-3.9-0.1-7.7,1.5-10.5,4.2c-3.1,2.9-4.9,6.9-4.8,11.2
		c-0.1,8.5,6.6,15.6,15.2,15.8c8.5,0.1,15.6-6.6,15.8-15.2C764.5-616,762.8-620.1,759.7-623.1L759.7-623.1L759.7-623.1z
		 M757.7-603.2c-2.3,2.4-5.6,3.7-8.9,3.7c-3.4,0.1-6.6-1.3-8.9-3.7c-4.9-4.9-4.9-12.9,0-17.8c4.7-4.9,12.6-5.1,17.5-0.4
		c0.1,0.1,0.2,0.2,0.4,0.4c2.4,2.3,3.7,5.5,3.6,8.8c0.1,3.4-1.3,6.7-3.7,9.2L757.7-603.2L757.7-603.2z"/>
</g>
</svg>
