<?xml version="1.0" encoding="UTF-8"?><svg id="Capa_2" xmlns="http://www.w3.org/2000/svg" viewBox="0 0 369.49 166.95"><defs><style>.cls-1{fill:#fff;fill-rule:evenodd;}.cls-2{fill:none;}</style></defs><g id="Capa_1-2"><g><rect class="cls-2" x="0" width="369.49" height="166.95" rx="11.08" ry="11.08"/><g><path class="cls-1" d="M141.8,79.72c-.83-.46-1.74-.83-2.72-1.09-.98-.26-1.89-.55-2.73-.87-.83-.33-1.53-.75-2.09-1.27-.56-.52-.84-1.26-.84-2.24,0-.35,.07-.73,.21-1.13,.14-.41,.38-.8,.73-1.16,.34-.36,.81-.65,1.38-.87,.57-.23,1.29-.34,2.16-.34,.91,0,1.72,.18,2.43,.55,.71,.37,1.26,.86,1.65,1.46l2.53-2.3c-.86-1.06-1.87-1.76-3.02-2.11-1.15-.34-2.35-.52-3.6-.52-1.38,0-2.57,.21-3.55,.63-.98,.42-1.79,.95-2.42,1.57-.63,.63-1.09,1.32-1.38,2.08s-.44,1.47-.44,2.14c0,1.49,.28,2.67,.85,3.55,.56,.87,1.26,1.57,2.09,2.09,.83,.52,1.74,.92,2.72,1.22,.98,.29,1.89,.6,2.73,.91,.83,.31,1.53,.7,2.09,1.17,.56,.47,.84,1.14,.84,2.03,0,.63-.14,1.18-.42,1.65-.28,.47-.64,.88-1.09,1.2-.44,.32-.94,.56-1.47,.73-.54,.16-1.07,.24-1.59,.24-.93,0-1.83-.2-2.71-.6-.87-.4-1.59-1.02-2.16-1.86l-2.56,2.2c.78,1.08,1.83,1.88,3.14,2.4,1.32,.52,2.72,.78,4.19,.78,1.1,0,2.14-.16,3.11-.49,.97-.32,1.81-.79,2.53-1.4,.71-.6,1.28-1.35,1.7-2.23,.42-.89,.63-1.89,.63-2.99,0-1.38-.28-2.47-.84-3.26-.56-.79-1.26-1.42-2.09-1.88Z"/><polygon class="cls-1" points="164.77 81.1 175.67 81.1 175.67 78.18 164.77 78.18 164.77 71.33 176.48 71.33 176.48 68.42 161.66 68.42 161.66 91.38 177.07 91.38 177.07 88.45 164.77 88.45 164.77 81.1"/><path class="cls-1" d="M201,68.42l-10.12,22.96h3.64l2.27-5.68h10.93l2.3,5.68h3.63l-9.83-22.96h-2.82Zm-3.11,14.56l4.35-10.54h.07l4.28,10.54h-8.69Z"/><path class="cls-1" d="M240.3,81.45h5.09v6.39c-.69,.39-1.53,.69-2.51,.89-.98,.2-2.02,.31-3.13,.31-1.28,0-2.46-.23-3.54-.7-1.08-.46-2.02-1.11-2.82-1.93-.8-.82-1.43-1.79-1.88-2.9-.45-1.11-.68-2.32-.68-3.62s.2-2.44,.62-3.55c.41-1.11,1-2.08,1.75-2.9,.76-.82,1.67-1.48,2.73-1.96,1.06-.49,2.25-.73,3.57-.73,1.17,0,2.28,.18,3.34,.53,1.06,.36,2.06,.99,3.02,1.9l2.2-2.37c-.91-.92-2.03-1.65-3.37-2.19-1.34-.53-3.07-.79-5.19-.79-1.75,0-3.36,.31-4.83,.93-1.47,.62-2.73,1.46-3.78,2.54-1.05,1.08-1.87,2.36-2.47,3.83-.59,1.47-.89,3.06-.89,4.77s.27,3.16,.83,4.63c.55,1.46,1.35,2.74,2.4,3.84,1.05,1.1,2.34,1.98,3.86,2.63,1.53,.65,3.26,.97,5.21,.97,.69,0,1.43-.05,2.22-.13,.79-.09,1.57-.23,2.34-.41,.77-.18,1.51-.4,2.22-.67,.71-.26,1.35-.56,1.91-.91v-11.32h-8.2v2.92Z"/><path class="cls-1" d="M273.71,68.42l-10.12,22.96h3.63l2.27-5.68h10.93l2.3,5.68h3.63l-9.82-22.96h-2.82Zm-3.12,14.56l4.35-10.54h.06l4.28,10.54h-8.69Z"/><polygon class="cls-1" points="297.21 71.34 304.61 71.34 304.61 91.38 307.72 91.38 307.72 71.34 315.11 71.34 315.11 68.42 297.21 68.42 297.21 71.34"/><polygon class="cls-1" points="333.86 88.45 333.86 81.1 344.75 81.1 344.75 78.18 333.86 78.18 333.86 71.33 345.57 71.33 345.57 68.42 330.75 68.42 330.75 91.38 346.15 91.38 346.15 88.45 333.86 88.45"/><path class="cls-1" d="M107.26,62.27c-1.79-3.19-4.15-5.88-7.09-8.06-2.96-2.19-6.25-3.7-9.82-4.63-4.04-1.05-8.13-1.28-12.26-.92-5.72,.5-11.05,2.35-16.24,4.68-4.48,2.01-8.67,4.53-12.8,7.17-2.69,1.72-5.19,3.67-7.34,6.04-1.94,2.15-3.38,4.55-3.7,7.51-.41,3.75,1.94,6.72,5.69,7.14,2.19,.25,4.27-.24,6.28-1.03,2.91-1.14,5.58-2.73,8.22-4.37,3.46-2.15,6.79-4.5,10.51-6.22,1.4-.65,2.85-1.18,4.44-1.03,2.92,.28,4.39,2.64,3.36,5.36-.58,1.53-1.72,2.65-2.86,3.75-2.16,2.09-4.7,3.65-7.26,5.2-4.35,2.63-8.82,5.03-13.62,6.74-3.22,1.15-6.48,2.14-9.94,2.21-2.51,.05-4.94-.29-7.22-1.43-3.82-1.91-5.77-5.1-6.21-9.25-.41-3.79,.51-7.34,2.23-10.7,1.64-3.2,3.8-6.04,6.36-8.56,4.71-4.64,10-8.51,15.77-11.73,1.34-.75,2.7-1.45,4.08-2.19-.51-1.05-1-2.07-1.52-3.14-1.49,.81-3.08,1.65-4.65,2.54-4.63,2.63-8.94,5.71-13.01,9.13-2.87,2.42-5.54,5.04-7.85,8.01-3.05,3.91-5.51,8.12-6.69,12.99-1.04,4.31-1.13,8.59,.52,12.79,1.06,2.72,2.82,4.92,5.21,6.58,2.64,1.84,5.63,2.76,8.81,3.04,3.79,.33,7.51-.14,11.16-1.21,4.35-1.26,8.62-2.76,12.63-4.86,3.43-1.8,6.74-3.82,10.08-5.78,3.19-1.87,6.07-4.14,8.58-6.87,1.81-1.98,3.35-4.13,4.04-6.79,.6-2.33,.51-4.61-.63-6.77-1.64-3.07-4.33-4.65-7.68-5.21-3.07-.52-6.01,.11-8.85,1.24-2.88,1.15-5.53,2.75-8.16,4.38-3.2,1.99-6.28,4.17-9.7,5.79-1.1,.52-2.22,1.01-3.48,.95-1.8-.09-2.81-1.43-2.43-3.19,.22-1.04,.75-1.92,1.44-2.71,1.26-1.45,2.72-2.69,4.31-3.75,5.44-3.66,11.12-6.89,17.3-9.15,3.36-1.23,6.81-2.02,10.4-2.12,4.04-.12,7.93,.56,11.57,2.4,2.91,1.47,5.3,3.52,7.14,6.22,1.52,2.24,2.51,4.69,2.88,7.37,.45,3.23-.05,6.37-1.07,9.43-1.53,4.61-4.22,8.54-7.44,12.09-4.1,4.53-8.81,8.38-13.86,11.82-4.03,2.75-8.36,4.94-12.84,6.85-1.08,.53-1.89,.91-2.88,1.39,.92,3.48,1.85,7.06,2.81,10.69,1.63-.68,3.17-1.33,4.73-1.97,5.81-2.39,11.19-5.55,16.35-9.11,3.97-2.74,7.49-6,10.97-9.3,3.42-3.25,6.36-6.88,8.86-10.88,1.79-2.87,3.1-5.96,4.07-9.18,1-3.3,1.41-6.7,1.12-10.16-.27-3.28-1.19-6.37-2.8-9.25Z"/></g></g></g></svg>