<?xml version="1.0" encoding="UTF-8"?><svg id="Capa_2" xmlns="http://www.w3.org/2000/svg" viewBox="0 0 369.49 166.95"><defs><style>.cls-1{fill:#fff;fill-rule:evenodd;}.cls-2{fill:none;}</style></defs><g id="Capa_1-2"><g><rect class="cls-2" x="0" width="369.49" height="166.95" rx="11.08" ry="11.08"/><g><path class="cls-1" d="M32.2,72.3c1.82-7.42,10.65-12.3,23.01-13.92l3.82-5.32c-19.04,.5-33.3,6.64-35.83,17.05-1.61,6.62,1.81,13.88,8.78,20.66l3.82-5.34c-3.23-4.41-4.61-8.92-3.59-13.13h0Z"/><path class="cls-1" d="M102.94,60.61l5.08,7.01c16.92,7.99,27.34,19.39,24.97,29.15-1.86,7.62-11.14,12.53-24.04,14.02l-5.98,5.23c20.62,.14,36.35-6.08,39.02-17.06,3.24-13.26-13.58-29.06-39.06-38.35h0Z"/><polygon class="cls-1" points="78.74 26.79 78.74 134.75 126.79 92.1 78.74 26.79 78.74 26.79"/><path class="cls-1" d="M75.77,112.55c.8,.2,1.61,.34,2.4,.53v-4.49c-.45-.1-.91-.18-1.36-.29-18.91-4.59-34.17-13.51-41.02-22.87l-3.82,5.34c9.32,9.05,25.03,17.22,43.79,21.78h0Z"/><path class="cls-1" d="M78.19,108.61v4.48c8.68,1.93,17.08,2.89,24.79,2.93l5.98-5.23c-8.93,1.02-19.6,.37-30.77-2.18h0Z"/><path class="cls-1" d="M180.24,86.23c-.89-.38-1.54-.62-2.93-.62h-6.71c-1.13,0-1.39,.15-1.39,.82v1.06c0,.72,.26,.82,1.39,.82h5.12c3.07,0,4.73,1.07,4.73,3.82v4.6c0,2.98-1.07,4.64-4.52,4.64h-13.02l-.62-3.84c.71,.35,1.42,.71,2.84,.71h6.99c1.12,0,1.35-.12,1.35-.82v-1.31c0-.68-.24-.82-1.35-.82h-5.89c-2.88,0-3.99-.94-3.99-4.11v-4.22c0-2.95,1.45-4.5,3.99-4.5h13.4l.63,3.76h0Z"/><path class="cls-1" d="M193.15,101.38c.36-.74,.6-1.44,.6-3.25v-12.41c0-1.81-.24-2.51-.6-3.26h8.41c-.36,.75-.6,1.45-.6,3.26v12.41c0,1.81,.24,2.51,.6,3.25h-8.41Z"/><path class="cls-1" d="M228.08,98.25c1.69,0,2.51-.26,3.26-.5l-.66,3.63h-16.69c.35-.74,.59-1.44,.59-3.25v-12.41c0-1.81-.24-2.51-.59-3.26h16.39l.59,3.64c-.77-.24-1.59-.5-3.28-.5h-5.89v4.43h5.14c1.66,0,2.49-.27,3.26-.5v4.13c-.77-.24-1.6-.5-3.26-.5h-5.14v5.08h6.27Z"/><path class="cls-1" d="M259.9,82.47h9.68c-.38,.75-.63,1.45-.63,3.26v12.41c0,1.81,.25,2.51,.63,3.25h-8.44c.36-.74,.6-1.44,.6-3.25v-11.64h-.06l-5.24,14.89h-5l-5.09-14.89h-.06v11.49c0,2.13,.09,2.51,.72,3.4h-4.56c.62-.88,.72-1.27,.72-3.4v-12.11c0-2.13-.1-2.51-.72-3.41h9.94l3.61,10.73h.06l3.85-10.73h0Z"/><path class="cls-1" d="M288.9,97.05c0,.91,.48,1.21,1.42,1.21h3.14c.94,0,1.42-.29,1.42-1.21v-10.23c0-.91-.48-1.21-1.42-1.21h-3.14c-.94,0-1.42,.29-1.42,1.21v10.23h0Zm-7.21-9.02c0-4.07,1.72-5.56,4.79-5.56h10.84c3.07,0,4.79,1.48,4.79,5.56v7.8c0,4.08-1.72,5.55-4.79,5.55h-10.84c-3.07,0-4.79-1.47-4.79-5.55v-7.8h0Z"/><path class="cls-1" d="M318.06,85.73h-.06v12.26c0,2.13,.09,2.51,.71,3.4h-4.55c.62-.88,.72-1.27,.72-3.4v-12.11c0-2.13-.1-2.51-.72-3.41h10.15l7.7,15.43h.09v-12.02c0-2.13-.09-2.51-.71-3.41h4.55c-.62,.89-.71,1.28-.71,3.41v15.51h-9.35l-7.81-15.65h0Z"/><path class="cls-1" d="M343.8,77.75l.92,2.7,.92-2.7h1.05v3.77h-.67v-3.04l-1,3.04h-.58l-1.03-3.04v3.04h-.66v-3.77h1.04Zm-4.78,.63v-.63h3.12v.63h-1.2v3.14h-.72v-3.14h-1.21Z"/></g></g></g></svg>