<?xml version="1.0" encoding="UTF-8"?><svg id="Capa_2" xmlns="http://www.w3.org/2000/svg" viewBox="0 0 369.49 166.95"><defs><style>.cls-1{fill:#fff;}.cls-2{fill:none;}</style></defs><g id="Capa_1-2"><g><rect class="cls-2" width="369.49" height="166.95" rx="11.08" ry="11.08"/><g><path class="cls-1" d="M24.87,51.94l-3.53,5.85h24.54c1.91,0,3.47,1.56,3.47,3.47v38.98h13.35V61.26c0-1.91,1.56-3.47,3.47-3.47h21.11l3.71-5.85H24.87Z"/><path class="cls-1" d="M184.43,65.84c-6.74,0-10.97,3.91-10.97,10.16v14.11c0,6.66,3.75,10.12,10.92,10.12h24.59v4.6c0,3.2-2.14,4.88-6.48,4.88h-26.85l-2.19,5.31h38.18c7.66,0,10.92-3.36,10.92-10.09l.02-39.08h-38.15Zm24.58,29h-16.08c-5.46,0-6.49-2.29-6.49-5.6l-.03-12.39c0-2.92,1.32-5.68,6.56-5.68h16.08l-.05,23.67Z"/><path class="cls-1" d="M280.82,65.79h-13.43l.03,29.1h-15.2c-3.74,0-5.68-1.5-5.68-5.68l-.02-23.42h-13.33s-.05,14.46-.05,23.34,4.38,11.1,13.22,11.1h34.49v-34.44Z"/><path class="cls-1" d="M335.41,65.51h-32.54c-3.71,0-12.3,1-12.3,9.83,0,7.71,7.58,9.9,13.72,10.75,4.71,.65,12.86,1.92,14.37,2.15,3.23,.48,5.94,1.22,5.8,3.56-.16,2.66-2.4,3.15-5.36,3.15h-27.9l-2.56,5.29h34.91c2.68,0,13.14-.45,13.07-10.55-.07-8.65-8.95-10.15-13.78-10.93-2.72-.44-13.89-1.95-15.15-2.17-2.9-.5-4.9-.8-4.9-3.3s3.06-2.68,5.51-2.68h24.44l2.67-5.11Z"/><path class="cls-1" d="M112.56,65.83c-4.77,0-3.36,0-30.14-.01l-2.22,5.29h24.32c5.59,.01,6.59,1.63,6.59,4.39l-.05,1.09c-19.03,1.51-17.85,1.48-22.84,1.92-5.29,.46-10.98,3.3-10.98,9.49,0,.89,0,1.4,0,2.76,0,2.68,2.18,9.43,11.12,9.43,8.18,0,36.19,.02,36.19,.02,0,0,0-23.6,0-24.35,0-7.3-4.96-10.02-11.98-10.02Zm-17.45,29.01c-3.36,0-5.79-.84-5.79-4.66v-.9c-.01-3.65,1.46-4.94,4.73-5.41,0,0,7.81-.94,17.02-1.78v12.76h-15.96Z"/><path class="cls-1" d="M168.13,71.16l2.42-5.35h-35.47v34.43h13.47l.02-23.39c0-3.85,2.1-5.68,6.48-5.68h13.07Z"/><path class="cls-1" d="M345.8,66.19c.48,.2,.89,.47,1.23,.83,.35,.35,.62,.77,.82,1.24,.2,.47,.3,.98,.3,1.53s-.1,1.06-.3,1.53c-.2,.47-.47,.88-.82,1.23-.35,.35-.76,.62-1.23,.82-.47,.2-.99,.3-1.54,.3s-1.06-.1-1.54-.3c-.48-.2-.88-.47-1.23-.82-.35-.35-.62-.76-.82-1.23-.2-.47-.3-.98-.3-1.53s.1-1.05,.3-1.53c.2-.47,.47-.89,.82-1.24,.35-.35,.76-.63,1.23-.83,.47-.2,.99-.3,1.54-.3s1.06,.1,1.54,.3Zm-2.85,.52c-.4,.17-.75,.41-1.04,.71-.29,.3-.52,.65-.69,1.06-.16,.4-.24,.84-.24,1.31s.08,.9,.24,1.31c.16,.4,.39,.76,.69,1.06,.29,.3,.64,.54,1.04,.71,.4,.17,.84,.26,1.31,.26s.9-.09,1.3-.26c.4-.17,.75-.41,1.04-.71,.29-.3,.52-.65,.69-1.06,.17-.4,.25-.84,.25-1.31s-.08-.9-.25-1.31c-.17-.4-.4-.76-.69-1.06-.29-.3-.64-.54-1.04-.71-.4-.17-.83-.26-1.3-.26s-.91,.09-1.31,.26Zm-.12,5.3v-4.5h1.72c.51,0,.88,.11,1.11,.32,.23,.21,.35,.52,.35,.93,0,.2-.03,.37-.09,.51-.06,.15-.14,.27-.24,.37-.1,.1-.22,.18-.36,.24-.14,.06-.28,.1-.43,.13l1.34,1.99h-.65l-1.26-1.99h-.93v1.99h-.55Zm1.78-2.48c.16-.01,.31-.04,.43-.09,.13-.05,.23-.13,.3-.23,.08-.11,.12-.26,.12-.45,0-.16-.03-.29-.09-.39-.06-.1-.14-.18-.24-.24-.1-.06-.21-.1-.34-.12-.12-.02-.26-.03-.4-.03h-1.01v1.56h.73c.17,0,.33,0,.5-.02Z"/></g></g></g></svg>