<?xml version="1.0" encoding="UTF-8"?><svg id="Capa_2" xmlns="http://www.w3.org/2000/svg" viewBox="0 0 369.49 166.95"><defs><style>.cls-1{fill:#fff;fill-rule:evenodd;}.cls-2{fill:none;}</style></defs><g id="Capa_1-2"><g><rect class="cls-2" width="369.49" height="166.95" rx="11.08" ry="11.08"/><g><path class="cls-1" d="M239.63,94.72v6.71c-12.7,2.54-25.31,2.54-37.81,0v-35.98h8.95v29.27h28.86ZM21.21,65.45c14.7-2.44,29.71-2.44,44.42,0v6.4h-17.78v29.58h-8.94v-29.58H21.21v-6.4h0Zm272.19,29.27v6.71c-13.42,2.54-26.73,2.54-39.84,0v-35.98c13.11-2.44,26.22-2.44,39.33,0v6.4h-30.29v7.32h17.68v7.22h-17.68v8.34h30.79Z"/><path class="cls-1" d="M170.01,90.35c0,1.73-.61,3.25-1.83,4.47-1.32,1.22-2.84,1.83-4.57,1.83s-3.15-.61-4.47-1.83c-1.22-1.22-1.83-2.74-1.83-4.47s.61-3.25,1.83-4.47c1.22-1.32,2.74-1.93,4.47-1.93s3.25,.61,4.57,1.93c1.22,1.22,1.83,2.74,1.83,4.47Z"/><path class="cls-1" d="M117.46,79.17h-25.71v-14.53l-8.23,1.02v36.18l8.23,1.02v-16.37h25.71v16.37l8.23-1.02v-36.18l-8.23-1.12v14.64Zm46.24-6.81l16.47,30.19,8.95-1.12-4.17-7.21-.1-.1-16.67-28.66h-8.23l-20.73,35.98,8.03,1.02,14.03-25.72,.1-.1,2.34-4.27Zm151.14,7.11v-7.62h32.93v-6.4c-6.4-1.18-12.9-1.72-19.41-1.63-6.41,0-11.89,.61-16.67,1.93-1.73,.51-3.05,1.32-3.76,2.54-.71,1.22-1.12,3.15-1.12,5.69v3.96c0,3.35,.71,5.59,2.13,6.81,1.32,1.12,3.86,1.72,7.52,1.72h23.78v8.24h-33.44v6.71l21.55,1.73v-.1c5.38,0,10.46-.71,15.25-2.03,1.73-.41,2.95-1.22,3.66-2.54,.71-1.22,1.02-3.05,1.02-5.59v-4.88c0-3.35-.71-5.59-2.03-6.81-1.32-1.12-3.76-1.73-7.52-1.73h-23.89Z"/></g></g></g></svg>