<?xml version="1.0" encoding="utf-8"?>
<!-- Generator: Adobe Illustrator 27.2.0, SVG Export Plug-In . SVG Version: 6.00 Build 0)  -->
<svg version="1.1" id="Capa_2" xmlns="http://www.w3.org/2000/svg" xmlns:xlink="http://www.w3.org/1999/xlink" x="0px" y="0px"
	 viewBox="0 0 369.5 166.9" style="enable-background:new 0 0 369.5 166.9;" xml:space="preserve">
<style type="text/css">
	.st0{enable-background:new    ;}
	.st1{fill:#FFFFFF;}
</style>
<g>
	<g class="st0">
		<path class="st1" d="M132.5,56.1V88c0,5.4-1.7,9.6-5.2,12.7c-3.5,3.1-8,4.6-13.5,4.6c-5.4,0-9.8-1.5-13.3-4.6
			c-3.4-3.1-5.1-7.3-5.1-12.7V56.1h8V88c0,3.4,1,6.1,2.9,8c1.9,1.9,4.4,2.8,7.5,2.8c3.2,0,5.8-0.9,7.8-2.8c2-1.9,3-4.5,3-8V56.1
			H132.5z"/>
		<path class="st1" d="M141.8,104.6V56.1h15.7c5.3,0,9.4,1.1,12.4,3.3c3,2.2,4.5,5.5,4.5,9.9c0,2.1-0.6,4.1-1.8,5.8
			c-1.2,1.7-2.9,3-5,3.9c3.1,0.5,5.4,1.9,7.1,4c1.7,2.2,2.5,4.7,2.5,7.7c0,4.6-1.5,8-4.4,10.4c-2.9,2.4-7,3.5-12.1,3.5H141.8z
			 M149.8,76.5h8.5c2.5,0,4.4-0.6,5.9-1.8c1.4-1.2,2.1-2.9,2.1-5c0-2.4-0.8-4.2-2.3-5.3c-1.5-1.2-3.7-1.8-6.6-1.8h-7.7V76.5z
			 M149.8,82.5v15.6h10.8c2.8,0,4.9-0.6,6.4-1.9c1.5-1.3,2.2-3.1,2.2-5.5c0-2.4-0.7-4.4-2.2-5.8s-3.5-2.2-6.2-2.3h-0.4H149.8z"/>
		<path class="st1" d="M193.2,104.6h-8V56.1h8V104.6z"/>
		<path class="st1" d="M286,56.1V88c0,5.4-1.7,9.6-5.2,12.7c-3.5,3.1-8,4.6-13.5,4.6c-5.4,0-9.8-1.5-13.3-4.6
			c-3.4-3.1-5.1-7.3-5.1-12.7V56.1h8V88c0,3.4,1,6.1,2.9,8c1.9,1.9,4.4,2.8,7.5,2.8c3.2,0,5.8-0.9,7.8-2.8c2-1.9,3-4.5,3-8V56.1H286
			z"/>
		<path class="st1" d="M303.2,104.6h-8V56.1h8V104.6z"/>
		<path class="st1" d="M348.6,62.6h-14.8v42h-8v-42h-14.5v-6.5h37.3V62.6z"/>
		<path class="st1" d="M364,104.6h-8V56.1h8V104.6z"/>
	</g>
	<path class="st1" d="M57.1,53.6h-3.3v3.3h3.3V53.6z"/>
	<path class="st1" d="M45.5,76.9v-6.7l0,0h6.7v6.7h6.7V79c0,2.4-0.2,5.3-0.7,7.6c-0.3,1.3-0.7,2.5-1.1,3.7c-0.5,1.2-1,2.4-1.7,3.5
		c-0.8,1.4-1.7,2.7-2.8,4l-0.1,0.1L52.3,98c-0.3,0.3-0.5,0.6-0.8,0.9c-0.3,0.3-0.7,0.7-1,1c-4.3,4.1-9.8,6.7-15.6,7.3
		c-0.7,0.1-2.1,0.1-2.8,0.1c-0.7,0-2.1-0.1-2.8-0.1c-5.8-0.6-11.4-3.2-15.6-7.3c-0.3-0.3-0.7-0.7-1-1c-0.3-0.3-0.6-0.6-0.8-0.9l0,0
		l-0.1-0.1c-1.1-1.2-2-2.6-2.8-4c-0.6-1.1-1.2-2.2-1.7-3.5c-0.5-1.2-0.9-2.5-1.1-3.7c-0.5-2.3-0.7-5.2-0.7-7.6V54h13.3v22.9
		c0,0,0,1.8,0,2.3l0,0.1v0c0,0.7,0.1,1.5,0.1,2.2c0.2,2.1,0.7,4,1.6,5.7c0.3,0.5,0.5,0.9,0.9,1.4c2,2.7,5,4.7,8.9,5.2
		c0.5,0.1,1.4,0.1,1.8,0.1s1.4-0.1,1.8-0.1c3.8-0.6,6.8-2.6,8.9-5.2c0.3-0.4,0.6-0.9,0.9-1.4c0.9-1.6,1.4-3.6,1.6-5.7
		c0.1-0.7,0.1-1.5,0.1-2.2l0-0.1C45.5,78.7,45.5,76.9,45.5,76.9z"/>
	<path class="st1" d="M47.1,58.6h5v5h6.7v6.7h-6.7v-6.7h-5V58.6L47.1,58.6z"/>
	<path class="st1" d="M241.9,84.3v-8.7c0-5.9-1.9-10.8-5.6-14.7s-8.6-5.9-14.5-5.9c-5.8,0-10.5,2-14.2,5.9
		c-3.6,3.9-5.4,8.8-5.4,14.7v8.7c0,5.9,1.8,10.8,5.5,14.7c3.6,3.9,8.4,5.8,14.2,5.8c1.3,0,2.6-0.1,3.9-0.3l10.6,8.7l5.6-4.7
		l-8.3-7.2c1-0.7,1.9-1.5,2.7-2.3C240,95.1,241.9,90.2,241.9,84.3z M233.8,84.3c0,4.1-1.1,7.5-3.2,10.1c-2.1,2.6-5.1,3.9-8.8,3.9
		c-3.6,0-6.4-1.3-8.4-3.9c-2.1-2.6-3.1-6-3.1-10v-8.8c0-4,1-7.4,3.1-10c2.1-2.6,4.9-3.9,8.4-3.9c3.7,0,6.6,1.3,8.8,3.9
		c2.2,2.6,3.2,5.9,3.2,10V84.3z"/>
</g>
</svg>
