<?xml version="1.0" encoding="UTF-8"?><svg id="Capa_2" xmlns="http://www.w3.org/2000/svg" viewBox="0 0 369.49 166.95"><defs><style>.cls-1{fill:#fff;fill-rule:evenodd;}.cls-2{fill:none;}</style></defs><g id="Capa_1-2"><g><rect class="cls-2" x="0" y="0" width="369.49" height="166.95" rx="11.08" ry="11.08"/><path class="cls-1" d="M50.77,58.03v1.95h-1.13c-1.03,0-1.95,.1-2.88,.41-.82,.21-1.23,.93-1.23,1.95v.62c.1,.21,.1,.41,.21,.62,0,.1,.1,.31,.21,.51,0,.21,.1,.41,.1,.62l9.25,26.42,9.87-25.08c.1,0,.1-.1,.1-.1,.1-.1,.1-.2,.1-.31,.1-.31,.21-.62,.31-1.03,.1-.41,.21-.82,.21-1.23,0-1.03-.31-1.75-.93-2.26-.51-.51-1.23-.82-1.85-.93-.41-.1-.72-.21-1.13-.21h-1.95v-1.95h16.14v1.95c-2.06,0-3.7,.72-4.83,2.06-1.13,1.34-1.95,2.78-2.57,4.42-.1,.1-.1,.21-.21,.31,0,.1-.1,.31-.1,.41l-16.75,42.76h-1.64l-16.24-43.58c0-.1,0-.21-.1-.21,0-.1,0-.21-.1-.31-.62-1.75-1.34-3.08-2.26-4.21-.82-1.03-2.26-1.64-4.11-1.64l-.1-1.95h23.64Zm25.18,49.24h.41c1.23,0,1.95-.31,2.36-.82,.31-.62,.51-1.34,.51-2.06v-26.21c0-.21-.1-.41-.21-.51,0-.51-.31-1.03-.72-1.34-.41-.41-1.13-.62-2.16-.62h-.21v-1.64h13.16v30.53c0,.62,.21,1.23,.62,1.85,.41,.62,1.13,.92,2.36,.82h.31v1.64h-16.45v-1.64h0Zm2.88-43.99c0-1.54,.51-2.78,1.54-3.8,1.13-1.03,2.36-1.44,3.8-1.44s2.57,.41,3.39,1.23c.93,.82,1.44,1.75,1.75,2.77,0,.21,.1,.41,.1,.62v1.34c-.1,.21-.1,.41-.21,.72-.31,.92-.82,1.85-1.75,2.67-.82,.72-1.95,1.13-3.29,1.13-1.54,0-2.88-.51-3.8-1.54-1.03-1.03-1.54-2.26-1.54-3.7h0Zm45.74,36.08c-.21,.41-.31,.72-.51,.92-.1,.31-.31,.62-.41,.93-1.13,2.26-2.88,4.21-4.93,6.06-2.06,1.75-4.93,2.67-8.43,2.67-4.83,0-8.53-1.75-11.1-5.14-2.57-3.39-3.91-7.4-3.91-11.92,0-5.96,1.44-10.79,4.42-14.49,2.88-3.8,6.48-5.65,10.69-5.65s7.5,1.65,10.18,4.83c2.67,3.19,4.01,7.5,4.01,13.16h-19.22v.41c0,.51,.1,1.23,.1,1.85,.1,.62,.21,1.34,.31,2.06,.51,2.26,1.54,4.32,2.98,6.17,1.44,1.95,3.6,2.88,6.37,2.88,1.44,0,2.78-.41,4.01-1.34,1.23-.82,2.47-2.26,3.6-4.42l1.85,1.03h0Zm-9.46-11.72v-1.85c0-2.78-.21-4.83-.82-6.27-.51-1.34-1.13-2.26-1.64-2.88-.41-.31-.82-.62-1.23-.62-.41-.1-.72-.21-.93-.21-.31,0-.62,.1-.92,.21-.41,0-.72,.21-1.13,.51-.72,.62-1.44,1.75-2.06,3.39-.72,1.64-1.03,4.21-1.03,7.71h9.76Zm26.72-13.57v1.64h-.62c-.51,0-1.03,.1-1.44,.41-.41,.31-.62,.82-.62,1.44v.62c.1,.21,.1,.31,.1,.51q.1,.1,.1,.21c.1,.1,.1,.21,.1,.31l5.24,15.21,3.91-11.1-1.54-4.93c0-.1-.1-.31-.21-.51,0-.21-.1-.41-.31-.62-.1-.41-.41-.72-.82-1.03-.31-.41-.82-.51-1.44-.51v-1.64h15.83v1.64h-1.64c-.51,0-.92,.1-1.34,.41-.41,.31-.62,.82-.62,1.44v.72c.1,.2,.1,.41,.21,.62,0,0,0,.1,.1,.1v.21l4.73,15.21,4.63-14.29c0-.1,0-.21,.1-.31,0-.1,0-.31,.1-.51v-.21c.1-.31,.1-.51,.21-.72v-.82c-.1-.41-.31-.93-.72-1.23-.41-.41-1.03-.62-1.95-.62h-.2v-1.64h9.56v1.64c-1.03,0-1.85,.41-2.36,1.23-.51,.72-1.03,1.75-1.44,2.98l-10.18,30.01h-2.06l-7.09-21.79-7.91,21.79h-2.06l-11.41-31.56c-.2-.72-.62-1.34-.92-1.85-.41-.62-1.03-.82-1.75-.82l-.1-1.64h15.83Zm70.92-1.03h-1.85c-.72-3.7-2.26-6.68-4.93-8.74-2.67-2.06-5.45-3.39-8.53-3.91-.51-.1-1.03-.1-1.54-.1-.41-.1-.93-.1-1.34-.1-2.47,0-4.32,.51-5.65,1.44-1.23,1.03-2.16,2.06-2.57,3.29-.1,.41-.21,.72-.31,1.13,0,.31-.1,.72-.1,1.03,0,2.57,.92,4.42,2.88,5.55,1.85,1.23,4.21,2.36,6.99,3.29,.21,.1,.41,.21,.72,.21,.21,.1,.51,.21,.72,.31,.62,.1,1.23,.31,1.85,.51,.62,.21,1.13,.41,1.75,.72,3.7,1.23,6.99,3.08,10.07,5.35,2.98,2.36,4.52,5.86,4.52,10.69s-1.85,8.84-5.35,11.82c-3.6,2.98-7.91,4.42-13.05,4.42-1.95,0-3.6-.1-4.93-.51-1.44-.31-2.67-.62-3.7-1.03-.31-.1-.72-.31-1.03-.41-.31-.1-.62-.31-.92-.41-.93-.41-1.64-.72-2.16-.92-.51-.21-1.03-.21-1.44-.21-.72,0-1.34,.31-1.95,.92-.62,.72-1.03,1.54-1.34,2.57h-1.95v-19.02h1.95c1.23,5.65,3.39,9.66,6.37,11.92,2.98,2.36,6.17,3.6,9.46,3.8h.93c3.91,0,6.78-.93,8.43-2.67,1.75-1.75,2.57-3.8,2.57-6.06,0-2.67-1.03-4.63-3.19-5.96-2.16-1.34-4.73-2.47-7.71-3.49-.21-.1-.41-.21-.62-.31-.31,0-.51-.1-.72-.21-.51-.21-1.13-.41-1.64-.62-.62-.21-1.23-.41-1.75-.62-3.49-1.34-6.58-3.08-9.46-5.24-2.88-2.26-4.21-5.55-4.21-10.07,0-.62,0-1.23,.1-1.95,.1-.62,.21-1.34,.51-1.95,.82-2.67,2.47-5.04,5.04-7.2,2.57-2.26,6.17-3.29,10.9-3.29,1.75,0,3.39,.21,4.83,.51,1.54,.31,2.67,.51,3.7,.93,.51,.1,.92,.31,1.34,.51,.41,.1,.72,.31,1.03,.41,.82,.31,1.34,.62,1.85,.82,.41,.1,.82,.21,1.13,.21,.93,0,1.54-.31,1.75-.82,.31-.62,.41-1.34,.41-2.16v-.41h1.95l.21,16.04h0Zm24.26,36.9c-.62,0-1.23-.1-1.85-.21-.72-.1-1.34-.21-1.95-.31-3.19-.82-6.06-2.57-8.63-5.55-2.57-2.88-3.91-7.09-3.91-12.44s1.64-9.97,4.73-13.36c3.19-3.49,7.09-5.24,11.61-5.24,4.11,0,7.81,1.54,11.31,4.73,3.39,3.19,5.04,7.81,5.04,13.88s-1.64,10.69-5.04,13.77c-3.39,3.19-7.19,4.73-11.31,4.73h0Zm0-2.98c2.26,0,3.8-1.13,4.52-3.5,.72-2.26,1.13-4.83,1.23-7.61v-8.84c-.1-2.77-.51-5.34-1.23-7.71-.72-2.26-2.26-3.5-4.52-3.5s-3.7,1.23-4.42,3.5c-.72,2.36-1.13,4.93-1.23,7.71-.1,.82-.1,1.54-.1,2.26v4.32c0,.72,0,1.54,.1,2.26,.1,2.78,.51,5.35,1.23,7.61,.72,2.36,2.26,3.5,4.42,3.5h0Zm19.53,.31h.41c.93,0,1.64-.21,2.06-.51,.41-.41,.62-.82,.72-1.34,0-.21,.1-.41,.1-.62v-26.62c0-.21,0-.41-.1-.51-.1-.51-.41-1.03-.82-1.34-.41-.41-1.03-.62-2.06-.62h-.31v-1.64h13.16v4.01c1.95-2.16,3.7-3.6,5.24-4.21,1.64-.72,3.08-1.03,4.42-1.03h.21c2.06,0,3.91,.82,5.65,2.26,1.75,1.54,2.57,4.11,2.57,7.71v22c.1,.21,.1,.41,.1,.62,.1,.51,.41,.93,.82,1.34,.41,.31,1.03,.51,1.95,.51h.41v1.64h-16.03v-1.64h.21c.82,0,1.44-.1,1.75-.51,.41-.31,.62-.72,.72-1.13,.1-.31,.1-.62,.21-.82v-24.05c-.1-.31-.1-.72-.21-1.03-.1-.51-.41-.92-.82-1.34-.41-.41-1.03-.62-1.85-.62-.93,0-1.75,.31-2.57,1.03-.82,.72-1.44,1.54-2.06,2.36-.1,.21-.21,.41-.31,.62-.21,.1-.31,.31-.41,.51v21.89c0,.21,0,.41,.1,.62,0,.21,0,.51,.1,.72,.1,.41,.41,.82,.72,1.23,.41,.41,1.03,.51,1.95,.51h0v1.64h-16.03v-1.64h0Zm36.8,0h.41c1.23,0,1.95-.31,2.36-.82,.31-.62,.51-1.34,.51-2.06v-26.21c0-.21-.1-.41-.21-.51-.1-.51-.31-1.03-.72-1.34-.41-.41-1.13-.62-2.16-.62h-.21v-1.64h13.16v30.53c0,.62,.21,1.23,.62,1.85,.31,.62,1.13,.92,2.36,.82h.31v1.64h-16.45v-1.64h0Zm2.88-43.99c0-1.54,.51-2.78,1.54-3.8,1.03-1.03,2.26-1.44,3.8-1.44,1.44,0,2.57,.41,3.39,1.23,.92,.82,1.44,1.75,1.75,2.77,0,.21,.1,.41,.1,.62v1.34c-.1,.21-.1,.41-.21,.72-.31,.92-.93,1.85-1.75,2.67-.82,.72-1.95,1.13-3.29,1.13-1.54,0-2.88-.51-3.8-1.54-1.03-1.03-1.54-2.26-1.54-3.7h0Zm46.15,37c-1.95,3.5-4.11,5.96-6.48,7.4-2.47,1.54-5.14,2.26-8.22,2.26-4.52,0-8.22-1.75-10.9-5.14-2.78-3.49-4.11-7.71-4.11-12.64,0-5.96,1.54-10.69,4.73-14.18,3.08-3.39,6.78-5.14,11.1-5.14,3.49,0,6.27,.72,8.33,2.26,2.16,1.44,3.49,3.08,4.01,4.83,.1,.31,.21,.62,.31,.93v1.85c0,.31-.1,.62-.21,.92-.21,.82-.62,1.54-1.23,2.26-.72,.62-1.64,1.03-3.08,1.03-1.64,0-3.08-.62-4.11-1.95-1.03-1.23-1.64-3.08-1.75-5.45,0-.2,0-.41-.1-.62,0-.21,0-.41-.1-.62-.1-.62-.41-1.13-.82-1.64-.41-.51-1.13-.72-2.06-.72-1.44,0-2.67,.82-3.8,2.47-1.13,1.75-1.75,4.42-1.75,8.22,0,5.14,.82,8.94,2.36,11.51,1.54,2.57,3.29,4.32,5.04,5.04,.62,.21,1.13,.41,1.64,.51,.51,.1,1.03,.21,1.54,.21,.31,0,.62,0,.93-.1,.41,0,.72-.1,1.03-.21,1.13-.21,2.16-.72,3.19-1.54,1.03-.72,1.95-1.64,2.67-2.88l1.85,1.13h0Z"/></g></g></svg>