<?xml version="1.0" encoding="UTF-8"?><svg id="Capa_2" xmlns="http://www.w3.org/2000/svg" viewBox="0 0 369.49 166.95"><defs><style>.cls-1{fill:#fff;}.cls-2{fill:none;}</style></defs><g id="Capa_1-2"><g><rect class="cls-2" x="0" width="369.49" height="166.95" rx="11.08" ry="11.08"/><path class="cls-1" d="M121.51,55.27c-6.31,0-9.28,.65-12.57,1.92l-.59,.21,3.57,6.34,.43-.16c2.43-.99,5.11-1.33,10.12-1.33h5.33c7.79,0,12.25,3.88,12.25,10.7v20.98c0,6.82-4.46,10.7-12.25,10.7h-8.68c-7.98,0-11.88-3.2-11.88-9.85s3.89-9.8,11.88-9.8h12.09v-7.03h-12.46c-11.85,0-18.64,6.16-18.64,16.88s7.14,16.83,18.64,16.83h9.37c13.08,0,19.07-8.73,19.07-16.83v-22.79c0-8.1-5.98-16.78-19.07-16.78h-6.6Zm52.72,0c-13.08,0-19.07,8.68-19.07,16.78v22.79c0,8.1,5.98,16.83,19.07,16.83h8.1c6.66,0,11.03-.97,14.54-3.25l.43-.32-4.05-5.91-.43,.27c-2.62,1.58-5.93,2.18-11.4,2.18h-6.87c-7.9,0-12.25-3.78-12.25-10.7v-20.98c0-6.93,4.35-10.7,12.25-10.7h6.87c5.46,0,8.77,.65,11.4,2.24l.43,.27,4.05-5.96-.43-.27c-3.51-2.27-7.87-3.25-14.54-3.25h-8.09Zm46.7,0c-13.13,0-19.12,8.68-19.12,16.78v22.79c0,8.1,5.98,16.83,19.07,16.83h9.37c13.09,0,19.01-8.73,19.01-16.83v-22.79c0-8.09-5.98-16.78-19.12-16.78h-9.21Zm55.33,.11c-11.29,0-18.59,6.41-18.59,16.3v39.73h7.14v-38.82c0-6.87,3.84-10.23,11.77-10.23,7.52,0,11.66,3.43,11.66,9.59v39.46h7.14v-39.46c0-6.16,4.14-9.59,11.66-9.59,7.93,0,11.82,3.36,11.82,10.22v38.82h7.08v-39.73c0-9.89-7.3-16.3-18.59-16.3-7.53,0-12.08,1.86-15.55,6.34-3.46-4.48-8.03-6.34-15.55-6.34h0Zm-251.1,.27v39.73c0,9.89,7.3,16.3,18.59,16.3,7.52,0,12.09-1.86,15.55-6.34,3.47,4.48,8.03,6.34,15.55,6.34,11.28,0,18.59-6.41,18.59-16.3V55.65h-7.08v38.82c0,6.87-3.89,10.17-11.82,10.17-7.52,0-11.66-3.38-11.66-9.53V55.65h-7.08v39.46c0,6.15-4.14,9.53-11.66,9.53-7.93,0-11.82-3.31-11.82-10.17V55.65h-7.14Zm313.72,0c-1.5,0-2.78,.54-3.83,1.6-1.06,1.06-1.6,2.33-1.6,3.83s.55,2.82,1.6,3.89c1.05,1.06,2.33,1.6,3.83,1.6s2.77-.53,3.83-1.6c1.06-1.07,1.6-2.38,1.6-3.89s-.53-2.77-1.6-3.83c-1.06-1.06-2.33-1.6-3.83-1.6Zm0,.75c1.3,0,2.39,.46,3.3,1.38,.91,.92,1.38,2.06,1.38,3.35s-.48,2.38-1.38,3.3c-.91,.92-2,1.38-3.3,1.38s-2.4-.46-3.3-1.38c-.9-.92-1.38-2-1.38-3.3s.48-2.44,1.38-3.35c.91-.92,2.01-1.38,3.3-1.38Zm-2.18,1.7v5.96h1.01v-2.34h.85c.56,0,.95,.09,1.17,.21,.37,.22,.53,.64,.53,1.33v.48l.05,.21s0,.03,0,.05c0,.02,0,.03,0,.05h1.01l-.05-.05c-.03-.05-.04-.16-.05-.32-.01-.16,0-.29,0-.43v-.48c0-.3-.1-.59-.32-.91-.22-.32-.55-.51-1.01-.59,.37-.06,.65-.14,.85-.27,.39-.25,.59-.69,.59-1.22,0-.76-.34-1.24-.96-1.49-.34-.14-.86-.21-1.6-.21h-2.08Zm1.01,.69h.91c.58,0,1.01,.11,1.28,.27,.27,.14,.42,.42,.43,.85,0,.46-.22,.79-.64,.96-.22,.09-.57,.11-1.01,.11h-.96v-2.18h0Zm-116.52,3.46h8.68c7.79,0,12.25,3.88,12.25,10.7v20.98c0,6.82-4.46,10.7-12.25,10.7h-8.68c-7.9,0-12.25-3.78-12.25-10.7v-20.98c0-6.83,4.46-10.7,12.25-10.7Z"/></g></g></svg>