<?xml version="1.0" encoding="UTF-8"?><svg id="Capa_2" xmlns="http://www.w3.org/2000/svg" viewBox="0 0 369.49 166.95"><defs><style>.cls-1{fill:#fff;fill-rule:evenodd;}.cls-2{fill:none;}</style></defs><g id="Capa_1-2"><g><rect class="cls-2" x="0" width="369.49" height="166.95" rx="11.08" ry="11.08"/><path class="cls-1" d="M43.54,53.79h-15.19l23.1,35.02-1.29,25.13h14.05l1.43-25.28-.03-.05,25.71-35.07h-15.14l-17.15,24.35-.07-.11-15.43-23.99h0Zm215.91,14.49h-14.32l-2.48,45.19h14.4l1.78-31.94c16.82-8.21,16.23,3.76,16.23,3.76l-1.35,28.18h14.21l1.98-29.66s1.58-15.34-11.48-16.62-19.19,6.23-19.19,6.23l.22-5.14h0Zm-39.52-17.71h14.6l-.62,11.18h-14.58l.6-11.18h0Zm13.61,17.66l-2.53,45.36h-14.49l2.45-45.36h14.57Zm64.82-16.47h12.52l-1.57,32.01,18.38-17.87h13.46l-19.33,19.1,14.58,28.2h-12.96l-10.01-21.35-4.77,5.16-.79,16.18h-12.43l2.92-61.44h0Zm-104.49-1.19h14.6l-3.51,63.02h-14.49l3.41-63.02h0Zm-19.34,17.22l-.38,5.57c-2.91-3.97-8.46-8.1-18.71-6.56-18.4,2.77-24.73,22.66-20.88,34.13,3.86,11.48,14.64,15.73,22.66,15.14,7.77-.58,11.63-2.54,14.47-6.9l-.32,4.72h10.69l3.46-46.06-10.98-.05h0Zm-15.67,9.79c7.43,0,13.09,6.18,12.64,13.8-.45,7.62-6.85,13.8-14.28,13.8s-13.09-6.18-12.64-13.8c.45-7.62,6.85-13.8,14.28-13.8h0Zm-55.53-13.36c14.4,0,26.07,11.67,26.07,26.07,0,1.81-.19,3.58-.54,5.29h-10.51l.03-.1h-29.89c2.04,6.31,7.96,10.88,14.94,10.88,4.02,0,7.69-1.51,10.47-4h12.53c-4.36,8.32-13.07,14-23.11,14-14.4,0-26.07-11.67-26.07-26.07s11.67-26.07,26.07-26.07h0Zm-15.27,23.25h30.75c-1.48-7.14-7.8-12.51-15.37-12.51s-13.9,5.37-15.37,12.51h0Z"/></g></g></svg>